<?xml version="1.0" standalone="no"?>
<!DOCTYPE svg PUBLIC "-//W3C//DTD SVG 1.1//EN" "http://www.w3.org/Graphics/SVG/1.1/DTD/svg11.dtd" >
<svg>
<metadata>
Created by FontForge 20090914 at Fri Jan  8 20:20:33 2016
 By www-data
Copyright (c) 1991 Adobe Systems Incorporated.  All Rights Reserved.Clairvaux is a trademark of Linotype AG and/or its subsidiaries.
</metadata>
<defs>
<font id="Clairvaux" horiz-adv-x="481" >
  <font-face 
    font-family="Clairvaux"
    font-weight="400"
    font-stretch="normal"
    units-per-em="1000"
    panose-1="2 11 5 0 0 0 0 0 0 0"
    ascent="800"
    descent="-200"
    x-height="493"
    cap-height="712.002"
    bbox="-80 -225.001 1078 935"
    underline-thickness="50"
    underline-position="-50"
    unicode-range="U+0020-U+2122"
  />
<missing-glyph horiz-adv-x="502" 
d="M-1 0h500v500h-500v-500zM9 10v480h480v-480h-480z" />
    <glyph glyph-name=".notdef" horiz-adv-x="502" 
d="M-1 0h500v500h-500v-500zM9 10v480h480v-480h-480z" />
    <glyph glyph-name="space" unicode=" " horiz-adv-x="250" 
 />
    <glyph glyph-name="exclam" unicode="!" horiz-adv-x="258" 
d="M63 578l21 11.999c2 -18.667 4 -43.834 6 -75.501s4 -66.5 6 -104.5s3.83301 -76.167 5.5 -114.5s2.5 -73.166 2.5 -104.499l9 -3c6 12 13.167 24.833 21.5 38.5s16.833 25.167 25.5 34.5l5 114.5c2 45 4 84 6 117s4.16699 66.333 6.5 100s4.5 58.834 6.5 75.501l-13 8
c-40 -34 -78.333 -61.333 -115 -82zM60 51.999l56 -63l86 80l-56 62z" />
    <glyph glyph-name="quotedbl" unicode="&#x22;" horiz-adv-x="407" 
d="M94 462l66 42v208l-66 -42v-208zM247 462l66 42v208l-66 -42v-208z" />
    <glyph glyph-name="numbersign" unicode="#" horiz-adv-x="500" 
d="M206 381h116l-28 -127h-116zM10 198h100l-42 -198h56l42 198h116l-42 -198h56l42 198h112v56h-100l28 127h112v56h-100l42 198h-56l-42 -198h-116l42 198h-56l-42 -198h-112v-56h100l-28 -127h-112v-56z" />
    <glyph glyph-name="dollar" unicode="$" horiz-adv-x="444" 
d="M1 63c20 -23.333 44.8379 -41.499 74.5049 -54.499s59.834 -19.5 90.501 -19.5h9c5.33301 0.666992 8.33301 1 9 1c2.66699 0 7 0.666992 13 2c3.33301 1.33301 6 2 8 2v-90l36 13v83c27.333 11.333 48.166 24 62.499 38s28.5 33 42.5 57
c23.333 24 40.166 47.333 50.499 70s15.5 44.667 15.5 66c0 35.333 -12.333 62.666 -37 81.999s-69.334 41 -134.001 65v183c13.333 -4 30 -7.33301 50 -10s38.333 -4.33398 55 -5.00098l74 89l-13 11l-18 -22c-38 4 -68.833 8.16699 -92.5 12.5s-42.167 8.83301 -55.5 13.5
v55c0 12.667 2 20.334 6 23.001l-6 5l-36 -30v-46l-129 -113c-14.667 -12.667 -25.167 -26.5 -31.5 -41.5s-9.5 -32.5 -9.5 -52.5c0 -18 2.66699 -33.833 8 -47.5s14.166 -26.5 26.499 -38.5s29.5 -23.667 51.5 -35s50 -23.333 84 -36v-228c-11.333 0 -24 1.83301 -38 5.5
s-27.333 8.5 -40 14.5s-23.834 12.333 -33.501 19s-16.834 13 -21.501 19l19 22l-13 11zM241.005 278.001c33.333 -13.333 59.167 -28.333 77.5 -45s27.5 -37.334 27.5 -62.001c0 -31.333 -8.5 -56.166 -25.5 -74.499s-43.5 -28.833 -79.5 -31.5v213zM205.006 393.001
c-37.333 16.667 -63 33.168 -77 49.501s-21 37.833 -21 64.5c0 16 4.16699 30.667 12.5 44s21.5 26.666 39.5 39.999c10.667 -6.66699 26 -13 46 -19v-179z" />
    <glyph glyph-name="percent" unicode="%" horiz-adv-x="667" 
d="M30 443c0 -32.667 11.168 -62.999 33.501 -90.999s54.166 -49.667 95.499 -65c8 4 17.333 9.83301 28 17.5s21.334 15.834 32.001 24.501l27.5 23c7.66699 6.66699 13.167 11.667 16.5 15c8 8 15.167 21.833 21.5 41.5s9.5 38.834 9.5 57.501
c0 40 -11.833 74.333 -35.5 103s-52.5 50.667 -86.5 66c-30.667 -19.333 -54.834 -35.833 -72.501 -49.5s-31.667 -27.334 -42 -41.001s-17.5 -28.334 -21.5 -44.001s-6 -34.834 -6 -57.501zM228.001 431.001c0 -21.333 -2.83301 -41.002 -8.5 -59.002
s-12.167 -29.667 -19.5 -35c-36 15.333 -62.333 34.833 -79 58.5s-25 54.834 -25 93.501c0 22 2.66699 41.333 8 58s14 29.334 26 38.001c29.333 -13.333 53 -33.333 71 -60s27 -58 27 -94zM373.001 144.999c0 -32.667 11.168 -62.999 33.501 -90.999
s54.166 -49.667 95.499 -65c8 4 17.333 9.83301 28 17.5s21.334 15.834 32.001 24.501l27.5 23c7.66699 6.66699 13.167 11.667 16.5 15c8 8 15.167 21.833 21.5 41.5s9.5 38.834 9.5 57.501c0 40 -11.833 74.333 -35.5 103s-52.5 50.667 -86.5 66
c-30.667 -19.333 -54.834 -35.833 -72.501 -49.5s-31.667 -27.334 -42 -41.001s-17.5 -28.334 -21.5 -44.001s-6 -34.834 -6 -57.501zM571.002 133c0 -21.333 -2.83301 -41.002 -8.5 -59.002s-12.167 -29.667 -19.5 -35c-36 15.333 -62.333 34.833 -79 58.5
s-25 54.834 -25 93.501c0 22 2.66699 41.333 8 58s14 29.334 26 38.001c29.333 -13.333 53 -33.333 71 -60s27 -58 27 -94zM178.002 50.998c-10.667 -22 -22 -39.001 -34 -51.001l7 -11l63 23l284 577c8 16.667 16.333 28.334 25 35.001l-5 11l-66 -26z" />
    <glyph glyph-name="ampersand" unicode="&#x26;" horiz-adv-x="611" 
d="M599 78l-11.0049 11.9971l-22 -21c-22 13.333 -44.5 29.5 -67.5 48.5s-41.833 36.167 -56.5 51.5c35.333 40.667 61.5 77.834 78.5 111.501s25.5 62.167 25.5 85.5c0 21.333 -6 39.333 -18 54l-82 -80c16 -10 24 -26.333 24 -49c0 -14 -3.5 -30.667 -10.5 -50
s-17.833 -38.333 -32.5 -57c-37.333 36 -69.166 74.167 -95.499 114.5s-44.833 78.833 -55.5 115.5l73.5 73c16.333 16.667 28.833 30.834 37.5 42.501s14.334 21.334 17.001 29.001s4 16.5 4 26.5c0 20 -4.33301 36.667 -13 50s-22.667 27 -42 41l-112 -87
c-28.667 -22.667 -48 -42.167 -58 -58.5s-15 -36.166 -15 -59.499c0 -24.667 7 -59.667 21 -105c-29.333 -26.667 -53.833 -50.667 -73.5 -72s-35 -40.666 -46 -57.999s-18.667 -33.5 -23 -48.5s-6.5 -30.5 -6.5 -46.5c0 -21.333 4 -41.333 12 -60
s18.833 -34.834 32.5 -48.501s29.334 -24.334 47.001 -32.001s35.834 -11.5 54.501 -11.5c26 0 54.833 8.33301 86.5 25s66.834 43 105.501 79c35.333 -35.333 77 -70 125 -104zM115.995 202.997c0 24.667 6.16699 47.833 18.5 69.5s33.5 45.5 63.5 71.5
c11.333 -24.667 22 -46.5 32 -65.5s21.167 -37.5 33.5 -55.5s26.5 -36.167 42.5 -54.5s34.333 -38.166 55 -59.499c-36 -32 -69.667 -48 -101 -48c-20 0 -38.833 4.16699 -56.5 12.5s-33.167 19.666 -46.5 33.999s-23.5 29.833 -30.5 46.5s-10.5 33 -10.5 49z
M255.995 526.996c0 12.667 2.66797 25.999 8.00098 39.999s12.666 25.667 21.999 35c14.667 -11.333 25 -22.666 31 -33.999s9 -24 9 -38c0 -15.333 -4 -29.5 -12 -42.5s-23.333 -30.167 -46 -51.5c-8 22.667 -12 53 -12 91z" />
    <glyph glyph-name="quotesingle" unicode="'" horiz-adv-x="240" 
d="M87 462l66 42v208l-66 -42v-208z" />
    <glyph glyph-name="parenleft" unicode="(" horiz-adv-x="352" 
d="M363 -11l-12.002 10.999l-28 -21c-50.667 37.333 -90.5 85.333 -119.5 144s-43.5 125.667 -43.5 201c0 95.333 15.5 173.5 46.5 234.5s75.167 109.833 132.5 146.5l-9 14l-91 -48c-15.333 -8 -32.166 -22.5 -50.499 -43.5s-36 -47.333 -53 -79
s-30.833 -67.667 -41.5 -108s-16 -83.166 -16 -128.499c0 -81.333 16.333 -156.5 49 -225.5s79.334 -125.5 140.001 -169.5z" />
    <glyph glyph-name="parenright" unicode=")" horiz-adv-x="352" 
d="M-11 647l12 -10.999l28 21c50.667 -37.333 90.5 -85.333 119.5 -144s43.5 -125.667 43.5 -201c0 -95.333 -15.5 -173.5 -46.5 -234.5s-75.167 -109.833 -132.5 -146.5l9 -14l91 48c15.333 8 32.166 22.5 50.499 43.5s36 47.333 53 79s30.833 67.667 41.5 108
s16 83.166 16 128.499c0 81.333 -16.167 156.5 -48.5 225.5s-79.166 125.5 -140.499 169.5z" />
    <glyph glyph-name="asterisk" unicode="*" horiz-adv-x="389" 
d="M33 567l124 -24l-88 -100l60 -36l62 114l63 -118l57 45l-87 91l132 28l-31 68l-110 -56l14 133l-72 -11l18 -122l-124 56z" />
    <glyph glyph-name="plus" unicode="+" horiz-adv-x="600" 
d="M267 0h66v220h220v66h-220v220h-66v-220h-220v-66h220v-220z" />
    <glyph glyph-name="comma" unicode="," horiz-adv-x="240" 
d="M60 48l42 -42c4 -4 6 -8.66699 6 -14c0 -10.667 -4 -23 -12 -37s-23.667 -34 -47 -60l15 -14c36.667 36.667 67 72.667 91 108s36 63 36 83c0 6 -3.66699 12.667 -11 20l-44 39z" />
    <glyph glyph-name="hyphen" unicode="-" horiz-adv-x="389" 
d="M26 235l13 -11l14 18h261l49 67l-13 11l-14 -18h-261z" />
    <glyph glyph-name="period" unicode="." horiz-adv-x="240" 
d="M49 51l57 -62l85 80l-57 62z" />
    <glyph glyph-name="slash" unicode="/" horiz-adv-x="352" 
d="M266 684l-227 -625l-1 -2c-6.66699 -18.667 -11.834 -32.167 -15.501 -40.5s-7.83398 -15.166 -12.501 -20.499l10 -7l66 35l227 625l1 2c6.66699 18.667 11.834 32.167 15.501 40.5s7.83398 15.166 12.501 20.499l-10 7z" />
    <glyph glyph-name="zero" unicode="0" horiz-adv-x="500" 
d="M35 293c0 -68 18.334 -128.333 55.001 -181s89 -93.667 157 -123c40 25.333 73.667 49.833 101 73.5s49.666 48.5 66.999 74.5s30 54 38 84s12 63.667 12 101c0 71.333 -16 131.333 -48 180s-80.667 93 -146 133c-50.667 -30 -91.334 -57.333 -122.001 -82
s-54.167 -49.167 -70.5 -73.5s-27.666 -51 -33.999 -80s-9.5 -64.5 -9.5 -106.5zM117.001 353c0 48.667 8.16895 92.8311 24.502 132.498s36.833 65.5 61.5 77.5c25.333 -14 48.666 -29.667 69.999 -47s40.166 -37.166 56.499 -59.499s29.333 -47.833 39 -76.5
s14.5 -60.334 14.5 -95.001c0 -65.333 -6.16699 -114.666 -18.5 -147.999s-30.5 -58.666 -54.5 -75.999c-61.333 28 -108.833 65 -142.5 111s-50.5 106.333 -50.5 181z" />
    <glyph glyph-name="one" unicode="1" horiz-adv-x="296" 
d="M-5 517l10 -18.001l117 66v-273c0 -57.333 -0.166992 -103.333 -0.5 -138s-1 -61.667 -2 -81s-2 -34.333 -3 -45s-2.16699 -19 -3.5 -25l-34 -14l7 -16l126 46c-1.33301 30.667 -2 56.334 -2 77.001v288c0 36 1.33301 89.667 4 161l2 80l-13 10z" />
    <glyph glyph-name="two" unicode="2" horiz-adv-x="407" 
d="M29 483l105.999 76.9971c55.333 -27.333 93.833 -51.833 115.5 -73.5s32.5 -50.167 32.5 -85.5c0 -14 -1.5 -27.167 -4.5 -39.5s-8.16699 -25 -15.5 -38s-17.333 -27.167 -30 -42.5s-29.667 -33.666 -51 -54.999l-85 -86.5c-19.333 -20.333 -34.333 -37.333 -45 -51
s-18.667 -25.834 -24 -36.501s-10 -24 -14 -40c15.333 4 33.333 6 54 6c22 0 58.333 -4.66699 109 -14c54 -10 93.667 -15 119 -15l91 95l-12 12l-24 -25c-24.667 0 -59.667 4.66699 -105 14c-52 10 -93.333 15 -124 15c7.33301 22.667 20 44.334 38 65.001
s43.333 45.667 76 75c42.667 38.667 74.834 72.334 96.501 101.001s32.5 60.334 32.5 95.001c0 32 -5.66699 59.667 -17 83s-30.333 42.333 -57 57c-12 6.66699 -25.667 15 -41 25l-50 34l-186 -135z" />
    <glyph glyph-name="three" unicode="3" horiz-adv-x="426" 
d="M16 78c26 -32 52.334 -54.835 79.001 -68.502s55 -20.5 85 -20.5c24 0 45.167 4.5 63.5 13.5s35.833 22.5 52.5 40.5c28 16.667 50.833 38.5 68.5 65.5s26.5 53.167 26.5 78.5c0 40 -13.833 74.667 -41.5 104s-65.167 49.333 -112.5 60
c25.333 20 45.166 36.667 59.499 50s25.166 25.333 32.499 36s12.166 20.834 14.499 30.501s3.5 21.5 3.5 35.5c0 16 -5.5 33 -16.5 51s-25.167 32 -42.5 42l-2 1c-27.333 16 -47.666 28.667 -60.999 38l-186 -135l13 -17l107 77c41.333 -18.667 70.333 -36.5 87 -53.5
s25 -36.167 25 -57.5c0 -24 -12.167 -47.833 -36.5 -71.5s-60.166 -48.834 -107.499 -75.501l3 -10c28.667 0 54.5 -5.33301 77.5 -16s42.5 -24.667 58.5 -42s28.167 -35.666 36.5 -54.999s12.5 -38 12.5 -56c0 -49.333 -25.333 -74 -76 -74
c-12.667 0 -26.167 2.16699 -40.5 6.5s-28 10.333 -41 18s-24.5 15.834 -34.5 24.501s-17.333 17 -22 25l20 16l-12 14z" />
    <glyph glyph-name="four" unicode="4" horiz-adv-x="463" 
d="M213 -11l7.00195 -15.998l120 42v157l61 -2l50 43l-9 8l-49 -1c-12 -0.666992 -29.667 -1.33398 -53 -2.00098v228c0 36 0.5 68 1.5 96s2.5 56 4.5 84l-12 9c-17.333 -16.667 -39 -34.334 -65 -53.001s-50.333 -33 -73 -43c-16.667 -62 -41.334 -125 -74.001 -189
s-69.334 -121.667 -110.001 -173l10 -7h3c59.333 1.33301 106 2 140 2c24.667 0 55.667 -0.666992 93 -2c-0.666992 -48 -2 -84.667 -4 -110s-4.33301 -44.333 -7 -57zM258.002 218.002l-178 -0.000976562c36 52 68.833 105.833 98.5 161.5s55.5 110.834 77.5 165.501h2
v-327z" />
    <glyph glyph-name="five" unicode="5" horiz-adv-x="407" 
d="M2 62c14.667 -20 35.501 -37.1641 62.501 -51.4971s54.833 -21.5 83.5 -21.5s53.667 6 75 18s39.333 27.333 54 46c28 17.333 51 41.333 69 72s27 61 27 91c0 48 -16.333 86.667 -49 116s-70.667 44 -114 44c-42 0 -75.667 -4.33301 -101 -13l10 179
c5.33301 -2 14 -4.16699 26 -6.5s26.167 -4.5 42.5 -6.5s32 -3.66699 47 -5s28.833 -2 41.5 -2c5.33301 0 10.666 0.333008 15.999 1h15l46 106l-16 6l-11 -25c-30 0.666992 -62.833 2.66699 -98.5 6s-67.5 7.66602 -95.5 12.999c-3.33301 -9.33301 -9.5 -21.333 -18.5 -36
s-18.833 -29 -29.5 -43l-12 -275c16 5.33301 32.167 9.83301 48.5 13.5s28.833 5.5 37.5 5.5c17.333 0 34.166 -2.33301 50.499 -7s31.5 -12.167 45.5 -22.5s25.333 -23.833 34 -40.5s13 -36.667 13 -60c0 -32.667 -7.66699 -58 -23 -76s-41.666 -27 -78.999 -27
c-8.66699 0 -19 1.66699 -31 5s-23.833 7.66602 -35.5 12.999s-22.5 11.666 -32.5 18.999s-17.333 14.333 -22 21l17 18l-14 13z" />
    <glyph glyph-name="six" unicode="6" horiz-adv-x="463" 
d="M341 633c-4 1.33301 -9.66699 2.00098 -17 2.00098c-24 0 -52.667 -6.66699 -86 -20s-65.833 -33.833 -97.5 -61.5s-58 -63.667 -79 -108s-31.5 -95.833 -31.5 -154.5c0 -65.333 17.833 -126.333 53.5 -183s85.167 -96.334 148.5 -119.001c38 28.667 69.333 54 94 76
s45 43 61 63s27.667 40.5 35 61.5s11 43.833 11 68.5c0 38 -7.83301 71.167 -23.5 99.5s-42.167 57.833 -79.5 88.5c-56 -26.667 -100 -51.834 -132 -75.501s-59.667 -51.167 -83 -82.5c-2 11.333 -3 24.666 -3 39.999c0 35.333 2.83301 68.333 8.5 99
s14.667 57.834 27 81.501s28.833 42.334 49.5 56.001s45.667 20.5 75 20.5c14 0 27 -1 39 -3zM357 203.001c0 -28.667 -6.00098 -55.5 -18.001 -80.5s-27.667 -44.167 -47 -57.5c-44.667 16.667 -79.667 38.167 -105 64.5s-44.333 61.166 -57 104.499
c16 36.667 33.333 65.834 52 87.501s43.334 41.167 74.001 58.5c35.333 -28.667 61 -57.5 77 -86.5s24 -59.167 24 -90.5z" />
    <glyph glyph-name="seven" unicode="7" horiz-adv-x="352" 
d="M7 535l15.002 -9.99902l13 20c10 0 33.333 -2.66699 70 -8c30.667 -4 56.834 -7.16699 78.501 -9.5s41.5 -3.5 59.5 -3.5c11.333 0 25.666 2 42.999 6l-36 -85l-58 -147l-44.5 -112l-36.5 -89c-11.333 -26.667 -21.833 -50.334 -31.5 -71.001s-17.167 -34.667 -22.5 -42
l9 -8c8.66699 6.66699 20.334 13.167 35.001 19.5s31 12.5 49 18.5c10.667 50 25 104.5 43 163.5s37.667 117.167 59 174.5s43.166 109.833 65.499 157.5s43.166 85.5 62.499 113.5l-8 8c-15.333 -6 -31 -10.667 -47 -14s-30.667 -5 -44 -5c-15.333 0 -41 3.66699 -77 11
c-42 8 -72.667 12 -92 12c-16.667 0 -30.334 -1.33301 -41.001 -4z" />
    <glyph glyph-name="eight" unicode="8" horiz-adv-x="444" 
d="M27 156c0 -39.333 17.499 -73.665 52.499 -102.998s83.5 -50.666 145.5 -63.999c39.333 26.667 71.333 49.667 96 69s44 36.666 58 51.999s23.833 29.833 29.5 43.5s8.5 28.5 8.5 44.5c0 32.667 -11.667 61.834 -35 87.501s-65.666 53.167 -126.999 82.5
c44 32 73.5 58.5 88.5 79.5s22.5 43.833 22.5 68.5c0 26.667 -9.66699 48.667 -29 66s-51 35 -95 53c-42.667 -26 -76 -47.5 -100 -64.5s-42.167 -32.333 -54.5 -46s-20.5 -27 -24.5 -40s-6 -29.167 -6 -48.5c0 -22.667 7.16699 -42.834 21.5 -60.501
s39.833 -35.5 76.5 -53.5c-27.333 -20.667 -49.5 -38.667 -66.5 -54s-30 -29.333 -39 -42s-15 -24.334 -18 -35.001s-4.5 -22.334 -4.5 -35.001zM242.999 274.001c33.333 -18.667 56.999 -38.502 70.999 -59.502s21 -44.167 21 -69.5
c0 -17.333 -3.66699 -32.666 -11 -45.999s-18 -24.666 -32 -33.999c-22.667 3.33301 -45.167 9 -67.5 17s-42.666 18 -60.999 30s-33 25.833 -44 41.5s-16.5 32.5 -16.5 50.5s5.33301 34.833 16 50.5s30 34.167 58 55.5zM186.998 405.999
c-18.667 10.667 -32.333 22.8311 -41 36.498s-13 32.167 -13 55.5c0 12.667 3.33301 24.334 10 35.001s18 21.334 34 32.001c75.333 -26.667 113 -60.667 113 -102c0 -14 -5.16699 -28.333 -15.5 -43s-23.833 -28.667 -40.5 -42z" />
    <glyph glyph-name="nine" unicode="9" horiz-adv-x="463" 
d="M96 -11c46.667 6.66699 90.5 19.5 131.5 38.5s76.833 43.333 107.5 73s54.667 64.167 72 103.5s26 82 26 128c0 60 -14.167 114.333 -42.5 163s-70.833 95.334 -127.5 140.001c-55.333 -31.333 -97.5 -56.5 -126.5 -75.5s-51.333 -36.333 -67 -52
s-26.167 -31.667 -31.5 -48s-8 -36.5 -8 -60.5c0 -27.333 5.5 -53.666 16.5 -78.999s24.667 -47.5 41 -66.5s32.5 -33.833 48.5 -44.5s28.333 -16 37 -16c4 0 12.5 4.66699 25.5 14s28 21.166 45 35.499l52 46l45.5 43.5l1 -7c2 -14.667 3 -25.667 3 -33
c0 -27.333 -3.5 -55.333 -10.5 -84s-18 -55.334 -33 -80.001s-34.333 -44.667 -58 -60s-51.167 -23 -82.5 -23c-9.33301 0 -21.333 1.33301 -36 4zM102 451c0 22.667 6.5 43.001 19.5 61.001s36.833 37 71.5 57c41.333 -32 74.5 -67 99.5 -105s39.167 -74 42.5 -108
c-26.667 -26.667 -50 -47.834 -70 -63.501s-34 -23.5 -42 -23.5c-8.66699 0 -19.667 4.83301 -33 14.5s-26.833 23 -40.5 40s-25 36.5 -34 58.5s-13.5 45 -13.5 69z" />
    <glyph glyph-name="colon" unicode=":" horiz-adv-x="258" 
d="M58 413l57 -62l85 80l-57 62zM58 51l57 -62l85 80l-57 62z" />
    <glyph glyph-name="semicolon" unicode=";" horiz-adv-x="258" 
d="M66 48l42 -42.001c4 -4 6 -8.66699 6 -14c0 -10.667 -4 -23 -12 -37s-23.667 -34 -47 -60l15 -14c36.667 36.667 67 72.667 91 108s36 63 36 83c0 6.66699 -3.66699 13.334 -11 20.001l-44 39zM55 405.999l57 -62l85 80l-57 62z" />
    <glyph glyph-name="less" unicode="&#x3c;" horiz-adv-x="600" 
d="M47 223l506 -231v66l-424 195l424 195v66l-506 -231v-60z" />
    <glyph glyph-name="equal" unicode="=" horiz-adv-x="600" 
d="M47 320h506v66h-506v-66zM47 120h506v66h-506v-66z" />
    <glyph glyph-name="greater" unicode="&#x3e;" horiz-adv-x="600" 
d="M47 -8l506 231v60l-506 231v-66l424 -195l-424 -195v-66z" />
    <glyph glyph-name="question" unicode="?" horiz-adv-x="333" 
d="M22 543l16 -14.001l67 62l51 -32c16.667 -10 28.667 -22 36 -36s11 -29 11 -45c0 -13.333 -4 -27.666 -12 -42.999s-20.333 -35.333 -37 -60c-16.667 -25.333 -29.167 -46 -37.5 -62s-12.5 -31.333 -12.5 -46c0 -9.33301 2.16699 -19.666 6.5 -30.999
s10.166 -22 17.499 -32l28 22c-10.667 14.667 -16 29.667 -16 45c0 12 5.33301 27.5 16 46.5s26.667 44.5 48 76.5c24.667 37.333 43.334 67.666 56.001 90.999s19 43.333 19 60c0 26.667 -7.83301 49 -23.5 67s-46.167 39.333 -91.5 64zM69 50.999l56 -62l86 80l-56 62z
" />
    <glyph glyph-name="at" unicode="@" horiz-adv-x="800" 
d="M322 289c0 30.667 4.66992 58.833 14.0029 84.5s21.333 47.5 36 65.5s30 32 46 42s30 15 42 15c35.333 0 53 -22.667 53 -68c0 -34.667 -4 -66.167 -12 -94.5s-18.333 -52.333 -31 -72s-26.334 -34.667 -41.001 -45s-28.334 -15.5 -41.001 -15.5
c-20.667 0 -36.834 7 -48.501 21s-17.5 36.333 -17.5 67zM643.003 79.999c-31.333 -16 -65.3369 -28.499 -102.004 -37.499s-73 -13.5 -109 -13.5c-45.333 0 -87 8.16699 -125 24.5s-70.833 38.5 -98.5 66.5s-48.834 60.167 -63.501 96.5s-22 73.5 -22 111.5
c0 56 7.66699 106 23 150s36.666 81 63.999 111s59 52.5 95 67.5s74.667 22.5 116 22.5c44.667 0 85.5 -7.33301 122.5 -22s68.667 -35 95 -61s46.333 -55.333 60 -88s20.5 -66.667 20.5 -102c0 -27.333 -3.33301 -53.833 -10 -79.5s-16 -48.834 -28 -69.501
s-26.167 -36.834 -42.5 -48.501s-34.166 -17.5 -53.499 -17.5c-12 0 -21.667 3.66699 -29 11s-11 15.333 -11 24c0 20 3.33301 42.333 10 67l59 236h-71l-10 -41h-2c-6 18 -16 31.5 -30 40.5s-30 13.5 -48 13.5c-26.667 0 -52.834 -6.5 -78.501 -19.5
s-48.667 -31.333 -69 -55s-36.333 -51.667 -48 -84s-17.5 -67.166 -17.5 -104.499c0 -24.667 3.33301 -45.334 10 -62.001s15.334 -29.5 26.001 -38.5s22 -15.167 34 -18.5s24.333 -5 37 -5c25.333 0 49.333 7.5 72 22.5s40 32.167 52 51.5h2
c2.66699 -17.333 12.334 -34 29.001 -50s39 -24 67 -24c28.667 0 55.167 7.16699 79.5 21.5s45.166 33.5 62.499 57.5s30.666 51 39.999 81s14 60 14 90c0 47.333 -9.16699 90.5 -27.5 129.5s-43.666 72.333 -75.999 100s-69.166 48.667 -110.499 63
s-84.666 21.5 -129.999 21.5c-49.333 0 -97.166 -8.83301 -143.499 -26.5s-87.666 -43 -123.999 -76s-65.166 -73.5 -86.499 -121.5s-32 -101 -32 -159c0 -46 9.66699 -90.167 29 -132.5s46.833 -79.666 82.5 -111.999s78 -57.5 127 -75.5s102.167 -27 159.5 -27
c32 0 68.667 5.5 110 16.5s79 25.5 113 43.5z" />
    <glyph glyph-name="A" unicode="A" horiz-adv-x="648" 
d="M660 71l-13 13l-27 -18c-18 12.667 -34.333 30.834 -49 54.501s-30.667 57.167 -48 100.5l-173 436c-12 10 -26.833 19.833 -44.5 29.5s-35.834 18.167 -54.501 25.5l-118 -90l15 -14l29 22l50 -24c12 -6 21 -11.333 27 -16s10.333 -9.16699 13 -13.5
s5.33398 -10.833 8.00098 -19.5c-42 -114 -86.333 -213.833 -133 -299.5s-101.667 -168.5 -165 -248.5l12 -9c9.33301 11.333 18.666 17 27.999 17c8 0 20.833 -2.33301 38.5 -7s41.167 -11.667 70.5 -21l92 91l-13 13c-12.667 -12 -21.667 -18 -27 -18
c-4 0 -11.833 1.66699 -23.5 5s-35.834 11 -72.501 23l54.5 82c15.667 24.667 26.5 43.334 32.5 56.001c14.667 -0.666992 27.667 -1.33398 39 -2.00098c35.333 -2.66699 59.333 -4 72 -4c14.667 0 25.334 1.16699 32.001 3.5s14.334 8.16602 23.001 17.499l43 45l64 -161
c12 -29.333 26.333 -57.5 43 -84.5s33.667 -49.167 51 -66.5zM375 314c-26 -2 -52.334 -3.00098 -79.001 -3.00098c-12 0 -30 0.666992 -54 2c-23.333 -28 -45.666 -49.333 -66.999 -64l-2 1c16 26.667 32.333 56.334 49 89.001l67 136l12 25z" />
    <glyph glyph-name="B" unicode="B" horiz-adv-x="574" 
d="M20 630l11.9971 -16.002l22 16c10.667 -4.66699 21.334 -10 32.001 -16s17.334 -11.333 20.001 -16c3.33301 -6 6 -21.5 8 -46.5s3.66699 -55.833 5 -92.5c1.33301 -42 2 -89.333 2 -142c0 -40 -0.5 -72 -1.5 -96s-2.83301 -42.833 -5.5 -56.5
s-6.33398 -24.5 -11.001 -32.5s-11 -16 -19 -24l-64 -62l9 -12c8.66699 6.66699 17.334 10 26.001 10c5.33301 0 13.833 -1.5 25.5 -4.5s28.5 -7.83301 50.5 -14.5c40.667 -11.333 74 -20.166 100 -26.499s48.333 -9.5 67 -9.5c32 0 60.833 9.16699 86.5 27.5
s44.834 38.5 57.501 60.5c61.333 45.333 92 105.333 92 180c0 24 -4.66699 45 -14 63s-22 33.167 -38 45.5s-33.333 21.833 -52 28.5s-37.667 11 -57 13c38 30 67.833 59 89.5 87s32.5 51.333 32.5 70c0 26.667 -10.167 50.5 -30.5 71.5s-55.833 46.5 -106.5 76.5
c-30 -26 -59 -55.667 -87 -89s-49 -62.333 -63 -87h-2v120c-11.333 11.333 -23.5 21.833 -36.5 31.5s-25.833 17.834 -38.5 24.501zM235.997 331.998l10.9971 -13.001c13.333 8.66699 27 13 41 13c20.667 0 40.667 -3 60 -9s36.833 -15.333 52.5 -28
s28.167 -28.5 37.5 -47.5s14 -41.5 14 -67.5c0 -7.33301 -1.16699 -17 -3.5 -29s-6.16602 -24.167 -11.499 -36.5s-13 -22.666 -23 -30.999s-22.333 -12.5 -37 -12.5c-20 0 -41 2.66699 -63 8l-192 49c20.667 22 37 40.5 49 55.5s21 27.833 27 38.5s10 20.667 12 30
s3 19.666 3 30.999v154c0 26 6.16699 52.667 18.5 80s34.833 62.666 67.5 105.999c36.667 -16.667 64.834 -34 84.501 -52s29.5 -37 29.5 -57c0 -9.33301 -3.16699 -20.166 -9.5 -32.499s-15.833 -24.833 -28.5 -37.5c-13.333 -13.333 -23.166 -21.666 -29.499 -24.999
s-13.833 -5 -22.5 -5z" />
    <glyph glyph-name="C" unicode="C" horiz-adv-x="537" 
d="M525 677l-7.99805 13.999c-12.667 -9.33301 -23 -14 -31 -14s-19.333 2 -34 6s-45.667 13.667 -93 29c-65.333 -40 -118.833 -75.833 -160.5 -107.5s-74 -61.167 -97 -88.5s-39 -54.5 -48 -81.5s-13.5 -56.833 -13.5 -89.5c0 -37.333 9.5 -76.833 28.5 -118.5
s43.667 -80.667 74 -117s61.833 -65.5 94.5 -87.5s62 -33 88 -33c7.33301 0 15.5 1.66699 24.5 5s21 9.5 36 18.5s33.5 21.167 55.5 36.5l84 61l-14 16c-48.667 -36.667 -84.334 -55 -107.001 -55c-16.667 0 -39.834 8.33301 -69.501 25s-59.667 40.334 -90 71.001
s-55.666 68.167 -75.999 112.5s-30.5 92.833 -30.5 145.5c0 27.333 5.83301 53.5 17.5 78.5s26.167 47 43.5 66s34.166 33.833 50.499 44.5s28.166 16 35.499 16c4.66699 0 9.33398 -0.333008 14.001 -1s11 -2.16699 19 -4.5l37.5 -11.5c17 -5.33301 36.5 -12 58.5 -20z" />
    <glyph glyph-name="D" unicode="D" horiz-adv-x="667" 
d="M-20 635c10 -4.66699 21.502 -8.99902 34.502 -12.999s32.167 -8.5 57.5 -13.5s56.5 -10.833 93.5 -17.5s93.833 -16.334 170.5 -29.001c30 -4.66699 57.167 -12.334 81.5 -23.001s45.666 -25 63.999 -43s32.5 -40.167 42.5 -66.5s15 -57.5 15 -93.5
c0 -28 -3.5 -57.167 -10.5 -87.5s-17 -58.5 -30 -84.5s-28.667 -47 -47 -63s-38.5 -24 -60.5 -24c-20 0 -42.833 2.33301 -68.5 7s-51.167 10.667 -76.5 18c-15.333 4.66699 -29.166 8.5 -41.499 11.5s-31.166 7.83301 -56.499 14.5h-1
c22.667 23.333 40.667 42.666 54 57.999s23.666 28.5 30.999 39.5s12.333 20.667 15 29s4 17.5 4 27.5c0 10.667 -1.66699 24.667 -5 42s-7.33301 35.333 -12 54s-9.83398 38 -15.501 58l-15.5 54c-6.66699 22.667 -10 34.667 -10 36c0 8 6.66699 17 20 27l-13 13l-96 -86
l26 -95c8 -28 14 -49.833 18 -65.5s7.16699 -28.667 9.5 -39s3.83301 -19.166 4.5 -26.499s1 -14.666 1 -21.999c0 -16 -1.66699 -30.167 -5 -42.5s-9.33301 -25 -18 -38s-21 -28.167 -37 -45.5s-38 -39.666 -66 -66.999l12 -13c10.667 12 22 18 34 18
c7.33301 0 28.333 -5.66699 63 -17c34.667 -12 64.334 -21.333 89.001 -28s48.334 -10 71.001 -10c20.667 0 49 10.833 85 32.5s72.167 50.834 108.5 87.501s66.666 77.667 90.999 123s36.5 90.666 36.5 135.999c0 51.333 -7.33301 94.5 -22 129.5
s-34.834 63.333 -60.501 85s-55.5 38.5 -89.5 50.5s-73.667 21.667 -119 29c-54 8.66699 -99.333 16.334 -136 23.001s-62.834 11.667 -78.501 15s-25.667 6.16602 -30 8.49902s-6.5 5.16602 -6.5 8.49902c0 4 2.33301 8 7 12l-12 8z" />
    <glyph glyph-name="E" unicode="E" horiz-adv-x="574" 
d="M580 661l-9 14c-16 -9.33301 -28.333 -14 -37 -14c-4 0 -15 2.33301 -33 7s-36.333 10 -55 16l-86 28c-61.333 -36 -112.333 -69.333 -153 -100s-73.334 -59.834 -98.001 -87.501s-42.334 -55.167 -53.001 -82.5s-16 -56 -16 -86c0 -46.667 10.333 -92.167 31 -136.5
s46.834 -83.833 78.501 -118.5s63.834 -62 96.501 -82s60 -30 82 -30c20 0 41.667 8 65 24l168 119l-15 20l-94 -67c-14 -9.33301 -29.333 -14 -46 -14c-17.333 0 -39.166 7 -65.499 21s-53 33.333 -80 58s-50.833 53.167 -71.5 85.5s-34.667 65.833 -42 100.5
c17.333 2 36 3.5 56 4.5s41 1.5 63 1.5c52 0 94.333 -2 127 -6l99 84l-9 15c-12 -6.66699 -23 -11.167 -33 -13.5s-23.333 -3.5 -40 -3.5c-36.667 0 -93 2 -169 6h-3c-17.333 -17.333 -33 -31.5 -47 -42.5s-29 -20.833 -45 -29.5c-2.66699 13.333 -4.66699 27.833 -6 43.5
s-2 29.834 -2 42.501c0 28 6.5 54 19.5 78s28.5 44.333 46.5 61s34.833 29.667 50.5 39s25.5 14 29.5 14c5.33301 0 13.666 -1.66699 24.999 -5l3 -1l150 -49z" />
    <glyph glyph-name="F" unicode="F" horiz-adv-x="463" 
d="M486 656l-11.0029 12.998c-12 -6.66699 -20.5 -11.167 -25.5 -13.5s-9.5 -3.5 -13.5 -3.5c-4.66699 0 -13 1.66699 -25 5l-179 55l-95 -72c-22.667 -17.333 -40.667 -32 -54 -44s-23.5 -22.833 -30.5 -32.5s-11.667 -19.167 -14 -28.5s-3.5 -20 -3.5 -32
c0 -18 4 -38.5 12 -61.5s18.667 -44.5 32 -64.5l141 -212c20.667 -30.667 36.667 -60.167 48 -88.5s17 -51.5 17 -69.5c0 -12.667 -4.16699 -26.834 -12.5 -42.501s-18.833 -29.167 -31.5 -40.5c-37.333 29.333 -73.333 44 -108 44c-8.66699 0 -14.667 -0.333008 -18 -1
l-89 -91l14 -15c2 5.33301 7.33301 9.83301 16 13.5s18 5.5 28 5.5c36 0 69 -15.667 99 -47l45 44c29.333 28.667 53 52.834 71 72.501s32 36.334 42 50.001s16.833 25.167 20.5 34.5s5.5 18.333 5.5 27c0 46.667 -25 108.334 -75 185.001l-73 112
c4.66699 0.666992 12.667 1 24 1c8.66699 0 21.834 -0.666992 39.501 -2s33.5 -2.66602 47.5 -3.99902l90 78l-10 10c-6 -4 -13.333 -7 -22 -9s-22.667 -3 -42 -3c-15.333 0 -37.666 0.666992 -66.999 2l-34 -34.5c-12 -11.667 -23 -20.834 -33 -27.501l-56 89
c-22 34.667 -33 67 -33 97c0 18.667 5.33301 35.167 16 49.5s21.334 21.5 32.001 21.5c2 0 5 -0.666992 9 -2c1.33301 0 3 -0.333008 5 -1l195 -59z" />
    <glyph glyph-name="G" unicode="G" horiz-adv-x="685" 
d="M373 712c-68 -33.333 -123.506 -64.5 -166.506 -93.5s-76.667 -57.167 -101 -84.5s-41.333 -55.333 -51 -84s-14.5 -60.667 -14.5 -96c0 -48.667 10 -95.334 30 -140.001s45.833 -83.834 77.5 -117.501s64.834 -60 99.501 -79s65.334 -28.5 92.001 -28.5
c15.333 0 40.333 7.66699 75 23s70.334 37.666 107.001 66.999s67.834 67.333 93.501 114s38.5 99.667 38.5 159c0 22.667 -5.66699 39.834 -17 51.501s-31.333 19.834 -60 24.501l-181 31c36.667 21.333 67.834 42.333 93.501 63s45.834 39.334 60.501 56.001
s25.334 30.667 32.001 42s10 19 10 23s-1.33301 7.33301 -4 10s-8.33398 5 -17.001 7zM270.994 395c18 -8 39.1699 -15.166 63.5029 -21.499s55.166 -12.166 92.499 -17.499c38 -5.33301 67.833 -10.333 89.5 -15s38 -9.83398 49 -15.501s18.333 -12.167 22 -19.5
s5.5 -17 5.5 -29c0 -28 -4.33301 -54.667 -13 -80s-20.667 -47.5 -36 -66.5s-32.333 -33.667 -51 -44s-38 -15.5 -58 -15.5c-27.333 0 -57.5 5.5 -90.5 16.5s-65.333 29.667 -97 56s-57.834 62.5 -78.501 108.5s-31 102.333 -31 169c0 35.333 5.66699 66.666 17 93.999
s25.333 49.666 42 66.999s33.167 30.333 49.5 39s28.833 13 37.5 13c3.33301 0 7.66602 -0.666992 12.999 -2s14 -3.66602 26 -6.99902l145 -40c7.33301 -2 11 -6 11 -12c0 -6.66699 -4.5 -15.667 -13.5 -27s-20.333 -23 -34 -35s-27 -22 -40 -30s-23.167 -12 -30.5 -12
c-2 0 -4.66699 1 -8 3h-1z" />
    <glyph glyph-name="H" unicode="H" horiz-adv-x="593" 
d="M288 80l-14 11.002c-10.667 -10.667 -20.334 -16 -29.001 -16c-2.66699 0 -9.66699 2 -21 6c-29.333 11.333 -59 20.333 -89 27l43 48c17.333 19.333 29 35.666 35 48.999s9 29.666 9 48.999c0 8 -1.33301 19.333 -4 34c-2 7.33301 -3 12.333 -3 15
c0 4 2.83301 11.5 8.5 22.5s13.5 23.667 23.5 38s21.167 28.333 33.5 42s24.5 25.5 36.5 35.5c55.333 -48 94.833 -94.667 118.5 -140s35.5 -95 35.5 -149c0 -26 -3 -51.167 -9 -75.5s-15 -46 -27 -65s-26.5 -34 -43.5 -45s-36.167 -16.5 -57.5 -16.5
c-6.66699 0 -14.667 1.33301 -24 4l-74 -87c8.66699 -3.33301 17.667 -5 27 -5c30 0 55.5 6 76.5 18s43.5 33.667 67.5 65c43.333 32.667 78.5 72.5 105.5 119.5s40.5 97.833 40.5 152.5c0 60 -13.167 114.667 -39.5 164s-67.166 98 -122.499 146
c-32.667 -22 -65.667 -48.333 -99 -79s-62 -62.334 -86 -95.001l-34 157c-3.33301 16 -5 34 -5 54c0 20.667 4.66699 36.5 14 47.5s20.666 16.5 33.999 16.5c9.33301 0 22.833 -2.16699 40.5 -6.5s47.834 -13.833 90.501 -28.5l106 81l-9 14c-11.333 -8 -22 -12 -32 -12
c-9.33301 0 -18 1.33301 -26 4l-111 32l-40 -31l-49.5 -40l-43 -36.5c-11.667 -10.333 -20.167 -18.166 -25.5 -23.499c-18 -18 -29.333 -30.667 -34 -38s-7 -15 -7 -23c0 -23.333 2.66699 -48.166 8 -74.499s13 -59.166 23 -98.499c10 -38 17.167 -68.167 21.5 -90.5
s6.5 -43.166 6.5 -62.499c0 -16 -1.33301 -29.833 -4 -41.5s-7.66699 -23.334 -15 -35.001s-17.833 -24.334 -31.5 -38.001s-32.834 -31.167 -57.501 -52.5l12 -12c8.66699 8.66699 17.334 13 26.001 13c8 0 23 -2.83301 45 -8.5s51.667 -15.834 89 -30.501z" />
    <glyph glyph-name="I" unicode="I" horiz-adv-x="296" 
d="M58 -11l8.00098 -16.9961l132 51v572c0 13.333 0.666992 32.666 2 57.999l-34 32.5c-13.333 12.333 -24 21.166 -32 26.499l-115 -82l11 -14l27 19c28.667 -18.667 43 -35.334 43 -50.001v-400c0 -33.333 -1.66699 -83.333 -5 -150
c-0.666992 -14.667 -1.33398 -25.334 -2.00098 -32.001z" />
    <glyph glyph-name="J" unicode="J" horiz-adv-x="333" 
d="M-1 618l10.002 -13.999c18.667 14 32.667 21 42 21c7.33301 0 31 -6.66699 71 -20l93 -30c-22.667 -18.667 -40 -33.5 -52 -44.5s-21 -20.833 -27 -29.5s-10 -17.167 -12 -25.5s-3 -19.166 -3 -32.499c0 -10.667 1.33301 -30 4 -58l2 -23l-63 -45l10 -13
c7.33301 4.66699 14 7 20 7c7.33301 0 14.5 -1.83301 21.5 -5.5s12.833 -8.5 17.5 -14.5l24 -197c2 -18 3.83301 -38.333 5.5 -61s2.5 -41.334 2.5 -56.001c0 -12 -1.5 -24.167 -4.5 -36.5s-6.83301 -23.166 -11.5 -32.499c-18 -6.66699 -31.333 -10 -40 -10
c-8 0 -18.333 1.66699 -31 5l-4 1l-71 -86c16 -5.33301 29.667 -8 41 -8s23 2.5 35 7.5s23.5 11.667 34.5 20s20.667 17.166 29 26.499s14.833 18.333 19.5 27c10.667 8 21.667 18.333 33 31s21.666 26 30.999 40s16.833 27.667 22.5 41s8.5 24.333 8.5 33
c0 27.333 -1.33301 57.166 -4 89.499s-6.66699 74.833 -12 127.5l-3 25l-3 34c-6 52 -10.167 92.5 -12.5 121.5s-3.5 55.167 -3.5 78.5c0 17.333 3.33301 32.333 10 45s18.667 25.667 36 39l69 53l-9 15c-12.667 -7.33301 -23.334 -11 -32.001 -11
c-5.33301 0 -16.333 3 -33 9h-1l-151 50z" />
    <glyph glyph-name="K" unicode="K" horiz-adv-x="593" 
d="M332 615l18 14.998c9.33301 -7.33301 22.333 -15.166 39 -23.499s31.667 -14.833 45 -19.5c-29.333 -46.667 -65.666 -93.5 -108.999 -140.5s-85.666 -87.167 -126.999 -120.5v232c0 19.333 -0.333008 38 -1 56s-1.33398 31.667 -2.00098 41
c-8 7.33301 -20.5 17.166 -37.5 29.499s-31.5 21.5 -43.5 27.5l-111 -82l11 -15l20 15c10.667 -2 21.834 -6.83301 33.501 -14.5s19.5 -14.5 23.5 -20.5c2 -2.66699 3.66699 -10.5 5 -23.5s2.33301 -31.167 3 -54.5c0.666992 -28 1 -78.667 1 -152
c0 -75.333 -0.666992 -145.333 -2 -210c0 -32 -0.5 -62.333 -1.5 -91s-2.16699 -49 -3.5 -61l-35 -14l8 -17l132 51v294h2c22.667 -32.667 48 -66.5 76 -101.5s56.167 -68.167 84.5 -99.5s54.333 -58.166 78 -80.499s42.5 -37.833 56.5 -46.5l108 91l-12 13l-25 -21
c-38 25.333 -77.667 60.333 -119 105s-93.333 108.334 -156 191.001c45.333 42.667 88.666 89 129.999 139s75.333 96.333 102 139c-18.667 7.33301 -37.334 16.833 -56.001 28.5s-35.667 24.167 -51 37.5l-97 -82z" />
    <glyph glyph-name="L" unicode="L" horiz-adv-x="500" 
d="M19 36c7.33301 6 14.165 10.8301 20.498 14.4971s13.166 5.5 20.499 5.5c4 0 17.667 -3 41 -9c40 -10 82.167 -19.667 126.5 -29s99.5 -19 165.5 -29l97 98l-13 11c-14 -13.333 -29.333 -20 -46 -20c-9.33301 0 -25.666 2.33301 -48.999 7l-3 1l-258 53
c40 42.667 67.167 76.334 81.5 101.001s21.5 49 21.5 73c0 12 -1 26.5 -3 43.5s-5 38.5 -9 64.5c-4.66699 32.667 -8.16699 58.5 -10.5 77.5s-3.5 36.833 -3.5 53.5c0 18.667 4.33301 33.834 13 45.501s27.667 26.5 57 44.5c30.667 -18 52.667 -32.667 66 -44
s20 -21.333 20 -30c0 -4.66699 -1.83301 -9.66699 -5.5 -15s-10.167 -12.666 -19.5 -21.999l14 -10l81 75c10.667 9.33301 16 18.666 16 27.999c0 6 -3 12.5 -9 19.5s-16.333 15.5 -31 25.5l-64 43l-98 -64c-27.333 -18 -50 -33.833 -68 -47.5
s-32.167 -25.834 -42.5 -36.501s-17.5 -20.167 -21.5 -28.5s-6 -17.166 -6 -26.499c0 -17.333 1.83301 -38.166 5.5 -62.499s8.83398 -55.5 15.501 -93.5c4.66699 -26 8.33398 -47.833 11.001 -65.5s4 -31.167 4 -40.5c0 -16 -2 -31.167 -6 -45.5s-11 -29 -21 -44
s-23 -31 -39 -48s-37.333 -37.167 -64 -60.5z" />
    <glyph glyph-name="M" unicode="M" horiz-adv-x="981" 
d="M534 27c0.666992 44 1.33496 110.004 2.00195 198.004c1.33301 84 2 141.667 2 173c0.666992 40.667 13.334 81.167 38.001 121.5s58.334 77.166 101.001 110.499c57.333 -44.667 99.833 -93 127.5 -145s41.5 -109 41.5 -171c0 -39.333 -5.66699 -79.5 -17 -120.5
s-29 -76.833 -53 -107.5c-4 -4.66699 -10 -8.33398 -18 -11.001s-19.667 -4 -35 -4c-10 0 -18.833 0.833008 -26.5 2.5s-17.167 4.83398 -28.5 9.50098l-74 -83c23.333 -7.33301 40 -11 50 -11c19.333 0 40.5 6 63.5 18s40.5 25.667 52.5 41c56 36.667 99.667 84 131 142
s47 118 47 180c0 63.333 -14.5 121.5 -43.5 174.5s-76.833 108.833 -143.5 167.5c-46.667 -29.333 -86.667 -59 -120 -89s-66 -66 -98 -108h-2c0 44 -3.33301 84 -10 120c-3.33301 17.333 -12.333 29 -27 35c-20.667 9.33301 -47.5 17.666 -80.5 24.999s-57.833 11 -74.5 11
c-16 0 -30.167 -1.16699 -42.5 -3.5s-24.5 -6.16602 -36.5 -11.499s-25 -12.666 -39 -21.999s-31.333 -22.333 -52 -39c-24.667 -19.333 -44.834 -38 -60.501 -56s-28.334 -36.833 -38.001 -56.5s-16.667 -41.334 -21 -65.001s-6.5 -50.834 -6.5 -81.501
c0 -37.333 5.83301 -75.5 17.5 -114.5s28.167 -75.833 49.5 -110.5s46.5 -65.667 75.5 -93s60.167 -48.666 93.5 -63.999l98 94l-12 13l-22 -21c-30 15.333 -58.167 35.166 -84.5 59.499s-49.5 52 -69.5 83s-35.667 64.333 -47 100s-17 71.834 -17 108.501
c0 43.333 3.83301 79.166 11.5 107.499s18.5 50.166 32.5 65.499s30.167 26 48.5 32s39.166 9 62.499 9c36.667 0 74 -10.333 112 -31c16 -8.66699 26.667 -19 32 -31s9.33301 -37 12 -75l1 -9l3.5 -81.5c1 -23 1.5 -50.167 1.5 -81.5c0 -52 -0.833008 -108.333 -2.5 -169
s-3.83398 -118.334 -6.50098 -173.001z" />
    <glyph glyph-name="N" unicode="N" horiz-adv-x="648" 
d="M3 630l11.001 -14.002l23 14c6 -0.666992 15.333 -5 28 -13s21.334 -15 26.001 -21c2 -3.33301 3.66699 -11.5 5 -24.5s2.33301 -31.167 3 -54.5c0.666992 -28 1 -78.667 1 -152c0 -75.333 -0.666992 -145.333 -2 -210c0 -32 -0.5 -62.333 -1.5 -91
s-2.16699 -49 -3.5 -61l-35 -14l8 -17l132 51v281c0 47.333 12.167 97.666 36.5 150.999s63.833 108.333 118.5 165c4.66699 -13.333 19.667 -34.333 45 -63c16 -17.333 29.167 -32.666 39.5 -45.999s20.666 -29.333 30.999 -48s18.5 -39.5 24.5 -62.5s9 -48.167 9 -75.5
c0 -25.333 -2.5 -48.833 -7.5 -70.5s-13.167 -43.5 -24.5 -65.5s-26 -45.333 -44 -70s-41 -52.667 -69 -84c21.333 -4.66699 45.166 -11.167 71.499 -19.5s51.833 -17.166 76.5 -26.499l103 78l-12 15c-11.333 -8.66699 -19 -13 -23 -13c-3.33301 0 -11.333 2 -24 6l-4 1
l-100 32c52 60 90.833 111.833 116.5 155.5s38.5 83.5 38.5 119.5c0 42.667 -10.167 82.334 -30.5 119.001s-49.166 78.334 -86.499 125.001c-32 40 -51.667 68.333 -59 85c-17.333 -12 -37.333 -28.333 -60 -49s-45 -42.667 -67 -66s-41.667 -47 -59 -71
s-30 -45.667 -38 -65h-2v97c0 19.333 -0.333008 38 -1 56s-1.33398 31.667 -2.00098 41c-8 7.33301 -20.5 17.166 -37.5 29.499s-31.5 21.5 -43.5 27.5z" />
    <glyph glyph-name="O" unicode="O" horiz-adv-x="704" 
d="M212 603c-63.333 -46 -107.834 -90.001 -133.501 -132.001s-38.5 -88 -38.5 -138c0 -41.333 10.5 -82.5 31.5 -123.5s47.667 -78.167 80 -111.5s65 -59.833 98 -79.5s60.5 -29.5 82.5 -29.5c14 0 39.333 9.83301 76 29.5s74.667 46.334 114 80.001
s72.833 73.5 100.5 119.5s41.5 95.333 41.5 148c0 54.667 -13.167 103.667 -39.5 147s-65.166 79 -116.499 107l-117 63c-10.667 6 -16 10.667 -16 14c0 2.66699 3 6.66699 9 12l-10 10zM565.999 305.999c0 -38.667 -5.16602 -72.998 -15.499 -102.998
s-23.333 -54.667 -39 -74s-32 -33.833 -49 -43.5s-31.833 -14.5 -44.5 -14.5c-24.667 0 -53 7.5 -85 22.5s-63 36.667 -93 65s-54.5 62 -73.5 101s-28.5 81.5 -28.5 127.5c0 29.333 2.66699 54.666 8 75.999s13.5 40.5 24.5 57.5s25.167 33.333 42.5 49
s40.666 34.5 69.999 56.5c14 -10 27.667 -18.5 41 -25.5s35 -17.5 65 -31.5l6 -3c114 -52.667 171 -139.334 171 -260.001z" />
    <glyph glyph-name="P" unicode="P" horiz-adv-x="630" 
d="M223 0c18.667 -7.33301 36.667 -10.999 54 -10.999c26.667 0 54.334 8 83.001 24s56.667 38 84 66c47.333 34 83.5 73 108.5 117s37.5 93.333 37.5 148c0 51.333 -12 98.166 -36 140.499s-57 88.833 -99 139.5c-35.333 42 -56.333 71.333 -63 88
c-39.333 -30.667 -76.666 -67.834 -111.999 -111.501s-62 -84.167 -80 -121.5h-2v79c0 19.333 -0.333008 38 -1 56s-1.33398 31.667 -2.00098 41c-8 7.33301 -20.5 17.166 -37.5 29.499s-31.5 21.5 -43.5 27.5l-111 -82l11 -15l20 15c6 -0.666992 16 -4.83398 30 -12.501
s22.667 -14.167 26 -19.5c4.66699 -6 7.5 -28 8.5 -66s1.5 -93.667 1.5 -167c0 -100 -0.666992 -200 -2 -300c0 -50 -0.5 -96.5 -1.5 -139.5s-2.16699 -71.167 -3.5 -84.5l-35 -14l8 -17l132 51v410c0 40.667 1.66699 75.334 5 104.001s9.5 55.167 18.5 79.5
s21.833 49 38.5 74s38.667 53.5 66 85.5c4 -11.333 19.667 -32.666 47 -63.999c18 -21.333 33.667 -40.666 47 -57.999s26.333 -37.5 39 -60.5s23 -48.667 31 -77s12 -58.5 12 -90.5c0 -58.667 -13.167 -104.5 -39.5 -137.5s-64.5 -49.5 -114.5 -49.5
c-20.667 0 -38.334 2.66699 -53.001 8z" />
    <glyph glyph-name="Q" unicode="Q" horiz-adv-x="704" 
d="M428 86l-9.99805 15.001c-10.667 -10 -20.667 -15 -30 -15c-16.667 0 -39.167 7 -67.5 21s-56.333 34.167 -84 60.5s-51 58.333 -70 96s-28.5 78.834 -28.5 123.501c0 29.333 2.66699 54.666 8 75.999s13.5 40.5 24.5 57.5s25.167 33.333 42.5 49
s40.666 34.5 69.999 56.5c14 -10 27.667 -18.5 41 -25.5s35 -17.5 65 -31.5l6 -3c114 -52.667 171 -139.334 171 -260.001c0 -24 -2.66699 -46.833 -8 -68.5s-14.333 -43.5 -27 -65.5s-30.334 -45.167 -53.001 -69.5s-51.334 -50.5 -86.001 -78.5l-133 -107
c34.667 -7.33301 67.667 -16.333 99 -27s59.333 -22.667 84 -36l109 88l-12 14c-9.33301 -6 -16 -10 -20 -12s-7.66699 -3 -11 -3c-2.66699 0 -13.334 3.66699 -32.001 11c-21.333 8.66699 -38.666 15.334 -51.999 20.001s-27 8.66699 -41 12
c56.667 39.333 103.167 75.666 139.5 108.999s64.833 64.833 85.5 94.5s35.167 58.834 43.5 87.501s12.5 59 12.5 91c0 54.667 -13.167 103.667 -39.5 147s-65.166 79 -116.499 107l-117 63c-10.667 6 -16 10.667 -16 14c0 2.66699 3 6.66699 9 12l-10 10l-162 -116
c-63.333 -46 -107.833 -90 -133.5 -132s-38.5 -88 -38.5 -138c0 -30 6.66699 -61.833 20 -95.5s32.5 -66.167 57.5 -97.5s55.167 -59.333 90.5 -84s74 -43.334 116 -56.001z" />
    <glyph glyph-name="R" unicode="R" horiz-adv-x="593" 
d="M576 75c-36 22.667 -76.667 57.667 -122 105s-89.333 100.666 -132 159.999c64 40.667 108.333 75 133 103s37 56 37 84c0 23.333 -6.83301 49.333 -20.5 78s-36.5 64.334 -68.5 107.001c-62 -38.667 -108.167 -72.667 -138.5 -102s-51.833 -59.666 -64.5 -90.999h-2v39
c0 19.333 -0.333008 38 -1 56s-1.33398 31.667 -2.00098 41c-8 7.33301 -20.5 17.166 -37.5 29.499s-31.5 21.5 -43.5 27.5l-111 -82l11 -15l20 15c6 -0.666992 16 -4.83398 30 -12.501s22.667 -14.167 26 -19.5c4.66699 -6 7.5 -28 8.5 -66s1.5 -93.667 1.5 -167
c0 -75.333 -0.666992 -145.333 -2 -210c0 -32 -0.5 -62.333 -1.5 -91s-2.16699 -49 -3.5 -61l-35 -14l8 -17l132 51v386c0 40.667 13 81.5 39 122.5s57.333 75.167 94 102.5c20.667 -23.333 37.334 -47.333 50.001 -72s19 -45.667 19 -63c0 -41.333 -16.833 -78 -50.5 -110
s-80.5 -57 -140.5 -75c58.667 -78.667 113.5 -145.667 164.5 -201s95.167 -96.666 132.5 -123.999l107 94l-12 14z" />
    <glyph glyph-name="S" unicode="S" 
d="M38 50c35.333 -22 66.998 -37.6689 94.998 -47.002s54.333 -14 79 -14c14.667 0 27.667 1.83301 39 5.5s24.166 10.834 38.499 21.501s31.666 26.334 51.999 47.001s45.166 48.334 74.499 83.001c8.66699 10 15.334 22.5 20.001 37.5s7 29.833 7 44.5
c0 18.667 -2 34.167 -6 46.5s-12 25.166 -24 38.499s-29.167 27.666 -51.5 42.999s-53.833 35.333 -94.5 60c-27.333 16.667 -49.666 31.334 -66.999 44.001s-30.833 24.334 -40.5 35.001s-16.5 21.167 -20.5 31.5s-6 21.5 -6 33.5c0 14 5 28.5 15 43.5s21.333 22.5 34 22.5
c9.33301 0 22.666 -2.66699 39.999 -8l102 -32l101 88l-12 14l-3 -2c-8.66699 -6.66699 -14.667 -11 -18 -13s-6.66602 -3 -9.99902 -3c-4.66699 0 -10 1 -16 3l-132 39c-42.667 -36.667 -76 -66.334 -100 -89.001s-42 -41.5 -54 -56.5s-19.833 -27.667 -23.5 -38
s-5.5 -21.833 -5.5 -34.5c0 -14.667 2.16699 -28.167 6.5 -40.5s13.333 -25.833 27 -40.5s33.834 -31.334 60.501 -50.001s61.667 -40 105 -64c40.667 -22.667 69.334 -45.667 86.001 -69s25 -48 25 -74c0 -28.667 -7.33301 -50 -22 -64
c-5.33301 -5.33301 -14.166 -9.16602 -26.499 -11.499s-25.5 -3.5 -39.5 -3.5c-20 0 -44 4.66699 -72 14s-51.667 20.333 -71 33l15 17l-15 13z" />
    <glyph glyph-name="T" unicode="T" horiz-adv-x="556" 
d="M31 597l12.9951 -14c7.33301 10.667 18.333 19.5 33 26.5s29.334 10.5 44.001 10.5c4 0 8.66699 -0.166992 14 -0.5s12.833 -1.16602 22.5 -2.49902l42.5 -6l62 -9c-74 -62.667 -127 -116.834 -159 -162.501s-48 -89.834 -48 -132.501c0 -44 10.167 -85.5 30.5 -124.5
s46.166 -73 77.499 -102s63.333 -51.5 96 -67.5s60 -24 82 -24c12 0 23 4 33 12l129 106l-15 17l-44 -36c-9.33301 -7.33301 -18.666 -11 -27.999 -11c-21.333 0 -47.166 6.33301 -77.499 19s-60.166 31.5 -89.499 56.5s-53.666 55.833 -72.999 92.5s-29 77.667 -29 123
c0 17.333 2 33.833 6 49.5s11.167 32.334 21.5 50.001s25 37 44 58s43.5 44.833 73.5 71.5c28.667 -4.66699 55.5 -8.5 80.5 -11.5s43.167 -4.5 54.5 -4.5c12 0 25.333 0.666992 40 2l109 101l-13 13c-14 -11.333 -27.333 -18.833 -40 -22.5s-30 -5.5 -52 -5.5
c-28.667 0 -78.667 6.66699 -150 20c-47.333 8.66699 -82.333 14.667 -105 18s-39.667 5 -51 5c-9.33301 0 -18.666 -0.666992 -27.999 -2z" />
    <glyph glyph-name="U" unicode="U" horiz-adv-x="685" 
d="M484 136l-39.9951 -31.5029c-10.667 -8.33301 -19 -14.333 -25 -18s-11 -6.16699 -15 -7.5s-8.33301 -2 -13 -2c-28 0 -57.5 7 -88.5 21s-59.833 34 -86.5 60s-48 57 -64 93s-24 75 -24 117c0 21.333 2.33301 40.833 7 58.5s13 36.834 25 57.501s29.5 45 52.5 73
s53.833 63 92.5 105c-26 6.66699 -51.833 14.334 -77.5 23.001s-48.834 17.667 -69.501 27l-106 -89l14 -14l26 21c16 -6.66699 34.167 -13.167 54.5 -19.5s41.5 -12.166 63.5 -17.499c-39.333 -44.667 -70 -81 -92 -109s-38.667 -52 -50 -72s-18.833 -38 -22.5 -54
s-5.5 -34.333 -5.5 -55c0 -44.667 9.66699 -86.5 29 -125.5s44.166 -72.5 74.499 -100.5s62.166 -49.667 95.499 -65s63 -23 89 -23c5.33301 0 11.166 1.66699 17.499 5s14.666 8.83301 24.999 16.5s22.5 17.667 36.5 30l77 67.5v-48c13.333 -14 26.833 -27 40.5 -39
s27.167 -22.667 40.5 -32l112 78l-11 16l-23 -16c-24 14 -40.167 26.333 -48.5 37s-12.5 23 -12.5 37v288c0 33.333 0.666992 83 2 149c0.666992 49.333 1 74.333 1 75c-6.66699 8 -16.667 17.833 -30 29.5s-26 21.5 -38 29.5l-115 -81l13 -15l26 18
c10.667 -4.66699 20.5 -11.5 29.5 -20.5s13.5 -17.167 13.5 -24.5v-453z" />
    <glyph glyph-name="V" unicode="V" horiz-adv-x="648" 
d="M382 616l15 -13.001l22 23c18.667 -9.33301 41.5 -18 68.5 -26s50.833 -13.333 71.5 -16c-35.333 -69.333 -69.5 -142.166 -102.5 -218.499s-62.833 -150.833 -89.5 -223.5l-27 59.5c-8.66699 18.333 -18.667 37.5 -30 57.5l-39 67.5l-55 91.5
c-34 54.667 -60.667 105.167 -80 151.5s-29 78.166 -29 95.499c0 4 2 8.16699 6 12.5s12 10.833 24 19.5l-13 15l-102 -85c-4 -4 -6.66699 -6.83301 -8 -8.5s-2 -3.83398 -2 -6.50098c0 -5.33301 2.33301 -15.166 7 -29.499s12.5 -34.166 23.5 -59.499
s26.667 -56.5 47 -93.5s45.166 -79.167 74.499 -126.5c18 -28.667 35.333 -58.667 52 -90s32 -62.5 46 -93.5s25.333 -58.333 34 -82s13.667 -41.5 15 -53.5c22.667 27.333 39.834 47.5 51.501 60.5s21.5 22.833 29.5 29.5l-10 29l58 137.5c20.667 47 42.834 95 66.501 144
l70.5 143l70 133.5c-30 4 -56.833 9.5 -80.5 16.5s-53.834 18.5 -90.501 34.5z" />
    <glyph glyph-name="W" unicode="W" horiz-adv-x="981" 
d="M709 616l16.0059 -12.002l23 23c17.333 -8.66699 39.333 -17.167 66 -25.5s52 -14.166 76 -17.499c-24 -48.667 -50.667 -108.334 -80 -179.001s-63 -156.667 -101 -258c-12.667 31.333 -25 59.666 -37 84.999s-28 55 -48 89c-58 96.667 -100.167 173.834 -126.5 231.501
s-39.5 95.167 -39.5 112.5c0 4 2 8.16699 6 12.5s12 11.166 24 20.499l-13 14l-104 -84c-6.66699 -4.66699 -10 -10 -10 -16c0 -10.667 8.16699 -34.834 24.5 -72.501s40.833 -86.167 73.5 -145.5l-100 -247c-15.333 38.667 -36.333 82.834 -63 132.501
s-53.334 95.834 -80.001 138.501c-34 54 -60.667 104.333 -80 151s-29 78.667 -29 96c0 4 1.83301 8.16699 5.5 12.5s11.834 11.166 24.501 20.499l-13 14l-102 -85c-4 -4 -6.66699 -6.83301 -8 -8.5s-2 -3.83398 -2 -6.50098c0 -5.33301 2.33301 -15.166 7 -29.499
s12.5 -34.166 23.5 -59.499s26.667 -56.5 47 -93.5s45.166 -79.167 74.499 -126.5c17.333 -28 34.166 -57.667 50.499 -89s31.166 -62.5 44.499 -93.5s24 -58.5 32 -82.5s12.667 -42 14 -54c31.333 42.667 58.666 73.334 81.999 92.001l-11 27l104 253
c39.333 -62.667 74.5 -126.334 105.5 -191.001s53.833 -125 68.5 -181c31.333 42.667 58.666 73.334 81.999 92.001l-11 27c18.667 48.667 39.334 99.667 62.001 153l70 160l66.5 142.5c20.333 41.667 38.166 76.834 53.499 105.501c-44.667 4 -102.334 20 -173.001 48z" />
    <glyph glyph-name="X" unicode="X" horiz-adv-x="611" 
d="M416 635c12.667 -8 21.334 -15.1748 26.001 -21.5078s7 -14.166 7 -23.499c0 -20 -9.5 -41.833 -28.5 -65.5s-50.5 -55.5 -94.5 -95.5l-48 91l-61 120c-10 20.667 -20.833 36.834 -32.5 48.501s-22.834 17.5 -33.501 17.5c-6 0 -12.333 -1.66699 -19 -5
s-19 -12.333 -37 -27l-73 -58l12 -15c11.333 10 20.166 16.833 26.499 20.5s13.166 5.5 20.499 5.5c6.66699 0 17.167 -9.66699 31.5 -29s30.5 -46.666 48.5 -81.999l81 -156c-76 -69.333 -130 -129.666 -162 -180.999s-48 -100.333 -48 -147c0 -20 0.666992 -34.333 2 -43
c43.333 1.33301 81.166 8.5 113.499 21.5s65.5 35.5 99.5 67.5l-9 11c-24.667 -9.33301 -48 -14 -70 -14c-10 0 -22.667 0.666992 -38 2l-10 1c1.33301 24 4.33301 46 9 66s11.834 39.833 21.501 59.5s23 40.334 40 62.001s38.5 45.834 64.5 72.501
c16.667 -31.333 34.334 -62.666 53.001 -93.999s38.334 -62.666 59.001 -93.999s41 -60.5 61 -87.5s39.667 -51.5 59 -73.5l130 78l-11 17l-34 -20c-33.333 28.667 -68.5 70.667 -105.5 126s-79.833 127.333 -128.5 216c41.333 34 75.833 63.833 103.5 89.5
s49.167 47.667 64.5 66s26 33.5 32 45.5s9 22.667 9 32c0 34.667 -17.333 59 -52 73z" />
    <glyph glyph-name="Y" unicode="Y" horiz-adv-x="648" 
d="M382 618l13.999 -14l22 22c31.333 -12 57.666 -21.167 78.999 -27.5s41.333 -10.5 60 -12.5l-48.5 -102.5l-50.5 -111.5l-50 -117.5l-44 -109.5c-5.33301 14.667 -13.833 33.667 -25.5 57l-40 76.5l-51 90.5l-58.5 97c-12 19.333 -23.167 39.5 -33.5 60.5
s-19.166 40.333 -26.499 58s-13.166 33.334 -17.499 47.001s-6.5 22.834 -6.5 27.501c0 10 10.333 23 31 39l-14 14l-104 -88c-4 -2.66699 -6 -7 -6 -13c0 -10 3 -23.667 9 -41s16.167 -41 30.5 -71s34.5 -68 60.5 -114s59.667 -102.333 101 -169
c24.667 -40 55.667 -110.667 93 -212c-23.333 -59.333 -41.166 -102.333 -53.499 -129s-22.833 -46 -31.5 -58c23.333 -14 44.833 -23.667 64.5 -29s39.5 -8 59.5 -8c33.333 0 55.666 5.66699 66.999 17l58 59l-9 11c-12 -7.33301 -30.333 -11 -55 -11
c-12 0 -27.5 2.66699 -46.5 8s-40.167 13.666 -63.5 24.999l54 138l46 46c-7.33301 11.333 -12 21.333 -14 30c38 94 79.667 188.833 125 284.5s92.333 187.5 141 275.5c-10.667 0.666992 -24.5 2.83398 -41.5 6.50098s-34.5 8.16699 -52.5 13.5
s-34.167 10.666 -48.5 15.999s-24.833 9.66602 -31.5 12.999z" />
    <glyph glyph-name="Z" unicode="Z" horiz-adv-x="537" 
d="M63 603l15.001 -8.00195c7.33301 9.33301 13.166 15.5 17.499 18.5s9.83301 4.5 16.5 4.5c8.66699 0 32 -3.66699 70 -11c39.333 -7.33301 73.666 -13.166 102.999 -17.499s60.333 -7.5 93 -9.5c-16.667 -34 -39 -75.167 -67 -123.5s-59 -99 -93 -152
s-67.5 -102.667 -100.5 -149s-62.167 -83.833 -87.5 -112.5l13 -9c12.667 8 25 12 37 12c4.66699 0 10.167 -0.333008 16.5 -1s16 -2.16699 29 -4.5l53.5 -10l74 -14.5c30.667 -6 59.667 -11.167 87 -15.5s57.666 -8.16602 90.999 -11.499l91 109l-13 11
c-12.667 -16.667 -25.667 -25 -39 -25c-15.333 0 -31.5 1.33301 -48.5 4s-40.167 6.66699 -69.5 12c-33.333 6.66699 -65.166 12.5 -95.499 17.5s-64.166 10.167 -101.499 15.5l96.5 152.5l107.5 170.5l78 126l36 59c6 12 13 22.333 21 31l-11 9
c-11.333 -8.66699 -26.333 -13 -45 -13c-17.333 0 -37.166 1.66699 -59.499 5s-51.833 8.66602 -88.5 15.999c-34.667 6.66699 -63.334 11.834 -86.001 15.501s-44 6.16699 -64 7.5z" />
    <glyph glyph-name="bracketleft" unicode="[" horiz-adv-x="333" 
d="M317 712l-10.999 7.00098l-6 -7l-46.5 -2c-15 -0.666992 -29.833 -1 -44.5 -1c-32 0 -57.667 1 -77 3l-31 -42c2 -19.333 3.5 -42.833 4.5 -70.5s1.5 -56.834 1.5 -87.501v-475c0 -22 -2 -59 -6 -111v-3h57c31.333 0.666992 50 1 56 1c27.333 0 51 -2 71 -6l32 47l-11 8
l-6 -8c-2.66699 0 -12.334 -0.333008 -29.001 -1h-29h-29c-16.667 0.666992 -26.667 1 -30 1v706c3.33301 0 12.333 0.333008 27 1h27h24c13.333 -0.666992 21.333 -1 24 -1z" />
    <glyph glyph-name="backslash" unicode="\" horiz-adv-x="352" 
d="M332 -11l10 7c-4.66699 5.33301 -8.66699 11.833 -12 19.5s-8.66602 21.5 -15.999 41.5l-1 2l-227 625l-66 35l-10 -7c4.66699 -5.33301 8.66699 -11.833 12 -19.5s8.66602 -21.5 15.999 -41.5l1 -2l227 -625z" />
    <glyph glyph-name="bracketright" unicode="]" horiz-adv-x="333" 
d="M16 -76l10.999 -7l6 7l46.5 2c15 0.666992 29.833 1 44.5 1c32.667 0 58.334 -1 77.001 -3l31 42c-2 19.333 -3.5 43 -4.5 71s-1.5 57 -1.5 87v475c0 22 2 59 6 111v3h-56c-31.333 -0.666992 -50.333 -1 -57 -1c-12 0 -26 0.666992 -42 2l-20 3
c-5.33301 0.666992 -8.33301 1 -9 1l-32 -47l11 -8l6 8c3.33301 0 13 0.333008 29 1h29h30c16 -0.666992 25.667 -1 29 -1v-706c-2.66699 0 -11.667 -0.333008 -27 -1h-27h-24c-13.333 0.666992 -21.333 1 -24 1z" />
    <glyph glyph-name="asciicircum" unicode="^" horiz-adv-x="600" 
d="M89 270h66l145 289l145 -289h66l-181 365h-60z" />
    <glyph glyph-name="underscore" unicode="_" horiz-adv-x="500" 
d="M500 -125v50h-500v-50h500z" />
    <glyph glyph-name="grave" unicode="`" horiz-adv-x="241" 
d="M2 679l-3 -12l168 -123l29 9l-102 147z" />
    <glyph glyph-name="a" unicode="a" horiz-adv-x="426" 
d="M412 66c-18.667 22 -38.8359 61.165 -60.5029 117.498s-43.167 124.833 -64.5 205.5c-10 36.667 -20.5 63.167 -31.5 79.5s-23.5 24.5 -37.5 24.5c-7.33301 0 -16.166 -2.83301 -26.499 -8.5s-24.833 -15.834 -43.5 -30.501l-69 -53l11 -13
c10 8.66699 19.833 15.667 29.5 21s18.834 8 27.501 8s16.167 -3.16699 22.5 -9.5s11.166 -14.5 14.499 -24.5l34 -106c-40.667 -30.667 -74.167 -56.834 -100.5 -78.501s-46.333 -39.167 -60 -52.5s-23 -24.666 -28 -33.999s-7.5 -18.333 -7.5 -27c0 -32 6 -56 18 -72
s26 -24 42 -24c19.333 0 44 11.333 74 34s67 56.667 111 102c2.66699 -8 6.83398 -18.667 12.501 -32s11.834 -26.666 18.501 -39.999s13.167 -25.666 19.5 -36.999s11.833 -20 16.5 -26c17.333 12.667 35.833 25.334 55.5 38.001l59.5 37l-9 17zM222.998 254.998
c3.33301 -14 8.33301 -30.833 15 -50.5s12.667 -36.167 18 -49.5c-16 -26 -33.167 -46.5 -51.5 -61.5s-35.5 -22.5 -51.5 -22.5c-26 0 -39 17.667 -39 53c0 18 3.16699 32.333 9.5 43s21.5 25.667 45.5 45z" />
    <glyph glyph-name="b" unicode="b" horiz-adv-x="444" 
d="M68 271c0 -40 -0.666992 -99.999 -2 -179.999c21.333 -20.667 45.166 -40.167 71.499 -58.5s51.833 -32.833 76.5 -43.5c41.333 37.333 75.833 70.166 103.5 98.499s49.334 53.5 65.001 75.5s27 42.833 34 62.5s10.5 39.834 10.5 60.501c0 37.333 -10 71.833 -30 103.5
s-54 66.167 -102 103.5c-26.667 -19.333 -52.167 -40.833 -76.5 -64.5s-43.166 -47.167 -56.499 -70.5h-2v108c0 100.667 0.666992 175.667 2 225c-16 22.667 -35.333 40 -58 52l-108 -81l11 -14l24 18c10 -6.66699 17.167 -12.5 21.5 -17.5s7.66602 -11.833 9.99902 -20.5
s3.83301 -20.834 4.5 -36.501s1 -39.167 1 -70.5v-250zM160 287.001c0 13.333 7.00098 33.499 21.001 60.499s31.333 49.167 52 66.5c2 -3.33301 8.66699 -9.33301 20 -18c12 -10 22.667 -19.5 32 -28.5s18.666 -20.333 27.999 -34s17 -30.5 23 -50.5s9 -42.333 9 -67
c0 -27.333 -4.66699 -50.666 -14 -69.999s-28 -42.333 -56 -69c-76.667 40 -115 68.667 -115 86v124z" />
    <glyph glyph-name="c" unicode="c" horiz-adv-x="370" 
d="M343 79l-11 13.9971l-36 -28c-35.333 14 -65.166 32.833 -89.499 56.5s-43 49 -56 76s-22 53.5 -27 79.5s-7.5 49.667 -7.5 71c0 14.667 3.16699 26.334 9.5 35.001s20.833 20 43.5 34l107 -34l104 83l-14 13l-20 -16l-102 30l-131 -87
c-21.333 -14 -37.166 -25.167 -47.499 -33.5s-18.333 -17 -24 -26s-9.33398 -19 -11.001 -30s-2.5 -27.167 -2.5 -48.5c0 -31.333 5.16699 -61.5 15.5 -90.5s24.666 -55.667 42.999 -80s39.5 -45.666 63.5 -63.999s49.667 -33.166 77 -44.499z" />
    <glyph glyph-name="d" unicode="d" horiz-adv-x="463" 
d="M59 608c3.33301 -5.33301 7.33301 -10.5 12 -15.5s11.5 -11.667 20.5 -20l35.5 -31.5l56 -47c36 -29.333 64.833 -54.833 86.5 -76.5s38.5 -42.334 50.5 -62.001s20.5 -39.334 25.5 -59.001s7.5 -42.5 7.5 -68.5c0 -68 -22.333 -121.333 -67 -160
c-50.667 27.333 -91.667 64.166 -123 110.499s-47 95.5 -47 147.5c0 16.667 5.66699 32.834 17 48.501s34.666 38.167 69.999 67.5l-17 13c-35.333 -28 -63 -50.667 -83 -68s-35.333 -32.5 -46 -45.5s-18.167 -25.5 -22.5 -37.5s-6.5 -26 -6.5 -42
c0 -23.333 4.33301 -47.666 13 -72.999s21.5 -50.5 38.5 -75.5s37.333 -48.167 61 -69.5s49.834 -39.666 78.501 -54.999c77.333 53.333 132.666 105.166 165.999 155.499s50 102.833 50 157.5c0 35.333 -10.5 71.5 -31.5 108.5s-58.167 77.833 -111.5 122.5l-74.5 63
l-39.5 35c-9.33301 8.66699 -16.166 15.334 -20.499 20.001s-7.5 9 -9.5 13l21 19l-14 11z" />
    <glyph glyph-name="e" unicode="e" horiz-adv-x="370" 
d="M289 65c-14 4.66699 -28.499 11.833 -43.499 21.5s-29.333 20.667 -43 33s-25.334 24.666 -35.001 36.999s-16.5 23.833 -20.5 34.5l169 121c10.667 8 17.667 13.833 21 17.5s5 8.5 5 14.5c0 17.333 -7.66699 40.333 -23 69s-36 55.334 -62 80.001l-113.5 -72
c-34.333 -22.667 -62.5 -43 -84.5 -61c-10.667 -8.66699 -18.5 -22.667 -23.5 -42s-7.5 -41.333 -7.5 -66c0 -54 17.5 -105 52.5 -153s81.5 -84.667 139.5 -110l116 93l-10 13zM140.001 208.999c-13.333 41.333 -20 77.334 -20 108.001c0 28 3.5 48.5 10.5 61.5
s23.5 26.5 49.5 40.5c8 -5.33301 16 -13.5 24 -24.5s15.5 -22.833 22.5 -35.5s12.667 -24.334 17 -35.001s6.5 -18.334 6.5 -23.001c0 -9.33301 -2.66699 -15.666 -8 -18.999z" />
    <glyph glyph-name="f" unicode="f" horiz-adv-x="259" 
d="M270 612l10.999 -13.002l94 70c0 10 -3.5 19.5 -10.5 28.5s-16 17 -27 24s-21.667 12.333 -32 16s-18.166 5.5 -23.499 5.5c-2.66699 0 -11.167 -3.16699 -25.5 -9.5s-30.833 -14.166 -49.5 -23.499s-36.834 -19 -54.501 -29s-30.834 -18.667 -39.501 -26
c-16.667 -13.333 -28 -25.666 -34 -36.999s-9 -24.333 -9 -39c0 -16 0.333008 -32.833 1 -50.5s1.66699 -36.5 3 -56.5h-55l-56 -63l13 -9c6.66699 8.66699 13.334 14.5 20.001 17.5s14.334 4.5 23.001 4.5h55v-293c0 -57.333 -0.166992 -103.333 -0.5 -138
s-1 -61.667 -2 -81s-2 -34.333 -3 -45s-2.16699 -19 -3.5 -25l-34 -14l7 -16l128 46v566h76l52 58l-13 13c-8.66699 -14 -22 -21 -40 -21h-75v153c0 18 2.5 30.167 7.5 36.5s14.167 9.5 27.5 9.5c14 0 29.667 -5 47 -15s28.333 -22 33 -36z" />
    <glyph glyph-name="g" unicode="g" horiz-adv-x="463" 
d="M454 420l2 0.00488281l-23 9c-42.667 16.667 -77.5 29.667 -104.5 39s-54.833 17.666 -83.5 24.999c-51.333 -37.333 -91.5 -68.166 -120.5 -92.499s-50.333 -45.5 -64 -63.5s-22.5 -35 -26.5 -51s-6 -35.667 -6 -59c0 -42.667 15 -85.334 45 -128.001
s71.333 -79.334 124 -110.001l102 88v-38c0 -10 6 -21 18 -33c12.667 -12.667 23.834 -28.834 33.501 -48.501s14.5 -34.5 14.5 -44.5c0 -37.333 -34.333 -56 -103 -56c-38 0 -69.5 6.66699 -94.5 20s-37.5 30.666 -37.5 51.999l28 23l-12 13l-109 -92
c4.66699 -17.333 13.5 -32.333 26.5 -45s28.667 -22.834 47 -30.501s37.666 -13.334 57.999 -17.001s40.5 -5.5 60.5 -5.5c20.667 0 39.5 5.5 56.5 16.5s38.833 32.833 65.5 65.5c6.66699 3.33301 15.5 9.33301 26.5 18s30.167 26 57.5 52c12 10.667 18 22 18 34
c0 14 -3.66699 27.833 -11 41.5s-18 29.5 -32 47.5c-15.333 20.667 -23 34.334 -23 41.001v197c0 19.333 0.666992 46 2 80v3zM299 322.005v-220l-38 -32c-44 23.333 -79.167 54.333 -105.5 93s-39.5 84 -39.5 136c0 28 4.16699 50.333 12.5 67s23.5 33 45.5 49
c28 -6.66699 56 -14.5 84 -23.5s58.667 -19.833 92 -32.5z" />
    <glyph glyph-name="h" unicode="h" horiz-adv-x="463" 
d="M160 19l0.00390625 191.002c0 18.667 1.5 35.667 4.5 51s8 30 15 44s16.833 29.167 29.5 45.5s28.667 34.833 48 55.5c27.333 -36 47.5 -71.833 60.5 -107.5s19.5 -73.834 19.5 -114.501c0 -69.333 -10.167 -124.333 -30.5 -165s-54.5 -78.667 -102.5 -114l11 -17
c38.667 24.667 71.167 48 97.5 70s48.166 45 65.499 69s30.166 50.5 38.499 79.5s12.5 62.167 12.5 99.5c0 54.667 -8.66699 105.5 -26 152.5s-43 91.833 -77 134.5c-12.667 -9.33301 -27.167 -21.333 -43.5 -36s-32.833 -30.667 -49.5 -48s-31.334 -33.333 -44.001 -48
s-21.667 -27 -27 -37h-2v142c0 100.667 0.666992 175.667 2 225c-16 22.667 -35.333 40 -58 52l-108 -81l11 -14l24 18c10 -6.66699 17.167 -12.5 21.5 -17.5s7.66602 -11.833 9.99902 -20.5s3.83301 -20.834 4.5 -36.501s1 -39.167 1 -70.5v-229
c0 -57.333 -0.166992 -103.333 -0.5 -138s-1 -61.667 -2 -81s-2 -34.333 -3 -45s-2.16699 -19 -3.5 -25l-34 -14l7 -16z" />
    <glyph glyph-name="i" unicode="i" horiz-adv-x="240" 
d="M234 71l-11.999 13l-22 -17c-12 10 -20.667 20.167 -26 30.5s-8 23.5 -8 39.5v245c0 16.667 0.666992 36.334 2 59.001c-16 22.667 -35.333 40 -58 52l-108 -81l11 -14l24 18c10 -6.66699 17.167 -12.5 21.5 -17.5s7.66602 -11.833 9.99902 -20.5
s3.83301 -20.834 4.5 -36.501s1 -39.167 1 -70.5c0 -44 -0.333008 -89 -1 -135c-0.666992 -24 -1 -42 -1 -54c0 -18 4 -34 12 -48s22.333 -29 43 -45zM57.001 612l55 -57l73 69l-55 59z" />
    <glyph glyph-name="j" unicode="j" horiz-adv-x="241" 
d="M2 412l11.002 -14l24 18c10 -6.66699 17.167 -12.5 21.5 -17.5s7.66602 -11.833 9.99902 -20.5s3.83301 -20.834 4.5 -36.501s1 -39.167 1 -70.5c0 -53.333 -0.333008 -120.333 -1 -201c-0.666992 -62 -1 -102 -1 -120c0 -26.667 -0.833008 -47.167 -2.5 -61.5
s-5.33398 -26.833 -11.001 -37.5s-14 -20.167 -25 -28.5s-26.5 -17.5 -46.5 -27.5l7 -20c22 8 43.5 19.333 64.5 34s40 30.834 57 48.501s30.333 35.167 40 52.5s14.5 32.666 14.5 45.999c0 18.667 -0.666992 51.334 -2 98.001c-1.33301 53.333 -2 95.666 -2 126.999v201
c0 16.667 0.666992 36.334 2 59.001c-16 22.667 -35.333 40 -58 52zM57.002 612l55 -57l73 69l-55 59z" />
    <glyph glyph-name="k" unicode="k" horiz-adv-x="463" 
d="M160 19l0.00292969 226.003h2l36 -52c14.667 -20.667 30.5 -41.834 47.5 -63.501l55.5 -70l56 -70.5l117 72l-10 17l-26 -17l-85.5 101l-94.5 120c34.667 23.333 69.667 50.666 105 81.999s62.666 59 81.999 83c-59.333 17.333 -103 32.666 -131 45.999l-107 -75l12 -12
l22 15c15.333 -8 32.666 -15.667 51.999 -23s35.333 -11.666 48 -12.999c-46 -46 -106.333 -92 -181 -138v219c0 100.667 0.666992 175.667 2 225c-16 22.667 -35.333 40 -58 52l-108 -81l11 -14l24 18c10 -6.66699 17.167 -12.5 21.5 -17.5s7.66602 -11.833 9.99902 -20.5
s3.83301 -20.834 4.5 -36.501s1 -39.167 1 -70.5v-229c0 -57.333 -0.166992 -103.333 -0.5 -138s-1 -61.667 -2 -81s-2 -34.333 -3 -45s-2.16699 -19 -3.5 -25l-34 -14l7 -16z" />
    <glyph glyph-name="l" unicode="l" horiz-adv-x="240" 
d="M2 662l11.001 -13.999l24 18c10 -6.66699 17.167 -12.5 21.5 -17.5s7.66602 -11.833 9.99902 -20.5s3.83301 -20.834 4.5 -36.501s1 -39.167 1 -70.5v-250c0 -44 -0.333008 -89 -1 -135c-0.666992 -24 -1 -42 -1 -54c0 -18 4 -34 12 -48s22.333 -29 43 -45l107 82l-12 13
l-22 -17c-12 10 -20.667 20.167 -26 30.5s-8 23.5 -8 39.5v329c0 100.667 0.666992 175.667 2 225c-16 22.667 -35.333 40 -58 52z" />
    <glyph glyph-name="m" unicode="m" horiz-adv-x="686" 
d="M2 412l11.001 -13.998l24 18c10 -6.66699 17.167 -12.5 21.5 -17.5s7.66602 -11.833 9.99902 -20.5s3.83301 -20.834 4.5 -36.501s1 -39.167 1 -70.5c0 -44 -0.333008 -89 -1 -135c-0.666992 -24 -1 -42 -1 -54c0 -18 4 -34 12 -48s22.333 -29 43 -45l107 82l-12 13
l-22 -17c-12 10 -20.667 20.167 -26 30.5s-8 23.5 -8 39.5v95c0 19.333 0.833008 35.666 2.5 48.999s4.66699 26.333 9 39s10.833 26 19.5 40s20.667 30 36 48l2 -2c18 -14.667 30.333 -25 37 -31s12 -11.333 16 -16s6.5 -9.33398 7.5 -14.001s1.5 -11 1.5 -19
c0 -68 -0.333008 -133 -1 -195c-0.666992 -21.333 -1 -37.666 -1 -48.999c0 -18 4 -34 12 -48s22.333 -29 43 -45l107 82l-12 13l-22 -17c-12 10 -20.667 20.167 -26 30.5s-8 23.5 -8 39.5v95c0 19.333 0.833008 35.666 2.5 48.999s4.66699 26.333 9 39s10.833 26 19.5 40
s20.667 30 36 48l2 -2c18 -14.667 30.333 -25 37 -31s12 -11.333 16 -16s6.5 -9.33398 7.5 -14.001s1.5 -11 1.5 -19c0 -39.333 -0.333008 -87.333 -1 -144c-0.666992 -42.667 -1 -70.667 -1 -84c0 -20.667 4.16699 -37.334 12.5 -50.001s26.833 -32.334 55.5 -59.001
l105 81l-10 13l-19 -14c-21.333 16 -35 28.833 -41 38.5s-9 22.5 -9 38.5c0 29.333 0.166992 57.333 0.5 84s0.833008 50.834 1.5 72.501s1.66699 42.667 3 63s2.66602 36.5 3.99902 48.5l-56 47.5c-17.333 14.333 -31 24.833 -41 31.5
c-10 -5.33301 -21.333 -13.666 -34 -24.999s-25.5 -24 -38.5 -38s-24.667 -27.5 -35 -40.5s-18.166 -24.167 -23.499 -33.5h-2v60c-11.333 12.667 -26.333 26.667 -45 42s-34.334 27 -47.001 35c-10 -5.33301 -21.333 -13.666 -34 -24.999s-25.5 -24 -38.5 -38
s-24.667 -27.5 -35 -40.5s-18.166 -24.167 -23.499 -33.5h-2v26c0 16.667 0.666992 36.334 2 59.001c-16 22.667 -35.333 40 -58 52z" />
    <glyph glyph-name="n" unicode="n" 
d="M457 69c-21.333 16 -34.9971 28.834 -40.9971 38.501s-9 22.5 -9 38.5c0 29.333 0.166992 57.333 0.5 84s0.833008 50.834 1.5 72.501s1.66699 42.667 3 63s2.66602 36.5 3.99902 48.5l-106 79c-32.667 -26.667 -61 -52 -85 -76s-43 -47.667 -57 -71h-2v36
c0 16.667 0.666992 36.334 2 59.001c-16 22.667 -35.333 40 -58 52l-108 -81l11 -14l24 18c10 -6.66699 17.167 -12.5 21.5 -17.5s7.66602 -11.833 9.99902 -20.5s3.83301 -20.834 4.5 -36.501s1 -39.167 1 -70.5c0 -44 -0.333008 -89 -1 -135c-0.666992 -24 -1 -42 -1 -54
c0 -18 4 -34 12 -48s22.333 -29 43 -45l107 82l-12 13l-22 -17c-12 10 -20.667 20.167 -26 30.5s-8 23.5 -8 39.5v95c0 18.667 1.16699 35.167 3.5 49.5s6.16602 27.833 11.499 40.5s13 25.834 23 39.501s23.333 29.5 40 47.5c2 0 7 -2.5 15 -7.5s16.333 -10.833 25 -17.5
s16 -13.5 22 -20.5s9 -12.5 9 -16.5c0 -46.667 -0.333008 -103 -1 -169c-0.666992 -36.667 -1 -63.334 -1 -80.001c0 -20.667 4.16699 -37.334 12.5 -50.001s26.833 -32.334 55.5 -59.001l105 81l-10 13z" />
    <glyph glyph-name="o" unicode="o" horiz-adv-x="444" 
d="M124 409c-21.333 -16.667 -38.168 -30.667 -50.501 -42s-21.833 -21.833 -28.5 -31.5s-11.167 -19.5 -13.5 -29.5s-3.5 -22 -3.5 -36c0 -60.667 17 -116.667 51 -168c16 -24.667 35.167 -46.667 57.5 -66s46.833 -35 73.5 -47c24.667 18 49.334 39.667 74.001 65
s47 51.5 67 78.5s35.833 52.333 47.5 76s17.5 43.167 17.5 58.5c0 51.333 -10.833 93 -32.5 125s-56.167 58.667 -103.5 80l-48 21zM163.998 417c28 -9.33301 51.833 -19.166 71.5 -29.499s37 -23 52 -38s26.5 -33 34.5 -54s12 -46.167 12 -75.5
c0 -28.667 -6.16699 -56 -18.5 -82s-28.166 -48.333 -47.499 -67c-18.667 8 -37 20.333 -55 37s-34.333 36.667 -49 60s-26.334 49.166 -35.001 77.499s-13 57.5 -13 87.5c0 31.333 7 52.333 21 63z" />
    <glyph glyph-name="p" unicode="p" 
d="M13 398l24.0029 18c10 -6.66699 17.167 -12.5 21.5 -17.5s7.66602 -11.833 9.99902 -20.5s3.83301 -20.834 4.5 -36.501s1 -39.167 1 -70.5v-142c0 -57.333 -0.166992 -103.333 -0.5 -138s-1 -61.667 -2 -81s-2 -34.333 -3 -45s-2.16699 -19 -3.5 -25l-34 -14l7 -16
l128 46v340c0 24.667 1.16699 45.167 3.5 61.5s6.66602 31.666 12.999 45.999s15 29.5 26 45.5s27.167 36.667 48.5 62c8.66699 -18 23.334 -44 44.001 -78c21.333 -34 37.333 -63 48 -87s16 -49.667 16 -77c0 -17.333 -3.5 -35.833 -10.5 -55.5
s-15.833 -35.167 -26.5 -46.5c-32 0 -54 4.66699 -66 14c-22 -22.667 -49 -48 -81 -76c4 -10.667 21.667 -16 53 -16c10.667 0 27.5 7.33301 50.5 22s55.167 41.334 96.5 80.001c23.333 22.667 40.166 43.667 50.499 63s15.5 42.333 15.5 69
c0 32.667 -6.83301 63.834 -20.5 93.501s-33.834 65.5 -60.501 107.5c-20 31.333 -34 54.333 -42 69c-28.667 -20 -56.5 -44 -83.5 -72s-51.167 -57.667 -72.5 -89h-2c1.33301 48 2 84.333 2 109c-16 22.667 -35.333 40 -58 52l-108 -81z" />
    <glyph glyph-name="q" unicode="q" horiz-adv-x="463" 
d="M254 -174l7.00195 -16.001l128 46v514l64 48c-10 5.33301 -23.5 11.333 -40.5 18s-34 12.834 -51 18.501l-47 15.5l-70.5 23c-46.667 -32.667 -87.667 -64 -123 -94s-59.333 -54.333 -72 -73c-4.66699 -6.66699 -9.33398 -19.5 -14.001 -38.5s-7 -34.5 -7 -46.5
c0 -53.333 13 -100.5 39 -141.5s68 -77.833 126 -110.5l104 88v-115c0 -24 -0.833008 -47.333 -2.5 -70s-3.83398 -40 -6.50098 -52zM253.002 64.999c-44.667 24 -79.667 54.999 -105 92.999s-38 80.333 -38 127c0 32 4.33301 57.833 13 77.5s24.667 37.834 48 54.501
c13.333 -3.33301 29 -7.83301 47 -13.5l54.5 -17.5l50 -16.5c15 -5 24.167 -8.16699 27.5 -9.5l-53 -39v-221z" />
    <glyph glyph-name="r" unicode="r" horiz-adv-x="333" 
d="M244 76l-40 18.998c-14 6.66699 -23.833 13.834 -29.5 21.501s-8.5 16.834 -8.5 27.501v99c0 30 3.16699 56.5 9.5 79.5s18.5 49.5 36.5 79.5c24.667 -25.333 37 -54 37 -86c0 -12.667 -4.33301 -25 -13 -37l13 -8l68 74c9.33301 10 14 23 14 39
c0 50.667 -18.667 87 -56 109c-45.333 -37.333 -81 -81.333 -107 -132h-2v21c0 16.667 0.666992 36.334 2 59.001c-16 22.667 -35.333 40 -58 52l-108 -81l11 -14l24 18c10 -6.66699 17.167 -12.5 21.5 -17.5s7.66602 -11.833 9.99902 -20.5s3.83301 -20.834 4.5 -36.501
s1 -39.167 1 -70.5c0 -44 -0.333008 -89 -1 -135c-0.666992 -24 -1 -42 -1 -54c0 -16.667 7 -31 21 -43c8 -6.66699 19.333 -14 34 -22s34.334 -17.333 59.001 -28l89 96l-13 11z" />
    <glyph glyph-name="s" unicode="s" horiz-adv-x="352" 
d="M15 47c16 -18.667 35.8311 -32.998 59.498 -42.998s46.167 -15 67.5 -15c28 0 52.333 6.5 73 19.5s43.334 36.5 68.001 70.5c21.333 29.333 35.666 51.833 42.999 67.5s11 29.5 11 41.5c0 20 -9.16699 38.833 -27.5 56.5s-45.166 31.167 -80.499 40.5
c-44 12 -74 26.333 -90 43s-24 37.334 -24 62.001c0 6.66699 0.666992 14 2 22c18.667 -8 40.667 -14.833 66 -20.5s52 -10.167 80 -13.5l65 93l-15 8l-10 -15c-15.333 0.666992 -35.666 4.16699 -60.999 10.5s-47.333 12.5 -66 18.5l-93 -88
c-18.667 -17.333 -31.667 -32.5 -39 -45.5s-11 -27.167 -11 -42.5c0 -26 9 -47 27 -63s53 -32.333 105 -49c34.667 -10.667 60 -24.334 76 -41.001s24 -35.334 24 -56.001c0 -4.66699 -0.666992 -10.334 -2 -17.001v-2c-12.667 -8 -33 -12 -61 -12
c-22 0 -44.5 4.16699 -67.5 12.5s-39.167 17.5 -48.5 27.5l15 21l-15 9z" />
    <glyph glyph-name="t" unicode="t" horiz-adv-x="278" 
d="M266 85l-12.998 11.999l-18 -20c-16 8 -28.833 15 -38.5 21s-16.5 11.667 -20.5 17s-6.66699 10.833 -8 16.5s-2 14.167 -2 25.5v265h75l53 58l-13 13c-8.66699 -14 -22 -21 -40 -21h-75c0 17.333 1.16699 37.833 3.5 61.5s5.16602 38.834 8.49902 45.501l-10 3
c-12.667 -15.333 -25 -29.166 -37 -41.499s-24.667 -24.166 -38 -35.499s-28.5 -23.5 -45.5 -36.5l-63.5 -46.5l8 -12c13.333 8 32.666 12 57.999 12h26c-0.666992 -51.333 -1.16699 -111.333 -1.5 -180s-0.5 -120.334 -0.5 -155.001c0 -8.66699 1 -16.167 3 -22.5
s6.33301 -12.833 13 -19.5s17 -14.334 31 -23.001s33 -19.667 57 -33z" />
    <glyph glyph-name="u" unicode="u" 
d="M307 98l-38.9961 -27.0049c-26 10 -45.5 18.333 -58.5 25s-22.667 13 -29 19s-10.333 12.333 -12 19s-2.5 16.334 -2.5 29.001v219c0 16.667 0.666992 36.334 2 59.001c-16 22.667 -35.333 40 -58 52l-108 -81l11 -14l24 18c10 -6.66699 17.167 -12.5 21.5 -17.5
s7.66602 -11.833 9.99902 -20.5s3.83301 -20.834 4.5 -36.501s1 -39.167 1 -70.5c0 -44 -0.333008 -89 -1 -135c-0.666992 -24 -1 -42 -1 -54c0 -18 9 -34.167 27 -48.5s51.333 -29.166 100 -44.499c14.667 13.333 31.667 27.833 51 43.5s38.333 30.167 57 43.5
c1.33301 -13.333 6.66602 -26.666 15.999 -39.999s25.666 -29 48.999 -47l107 82l-14 15l-20 -15c-21.333 16.667 -34.333 28.834 -39 36.501s-7 18.834 -7 33.501v241c0 16.667 0.666992 36.334 2 59.001c-16 22.667 -35.333 40 -58 52l-108 -81l11 -14l24 18
c10 -6.66699 17.167 -12.5 21.5 -17.5s7.66602 -11.833 9.99902 -20.5s3.83301 -20.834 4.5 -36.501s1 -39.167 1 -70.5v-173z" />
    <glyph glyph-name="v" unicode="v" horiz-adv-x="426" 
d="M2 412l11.001 -13.999l24 18c10 -6.66699 17.167 -12.5 21.5 -17.5s7.66602 -11.833 9.99902 -20.5s3.83301 -20.834 4.5 -36.501s1 -39.167 1 -70.5c0 -44 -0.333008 -89 -1 -135c-0.666992 -24 -1 -42 -1 -54c0 -8.66699 1.33301 -16 4 -22s8 -12.333 16 -19
s20.167 -14.167 36.5 -22.5s38.5 -18.166 66.5 -29.499c44.667 38 81.167 71.667 109.5 101s50 55.166 65 77.499s25.333 42.666 31 60.999s8.5 37.5 8.5 57.5c0 30 -6.5 56.667 -19.5 80s-32.167 50 -57.5 80c-17.333 22 -29.333 37.667 -36 47
c-32 -24.667 -58.167 -49 -78.5 -73s-36.833 -47.667 -49.5 -71h-2v33c0 16.667 0.666992 36.334 2 59.001c-16 22.667 -35.333 40 -58 52zM166.001 264.001c0 10.667 2.16504 22.668 6.49805 36.001s9.83301 26.666 16.5 39.999s14.334 26.333 23.001 39
s17 23.334 25 32.001c60 -70 90 -137 90 -201c0 -22 -5.83301 -45.5 -17.5 -70.5s-27.5 -46.5 -47.5 -64.5c-21.333 8 -38.333 15 -51 21s-22.167 11.667 -28.5 17s-10.666 10.666 -12.999 15.999s-3.5 12 -3.5 20v115z" />
    <glyph glyph-name="w" unicode="w" horiz-adv-x="630" 
d="M218 65c-23.333 16.667 -37.8311 29.5 -43.498 38.5s-8.5 21.5 -8.5 37.5v117c0 10.667 1.83301 22.834 5.5 36.501s8.5 27.5 14.5 41.5s12.667 27 20 39s14.333 22 21 30c28 -15.333 45.833 -27.5 53.5 -36.5s11.5 -21.167 11.5 -36.5v-254c0 -11.333 7 -23.333 21 -36
s41.333 -30.334 82 -53.001c46 38 83.333 71.5 112 100.5s50.667 54.833 66 77.5s25.833 43.167 31.5 61.5s8.5 37.5 8.5 57.5c0 29.333 -6.16699 55.333 -18.5 78s-30.5 49 -54.5 79c-18 22 -30.333 38.667 -37 50c-21.333 -15.333 -43.166 -36.666 -65.499 -63.999
s-39.5 -53 -51.5 -77h-2v72c-14 12 -29.833 24.167 -47.5 36.5s-34.834 23.166 -51.501 32.499c-16.667 -13.333 -36.667 -33.833 -60 -61.5s-42.333 -54.167 -57 -79.5h-2v30c0 16.667 0.666992 36.334 2 59.001c-16 22.667 -35.333 40 -58 52l-108 -81l11 -14l24 18
c10 -6.66699 17.167 -12.5 21.5 -17.5s7.66602 -11.833 9.99902 -20.5s3.83301 -20.834 4.5 -36.501s1 -39.167 1 -70.5c0 -44 -0.333008 -89 -1 -135c-0.666992 -24 -1 -42 -1 -54s4.66699 -24.5 14 -37.5s28.666 -31.5 57.999 -55.5l110 83l-12 11zM384.002 255
c0 24.667 5.16797 49.8301 15.501 75.4971s24.166 50.5 41.499 74.5c60 -65.333 90 -129.666 90 -192.999c0 -21.333 -6 -44.666 -18 -69.999s-28 -47 -48 -65l-50 27c-12 6.66699 -20.167 12.834 -24.5 18.501s-6.5 13.5 -6.5 23.5v109z" />
    <glyph glyph-name="x" unicode="x" horiz-adv-x="444" 
d="M448 82l-12.002 13.0029l-29 -24c-54 53.333 -101 122 -141 206l71.5 59.5c19 16.333 33.667 30.333 44 42s17.833 21.834 22.5 30.501s7 17 7 25c0 10.667 -5 21.834 -15 33.501s-21.667 20.167 -35 25.5l-73 -77c20.667 -12.667 31 -26.667 31 -42
c0 -8 -4.33301 -17.833 -13 -29.5s-25 -27.834 -49 -48.501l-65 136c-10.667 22 -20.5 36.667 -29.5 44s-18.167 11 -27.5 11c-4.66699 0 -9.5 -1 -14.5 -3s-12 -6 -21 -12s-21.5 -15.333 -37.5 -28l-57 -47l11 -14c14.667 11.333 25.167 18.666 31.5 21.999
s12.166 5 17.499 5c6.66699 0 13.334 -3.33301 20.001 -10s15 -19.667 25 -39l66 -125c-29.333 -24.667 -53.666 -46.834 -72.999 -66.501s-34.666 -37.667 -45.999 -54s-19.333 -31.5 -24 -45.5s-7 -28.333 -7 -43c0 -13.333 3 -26 9 -38
c26 5.33301 52.167 14.666 78.5 27.999s51.833 29 76.5 47l-9 12l-12 -6c-18.667 -10 -32.334 -16.333 -41.001 -19c-2.66699 6 -5 13.5 -7 22.5s-3 16.833 -3 23.5c0 38 22.667 77.667 68 119c8.66699 -19.333 18.834 -39.5 30.501 -60.5s24.167 -41.5 37.5 -61.5
s27.333 -39.333 42 -58s29 -34.334 43 -47.001z" />
    <glyph glyph-name="y" unicode="y" 
d="M274 401l14.001 -10.999l22 21c27.333 -14 55.666 -22.667 84.999 -26c-9.33301 -32 -23.5 -72.667 -42.5 -122s-40.5 -101.333 -64.5 -156c-30 62.667 -56.5 122.667 -79.5 180s-43.5 115.333 -61.5 174c-6.66699 21.333 -15.334 32 -26.001 32
c-3.33301 0 -7.66602 -1.16699 -12.999 -3.5s-12.666 -7.16602 -21.999 -14.499s-21.833 -17.833 -37.5 -31.5l-57.5 -52.5l10 -13c10.667 9.33301 19 15.833 25 19.5s11 5.5 15 5.5c3.33301 0 6.66602 -2.83301 9.99902 -8.5s7.66602 -16.167 12.999 -31.5
c2.66699 -8.66699 11.834 -31.5 27.501 -68.5l53.5 -123l55 -119c16.667 -34.333 27.667 -55.5 33 -63.5c-30.667 -62 -67.667 -130 -111 -204c11.333 -3.33301 22.333 -5 33 -5c24.667 0 46.667 4 66 12c11.333 4.66699 24.166 11.667 38.499 21
s31.166 21.666 50.499 36.999l-8 11c-16 -8 -28.667 -13.5 -38 -16.5s-18 -4.5 -26 -4.5c-7.33301 0 -17.666 1 -30.999 3c23.333 59.333 48 115 74 167l42 37l-13 22c52.667 116 106.667 245.333 162 388c-17.333 1.33301 -35.666 5.66602 -54.999 12.999
s-34.333 15 -45 23z" />
    <glyph glyph-name="z" unicode="z" horiz-adv-x="389" 
d="M29 385l11.998 -9l19 23c22.667 -2 53 -5.66699 91 -11s76 -11 114 -17c-16.667 -26.667 -36 -55.667 -58 -87l-67.5 -93l-67 -86c-21.667 -26.667 -41.167 -49.667 -58.5 -69c38 -4.66699 78.333 -11 121 -19s88.334 -17.333 137.001 -28l95 103l-14 12l-23 -25
c-35.333 6.66699 -71.833 13.167 -109.5 19.5s-70.167 10.833 -97.5 13.5c56.667 68 106 132 148 192s74 110.667 96 152c-33.333 1.33301 -71.666 5.33301 -114.999 12s-89 15 -137 25z" />
    <glyph glyph-name="braceleft" unicode="{" horiz-adv-x="333" 
d="M149 53c0 -26.667 3.16699 -48.498 9.5 -65.498s15.166 -30.167 26.499 -39.5s24.333 -15.666 39 -18.999s31.334 -5 50.001 -5h38v10c-32.667 5.33301 -55.334 16.833 -68.001 34.5s-19 43.167 -19 76.5v153c0 34.667 -5 61.167 -15 79.5s-29.333 31.5 -58 39.5v2
c28.667 8 48 21.167 58 39.5s15 44.833 15 79.5v153c0 33.333 6.33301 58.833 19 76.5s35.334 29.167 68.001 34.5v10h-38c-18.667 0 -35.334 -1.66699 -50.001 -5s-27.667 -9.66602 -39 -18.999s-20.166 -22.5 -26.499 -39.5s-9.5 -38.833 -9.5 -65.5v-159
c0 -30.667 -5.33301 -53.834 -16 -69.501s-31.667 -27.834 -63 -36.501c31.333 -8.66699 52.333 -20.834 63 -36.501s16 -38.834 16 -69.501v-159z" />
    <glyph glyph-name="bar" unicode="|" horiz-adv-x="222" 
d="M78 -11h66v730h-66v-730z" />
    <glyph glyph-name="braceright" unicode="}" horiz-adv-x="333" 
d="M108 45c0 -33.333 -6.33301 -58.835 -19 -76.502s-35.334 -29.167 -68.001 -34.5v-10h38c18.667 0 35.334 1.66699 50.001 5s27.667 9.66602 39 18.999s20.166 22.5 26.499 39.5s9.5 38.833 9.5 65.5v159c0 30.667 5.5 53.834 16.5 69.501s31.833 27.834 62.5 36.501
c-30.667 8.66699 -51.5 20.834 -62.5 36.501s-16.5 38.834 -16.5 69.501v159c0 26.667 -3.16699 48.5 -9.5 65.5s-15.166 30.167 -26.499 39.5s-24.333 15.666 -39 18.999s-31.334 5 -50.001 5h-38v-10c32.667 -5.33301 55.334 -16.833 68.001 -34.5s19 -43.167 19 -76.5
v-153c0 -34.667 5 -61.167 15 -79.5s29.333 -31.5 58 -39.5v-2c-28.667 -8 -48 -21.167 -58 -39.5s-15 -44.833 -15 -79.5v-153z" />
    <glyph glyph-name="asciitilde" unicode="~" horiz-adv-x="600" 
d="M105 182c9.33301 20.667 21.165 37.665 35.498 50.998s30.833 20 49.5 20c9.33301 0 20.833 -2.16699 34.5 -6.5s35.5 -13.166 65.5 -26.499c49.333 -22 88 -33 116 -33c24.667 0 46.167 6.33301 64.5 19s38.5 34.334 60.5 65.001l-36 53
c-27.333 -47.333 -56.333 -71 -87 -71c-9.33301 0 -21.5 2.5 -36.5 7.5s-35.5 13.5 -61.5 25.5s-48.167 20.5 -66.5 25.5s-35.166 7.5 -50.499 7.5c-25.333 0 -48.666 -7 -69.999 -21s-39.333 -35 -54 -63z" />
    <glyph glyph-name="exclamdown" unicode="&#xa1;" horiz-adv-x="258" 
d="M195 -92l-21 -11.999c-2 18.667 -4 43.834 -6 75.501s-4 66.5 -6 104.5s-3.66699 76.167 -5 114.5s-2.33301 73.166 -3 104.499l-9 3c-6 -12 -13.167 -24.833 -21.5 -38.5s-16.833 -25.167 -25.5 -34.5l-5 -114c-2 -44.667 -4 -83.667 -6 -117
s-4.16699 -66.833 -6.5 -100.5s-4.5 -58.834 -6.5 -75.501l13 -8c40 34 78.333 61.333 115 82zM112 355.001l86 79l-56 63l-86 -80z" />
    <glyph glyph-name="cent" unicode="&#xa2;" horiz-adv-x="389" 
d="M386 466l-10 13.002l-23 -17c-1.33301 0 -5.33301 1 -12 3l-61 17c-14.667 4 -26.667 7.66699 -36 11v33c0 9.33301 2.33301 16.666 7 21.999l-6 6l-36 -25v-60l-148 -103c-12 -8.66699 -20.5 -21.834 -25.5 -39.501s-7.5 -40.167 -7.5 -67.5
c0 -26.667 4.66699 -53.167 14 -79.5s22.333 -51 39 -74s36 -43.667 58 -62s45.333 -32.833 70 -43.5v-80l36 14v66l111 90l-12 14l-48 -39c-18.667 5.33301 -35.667 13 -51 23v317l41 -15zM209 110.002c-31.333 27.333 -54.667 59.5 -70 96.5s-23 76.167 -23 117.5
c0 16 0.666992 28.333 2 37s3.83301 16 7.5 22s9.16699 11.833 16.5 17.5s19 13.167 35 22.5l32 -10v-303z" />
    <glyph glyph-name="sterling" unicode="&#xa3;" horiz-adv-x="463" 
d="M30 276l10.998 -9.00391c11.333 13.333 36.333 20 75 20c22.667 0 37.667 -0.333008 45 -1c6 -14 10.833 -27.167 14.5 -39.5s5.5 -24.833 5.5 -37.5c0 -34 -15 -61 -45 -81c-7.33301 3.33301 -17 5 -29 5c-4 0 -8.33301 -1 -13 -3s-10.834 -5.83301 -18.501 -11.5
s-17.334 -14 -29.001 -25s-27.167 -26.5 -46.5 -46.5l13 -15c14.667 16.667 29.334 25 44.001 25c10 0 28.5 -4.16699 55.5 -12.5s60.167 -19.5 99.5 -33.5l86 -28.5s30.333 -8.5 37 -8.5c6 0 11.5 0.833008 16.5 2.5s11.667 5.16699 20 10.5s18.833 13.333 31.5 24l60 50
l-11 15c-14.667 -10 -25.5 -16.833 -32.5 -20.5s-13.5 -5.5 -19.5 -5.5c-8 0 -17.5 1.33301 -28.5 4s-28.833 8 -53.5 16l-161 53l55.5 47c13 11.333 22.667 21 29 29s10.5 15.833 12.5 23.5s3 17.5 3 29.5s-1.33301 23.333 -4 34h112l51 60l-12 8
c-9.33301 -9.33301 -16.5 -15.333 -21.5 -18s-12.167 -4 -21.5 -4h-120l-32.5 76.5c-9 21.667 -15.833 38.834 -20.5 51.501s-8 23.334 -10 32.001s-3 16.334 -3 23.001c0 16.667 3.5 30.167 10.5 40.5s23.833 25.5 50.5 45.5c3.33301 -7.33301 13.333 -18.666 30 -33.999
s42.334 -36 77.001 -62c8 -6 12 -12.667 12 -20s-8.66699 -22 -26 -44l15 -10c32.667 40 53.834 67.5 63.501 82.5s14.5 26.5 14.5 34.5c0 6 -1.83301 11.5 -5.5 16.5s-11.167 11.5 -22.5 19.5c-58.667 42 -91 70 -97 84l-115 -84
c-27.333 -20.667 -47.166 -37.167 -59.499 -49.5s-20.333 -22.166 -24 -29.499s-5.5 -15.666 -5.5 -24.999c0 -14.667 3.16699 -31.334 9.5 -50.001s19.833 -51.334 40.5 -98.001h-65z" />
    <glyph glyph-name="currency" unicode="&#xa4;" horiz-adv-x="500" 
d="M48 90l51.999 51.999c20.667 -16.667 43.834 -29.5 69.501 -38.5s52.5 -13.5 80.5 -13.5s54.833 4.5 80.5 13.5s48.834 21.833 69.501 38.5l52 -52l42 42l-52 53c34.667 43.333 52 93 52 149c0 28 -4.5 54.833 -13.5 80.5s-21.833 48.834 -38.5 69.501l52 52l-42 42
l-52 -52c-43.333 34.667 -93.333 52 -150 52c-28 0 -54.833 -4.5 -80.5 -13.5s-48.834 -21.833 -69.501 -38.5l-52 52l-42 -42l52 -52c-34.667 -43.333 -52 -93.333 -52 -150s17.333 -106.667 52 -150l-52 -52zM71.999 333.999c0 24 4.66699 46.833 14 68.5
s22.166 40.834 38.499 57.501s35.333 29.5 57 38.5s44.5 13.5 68.5 13.5s46.833 -4.5 68.5 -13.5s40.834 -21.833 57.501 -38.5s29.5 -35.834 38.5 -57.501s13.5 -44.5 13.5 -68.5s-4.5 -46.833 -13.5 -68.5s-21.833 -40.667 -38.5 -57s-35.834 -29.166 -57.501 -38.499
s-44.5 -14 -68.5 -14s-46.833 4.66699 -68.5 14s-40.667 22.166 -57 38.499s-29.166 35.333 -38.499 57s-14 44.5 -14 68.5z" />
    <glyph glyph-name="yen" unicode="&#xa5;" horiz-adv-x="500" 
d="M202 168h-118.998l-26 -36h145v-78c0 -8.66699 -0.5 -17.667 -1.5 -27s-2.5 -17 -4.5 -23l-34 -15l8 -18l124 50v111h120l26 36h-146v74h120l26 36h-132c12.667 28.667 27 59.167 43 91.5s32.667 64.166 50 95.499l52 91c17.333 29.333 33.666 55.666 48.999 78.999
c-10 0.666992 -22.167 2.33398 -36.5 5.00098s-28.333 5.83398 -42 9.50098s-26.167 7.66699 -37.5 12s-19.666 7.83301 -24.999 10.5l-81 -79l12 -13l16 15c14.667 -6 31.667 -12 51 -18s37.666 -10.667 54.999 -14l-68.5 -133c-23.667 -48 -45.5 -94.333 -65.5 -139
c-7.33301 17.333 -17.333 36.333 -30 57l-53 83c-33.333 50 -58.833 90.833 -76.5 122.5s-28.167 58.834 -31.5 81.501l23 22l-13 15l-62 -59c-10.667 -10 -17.834 -17.833 -21.501 -23.5s-5.5 -10.834 -5.5 -15.501c0 -5.33301 2 -13.166 6 -23.499s12 -25.833 24 -46.5
s29.833 -49.334 53.5 -86.001l93.5 -140h-104l-26 -36h145v-74z" />
    <glyph glyph-name="brokenbar" unicode="&#xa6;" horiz-adv-x="222" 
d="M78 -11h66v268h-66v-268zM78 451h66v268h-66v-268z" />
    <glyph glyph-name="section" unicode="&#xa7;" horiz-adv-x="444" 
d="M139 150l-45.5039 -51.002c-9 -10 -16 -18.167 -21 -24.5s-8.33301 -11.166 -10 -14.499s-2.5 -6 -2.5 -8c0 -2.66699 4.5 -8.16699 13.5 -16.5s20.5 -17.666 34.5 -27.999s29.667 -20.166 47 -29.499s34.333 -16.666 51 -21.999c9.33301 6 22 17 38 33s28 29.667 36 41
c38.667 30.667 64.834 55.167 78.501 73.5s20.5 35.833 20.5 52.5c0 17.333 -5.16699 32.833 -15.5 46.5s-23.833 24.5 -40.5 32.5c32 32 53.5 55.667 64.5 71s16.5 29.333 16.5 42s-1.66699 23 -5 31s-10.166 16.167 -20.499 24.5s-25.333 17.833 -45 28.5
s-48.834 25.334 -87.501 44.001c-36 17.333 -61.333 32.833 -76 46.5s-22 28.5 -22 44.5c0 14 4.33301 28.167 13 42.5s21 26.833 37 37.5l58 -41c14.667 -10 22 -17.667 22 -23s-4.33301 -11.666 -13 -18.999l13 -11l57 55c8 7.33301 13.333 13.166 16 17.499
s4 8.16602 4 11.499c0 2.66699 -0.833008 5.5 -2.5 8.5s-5.5 7 -11.5 12s-16 12.667 -30 23s-32.333 23.166 -55 38.499c-45.333 -34.667 -79.666 -61.834 -102.999 -81.501s-40.833 -36 -52.5 -49s-19.334 -24.167 -23.001 -33.5s-5.5 -20.333 -5.5 -33
c0 -14 3.33301 -26.5 10 -37.5s19.667 -24.833 39 -41.5c-20 -18.667 -35.167 -33.667 -45.5 -45s-18.166 -20.833 -23.499 -28.5s-8.66602 -14.167 -9.99902 -19.5s-2 -12 -2 -20c0 -18.667 8 -36.334 24 -53.001s48.667 -36 98 -58c31.333 -14 56 -26.167 74 -36.5
s31.333 -19.666 40 -27.999s14.334 -16 17.001 -23s4 -15.833 4 -26.5c0 -18 -13.667 -40.333 -41 -67c-16 3.33301 -31.333 8.33301 -46 15s-27.5 14 -38.5 22s-19.667 15.5 -26 22.5s-9.5 12.167 -9.5 15.5c0 6.66699 5.66699 15.667 17 27zM272.996 360.998
c19.333 -10 33.332 -20.333 41.999 -31s13 -22 13 -34c0 -15.333 -8.33301 -32 -25 -50l-137 71c-19.333 10 -33.166 20.333 -41.499 31s-12.5 21.334 -12.5 32.001c0 17.333 9 34.666 27 51.999z" />
    <glyph glyph-name="dieresis" unicode="&#xa8;" horiz-adv-x="241" 
d="M-27 610l54 -57l74 69l-56 59zM140 610l54 -57l74 69l-56 59z" />
    <glyph glyph-name="copyright" unicode="&#xa9;" horiz-adv-x="800" 
d="M557 536c0 7.33301 -14.5 14.999 -43.5 22.999s-59.5 12 -91.5 12c-70.667 0 -126.5 -19.5 -167.5 -58.5s-61.5 -89.5 -61.5 -151.5c0 -66 18.833 -118.5 56.5 -157.5s93.167 -58.5 166.5 -58.5c35.333 0 67 3.83301 95 11.5s43.333 16.834 46 27.501l17 74h-18
c-10 -26 -25 -46.333 -45 -61s-47.333 -22 -82 -22c-49.333 0 -87.333 17.333 -114 52s-40 80.667 -40 138c0 51.333 12.833 93.5 38.5 126.5s61.167 49.5 106.5 49.5c40 0 69.333 -8.33301 88 -25s29 -38 31 -64h18v84zM35 353.999c0 -49.333 9.33301 -96.166 28 -140.499
s45 -83.5 79 -117.5s73.167 -60.333 117.5 -79s91.166 -28 140.499 -28s96.333 9.33301 141 28s83.834 45 117.501 79s59.834 73.167 78.501 117.5s28 91.166 28 140.499s-9.33301 96.333 -28 141s-44.834 83.834 -78.501 117.501s-72.834 59.834 -117.501 78.501
s-91.667 28 -141 28s-96.166 -9.33301 -140.499 -28s-83.5 -44.834 -117.5 -78.501s-60.333 -72.834 -79 -117.501s-28 -91.667 -28 -141zM101 353.999c0 43.333 7.5 83.833 22.5 121.5s36 70.167 63 97.5s58.833 48.5 95.5 63.5s76 22.5 118 22.5s81.333 -7.5 118 -22.5
s68.5 -36.167 95.5 -63.5s48 -59.833 63 -97.5s22.5 -78.167 22.5 -121.5s-7.5 -83.833 -22.5 -121.5s-36 -70.167 -63 -97.5s-58.833 -48.5 -95.5 -63.5s-76 -22.5 -118 -22.5s-81.333 7.5 -118 22.5s-68.5 36.167 -95.5 63.5s-48 59.833 -63 97.5
s-22.5 78.167 -22.5 121.5z" />
    <glyph glyph-name="ordfeminine" unicode="&#xaa;" horiz-adv-x="277" 
d="M35 580l8 -8.00391c14 11.333 26.333 17 37 17c11.333 0 19.333 -6.66699 24 -20l22 -65l-64 -45.5c-16.667 -12.333 -29.834 -22.833 -39.501 -31.5s-16.167 -15.667 -19.5 -21s-5 -10.666 -5 -15.999c0 -18.667 4 -33 12 -43s17 -15 27 -15c24.667 0 66 27.333 124 82
c4 -11.333 10.5 -25.666 19.5 -42.999s16.833 -30.333 23.5 -39c10.667 7.33301 22.5 15 35.5 23s26.167 15.667 39.5 23l-6 10l-18 -10c-12 13.333 -25 36.833 -39 70.5s-28 74.834 -42 123.501c-12 42 -28 63 -48 63c-5.33301 0 -11.166 -1.66699 -17.499 -5
s-15.833 -9.66602 -28.5 -18.999zM133 491.996c0 -0.666992 0.333984 -1.33301 1.00098 -2c4 -13.333 7.5 -24.333 10.5 -33s5.83301 -16 8.5 -22c-9.33301 -14.667 -19.833 -26.167 -31.5 -34.5s-22.834 -12.5 -33.501 -12.5c-16 0 -24 9.66699 -24 29
c0 10 2.16699 18 6.5 24s13.833 14.667 28.5 26z" />
    <glyph glyph-name="guillemotleft" unicode="&#xab;" horiz-adv-x="407" 
d="M228 148c-14.667 18 -30.833 36.5 -48.5 55.5l-59.5 62.5c38.667 38.667 74.667 77 108 115l-28 29l-80.5 -84l-75.5 -74l72 -73.5c24.667 -26.333 46 -50.5 64 -72.5zM363.001 148c-14.667 18 -30.833 36.5 -48.5 55.5l-59.5 62.5c38.667 38.667 74.667 77 108 115
l-28 29l-80.5 -84l-75.5 -74l72 -73.5c24.667 -26.333 46 -50.5 64 -72.5z" />
    <glyph glyph-name="logicalnot" unicode="&#xac;" horiz-adv-x="600" 
d="M487 108h66v278h-506v-66h440v-212z" />
    <glyph glyph-name="minus" unicode="&#xad;" horiz-adv-x="600" 
d="M47 220h506v66h-506v-66z" />
    <glyph glyph-name="minus" unicode="&#x2212;" horiz-adv-x="600" 
d="M47 220h506v66h-506v-66z" />
    <glyph glyph-name="registered" unicode="&#xae;" horiz-adv-x="800" 
d="M272 224c0 -16 -4.33203 -26.666 -12.999 -31.999s-21 -8 -37 -8v-18h174v18c-18.667 0 -32 2.5 -40 7.5s-12 15.833 -12 32.5v113h41l78 -119c12 -18.667 22.667 -32 32 -40s18 -12 26 -12h78v18c-12 1.33301 -22.833 5.66602 -32.5 12.999s-21.5 21.333 -35.5 42
l-74 109c26.667 8.66699 48 23 64 43s24 43.333 24 70c0 32 -11.833 56.333 -35.5 73s-52.834 25 -87.501 25h-200v-18c15.333 0 27.5 -2.5 36.5 -7.5s13.5 -14.167 13.5 -27.5v-282zM344.001 535.001h49.999c22.667 0 40.834 -6.33301 54.501 -19s20.5 -33 20.5 -61
c0 -29.333 -6 -52.333 -18 -69s-30.333 -25 -55 -25h-52v174zM35 354.001c0 -49.333 9.33301 -96.166 28 -140.499s45 -83.5 79 -117.5s73.167 -60.333 117.5 -79s91.166 -28 140.499 -28s96.333 9.33301 141 28s83.834 45 117.501 79s59.834 73.167 78.501 117.5
s28 91.166 28 140.499s-9.33301 96.333 -28 141s-44.834 83.834 -78.501 117.501s-72.834 59.834 -117.501 78.501s-91.667 28 -141 28s-96.166 -9.33301 -140.499 -28s-83.5 -44.834 -117.5 -78.501s-60.333 -72.834 -79 -117.501s-28 -91.667 -28 -141zM101 354.001
c0 43.333 7.5 83.833 22.5 121.5s36 70.167 63 97.5s58.833 48.5 95.5 63.5s76 22.5 118 22.5s81.333 -7.5 118 -22.5s68.5 -36.167 95.5 -63.5s48 -59.833 63 -97.5s22.5 -78.167 22.5 -121.5s-7.5 -83.833 -22.5 -121.5s-36 -70.167 -63 -97.5s-58.833 -48.5 -95.5 -63.5
s-76 -22.5 -118 -22.5s-81.333 7.5 -118 22.5s-68.5 36.167 -95.5 63.5s-48 59.833 -63 97.5s-22.5 78.167 -22.5 121.5z" />
    <glyph glyph-name="macron" unicode="&#xaf;" horiz-adv-x="241" 
d="M-36 583h266l47 60h-269z" />
    <glyph glyph-name="degree" unicode="&#xb0;" horiz-adv-x="400" 
d="M58 493c0 -38.667 14 -72 42 -100s61.333 -42 100 -42s72 14 100 42s42 61.333 42 100s-14 72 -42 100s-61.333 42 -100 42s-72 -14 -100 -42s-42 -61.333 -42 -100zM108 493c0 25.333 9 47 27 65s39.667 27 65 27s47 -9 65 -27s27 -39.667 27 -65s-9 -47 -27 -65
s-39.667 -27 -65 -27s-47 9 -65 27s-27 39.667 -27 65z" />
    <glyph glyph-name="plusminus" unicode="&#xb1;" horiz-adv-x="600" 
d="M267 104h66v168h220v66h-220v168h-66v-168h-220v-66h220v-168zM47 0h506v66h-506v-66z" />
    <glyph glyph-name="twosuperior" unicode="&#xb2;" horiz-adv-x="265" 
d="M6 554l9 -11.001l70 46c36 -16 61 -30.5 75 -43.5s21 -29.833 21 -50.5c0 -16.667 -4.5 -32.167 -13.5 -46.5s-26.5 -33.833 -52.5 -58.5l-57.5 -55c-11 -10.667 -20 -20.167 -27 -28.5s-12.167 -15.666 -15.5 -21.999s-6.33301 -14.166 -9 -23.499
c8.66699 2.66699 20.334 4 35.001 4c15.333 0 40.666 -3 75.999 -9s61.666 -9.33301 78.999 -10l63 64l-13 8l-14 -15c-15.333 0 -38 2.66699 -68 8c-34 6 -61 9 -81 9c4.66699 14 12.834 27.167 24.501 39.5s28.167 27.166 49.5 44.499c28 24 49 44.5 63 61.5
s21 35.833 21 56.5c0 16 -3.5 30.5 -10.5 43.5s-17.833 23.5 -32.5 31.5l-67 38z" />
    <glyph glyph-name="threesuperior" unicode="&#xb3;" horiz-adv-x="277" 
d="M10 300c17.333 -19.333 35.001 -33.168 53.001 -41.501s37 -12.5 57 -12.5c17.333 0 32 2.66699 44 8s23.333 13.666 34 24.999c18 10 32.833 23 44.5 39s17.5 31.667 17.5 47c0 24.667 -8.83301 45.834 -26.5 63.501s-42.167 29.834 -73.5 36.501
c31.333 22 51.166 38.667 59.499 50s12.5 25 12.5 41c0 9.33301 -3.66699 19.5 -11 30.5s-17.666 19.833 -30.999 26.5l-41 22l-124 -81l9 -13l69 45c26.667 -11.333 45.5 -22 56.5 -32s16.5 -21 16.5 -33s-7.83301 -24.833 -23.5 -38.5s-38.834 -28.834 -69.501 -45.501
v-10c36 0 65.167 -10.667 87.5 -32s33.5 -42.666 33.5 -63.999c0 -30 -16.333 -45 -49 -45c-16.667 0 -34 4.83301 -52 14.5s-30.333 20.167 -37 31.5l12 9l-7 8z" />
    <glyph glyph-name="acute" unicode="&#xb4;" horiz-adv-x="241" 
d="M74 544l168 123l-3 12l-92 21l-102 -147z" />
    <glyph glyph-name="mu" unicode="&#xb5;" 
d="M307 98l-38.9961 -27.0029c-26 10 -45.5 18.333 -58.5 25s-22.667 13 -29 19s-10.333 12.333 -12 19s-2.5 16.334 -2.5 29.001v219c0 16.667 0.666992 36.334 2 59.001c-16 22.667 -35.333 40 -58 52l-108 -81l11 -14l24 18c10 -6.66699 17.167 -12.5 21.5 -17.5
s7.66602 -11.833 9.99902 -20.5s3.83301 -20.834 4.5 -36.501s1 -39.167 1 -70.5v-142c0 -57.333 -0.166992 -103.333 -0.5 -138s-1 -61.667 -2 -81s-2 -34.333 -3 -45s-2.16699 -19 -3.5 -25l-34 -14l7 -16l124 46v168c16 -14.667 35.333 -26.334 58 -35.001
c8 11.333 19.5 24.333 34.5 39s32.5 30.667 52.5 48c1.33301 -13.333 6.66602 -26.666 15.999 -39.999s25.666 -29 48.999 -47l107 82l-14 15l-20 -15c-21.333 16.667 -34.333 28.834 -39 36.501s-7 18.834 -7 33.501v241c0 16.667 0.666992 36.334 2 59.001
c-16 22.667 -35.333 40 -58 52l-108 -81l11 -14l24 18c10 -6.66699 17.167 -12.5 21.5 -17.5s7.66602 -11.833 9.99902 -20.5s3.83301 -20.834 4.5 -36.501s1 -39.167 1 -70.5v-173z" />
    <glyph glyph-name="paragraph" unicode="&#xb6;" horiz-adv-x="574" 
d="M327 693l-0.000976562 -57.9961h-133c-46.667 0 -84.834 -11.667 -114.501 -35s-44.5 -59.666 -44.5 -108.999c0 -41.333 6.83301 -77.5 20.5 -108.5s33.334 -57 59.001 -78s56.167 -37.667 91.5 -50s75.666 -21.166 120.999 -26.499v-118
c0 -40.667 -0.5 -78.334 -1.5 -113.001s-2.16699 -59.334 -3.5 -74.001l-15 -8l8 -15l52 23v682h68v-463c0 -40.667 -0.5 -78.334 -1.5 -113.001s-2.16699 -59.334 -3.5 -74.001l-15 -8l8 -15l52 23v650h33l38 30l-7 8c-8.66699 -3.33301 -16.167 -5.5 -22.5 -6.5
s-13.166 -1.5 -20.499 -1.5h-21c0.666992 17.333 1.33398 36.666 2.00098 57.999c0 21.333 0.333008 40.666 1 57.999l-43 -26v-90h-68l3 84zM326.999 254.004c-49.333 8 -90.333 28.832 -123 62.499s-49 80.834 -49 141.501c0 98 37 147 111 147h61v-351z" />
    <glyph glyph-name="periodcentered" unicode="&#xb7;" horiz-adv-x="250" 
d="M59 304c0 -18 6.5 -33.5 19.5 -46.5s28.5 -19.5 46.5 -19.5s33.5 6.5 46.5 19.5s19.5 28.5 19.5 46.5s-6.5 33.5 -19.5 46.5s-28.5 19.5 -46.5 19.5s-33.5 -6.5 -46.5 -19.5s-19.5 -28.5 -19.5 -46.5z" />
    <glyph glyph-name="periodcentered" unicode="&#x2219;" horiz-adv-x="250" 
d="M59 304c0 -18 6.5 -33.5 19.5 -46.5s28.5 -19.5 46.5 -19.5s33.5 6.5 46.5 19.5s19.5 28.5 19.5 46.5s-6.5 33.5 -19.5 46.5s-28.5 19.5 -46.5 19.5s-33.5 -6.5 -46.5 -19.5s-19.5 -28.5 -19.5 -46.5z" />
    <glyph glyph-name="cedilla" unicode="&#xb8;" horiz-adv-x="241" 
d="M80 -89c19.333 -6 35.167 -12.833 47.5 -20.5s18.5 -15.834 18.5 -24.501c0 -19.333 -23.333 -42 -70 -68l18 -18c82.667 48.667 124 91.334 124 128.001c0 20.667 -23.667 39 -71 55l35 48h-30z" />
    <glyph glyph-name="onesuperior" unicode="&#xb9;" horiz-adv-x="192" 
d="M-3 564l8 -15.999l74 39v-159c0 -62.667 -0.5 -105.167 -1.5 -127.5s-2.5 -37.5 -4.5 -45.5l-22 -9l5 -11l90 27c-0.666992 9.33301 -1 25 -1 47v175c0 21.333 0.666992 53.666 2 96.999l1 48l-16 6z" />
    <glyph glyph-name="ordmasculine" unicode="&#xba;" horiz-adv-x="277" 
d="M71 584c-26.667 -18.667 -43.832 -33 -51.499 -43s-11.5 -23.333 -11.5 -40c0 -36.667 11.167 -70.334 33.5 -101.001s52.166 -53.334 89.499 -68.001c16.667 10.667 33.5 23.834 50.5 39.501s32 31.5 45 47.5s23.333 31 31 45s11.5 25.667 11.5 35
c0 32 -7 57.833 -21 77.5s-36.333 34.834 -67 45.501l-36 13zM104.002 583c34.667 -10.667 60.833 -24.1641 78.5 -40.4971s26.5 -40.166 26.5 -71.499c0 -16.667 -3.83301 -32.334 -11.5 -47.001s-17.5 -27.334 -29.5 -38.001c-24.667 9.33301 -46.5 28.166 -65.5 56.499
s-28.5 59.166 -28.5 92.499c0 10 1 17.667 3 23s6.33301 10.333 13 15z" />
    <glyph glyph-name="guillemotright" unicode="&#xbb;" horiz-adv-x="407" 
d="M179 368c14.667 -18 30.833 -36.5 48.5 -55.5l59.5 -62.5c-38.667 -38.667 -74.667 -77 -108 -115l28 -29l80.5 84l75.5 74l-72 73.5c-24.667 26.333 -46 50.5 -64 72.5zM43.999 368c14.667 -18 30.833 -36.5 48.5 -55.5l59.5 -62.5
c-38.667 -38.667 -74.667 -77 -108 -115l28 -29l80.5 84l75.5 74l-72 73.5c-24.667 26.333 -46 50.5 -64 72.5z" />
    <glyph glyph-name="onequarter" unicode="&#xbc;" horiz-adv-x="750" 
d="M641 5v91.002h40l32 30l-6 5c-11.333 -0.666992 -22.5 -1.16699 -33.5 -1.5s-21.833 -0.5 -32.5 -0.5v137c0 21.333 0.333008 40.666 1 57.999s1.66699 34 3 50l-15 5c-11.333 -10 -25.5 -20.667 -42.5 -32s-32.833 -20 -47.5 -26
c-10 -36.667 -25.667 -74.167 -47 -112.5s-45.333 -73.166 -72 -104.499l6 -8c21.333 0.666992 52.333 1 93 1c28.667 0 49 -0.333008 61 -1v-7c-0.666992 -16.667 -1.5 -32.834 -2.5 -48.501s-2.5 -29.834 -4.5 -42.501l-22 -9l5 -11zM474 129.002
c22 31.333 41.832 64 59.499 98s32.834 67 45.501 99l2 -2v-195h-107zM171.999 51.002c-10.667 -22 -22 -39.001 -34 -51.001l7 -11l63 23l284 577c8 16.667 16.333 28.334 25 35.001l-5 11l-66 -26zM-3.00098 564.001l8 -15.999l74 39v-159
c0 -62.667 -0.5 -105.167 -1.5 -127.5s-2.5 -37.5 -4.5 -45.5l-22 -9l5 -11l90 27c-0.666992 9.33301 -1 25 -1 47v175c0 21.333 0.666992 53.666 2 96.999l1 48l-16 6z" />
    <glyph glyph-name="onehalf" unicode="&#xbd;" horiz-adv-x="750" 
d="M172 51c-10.667 -22 -22 -39.001 -34 -51.001l7 -11l63 23l284 577c8 16.667 16.333 28.334 25 35.001l-5 11l-66 -26zM431 296.999l9 -11.001l70 46c36 -16 61 -30.5 75 -43.5s21 -29.833 21 -50.5c0 -16.667 -4.5 -32.167 -13.5 -46.5s-26.5 -33.833 -52.5 -58.5
l-57.5 -55c-11 -10.667 -20 -20.167 -27 -28.5s-12.167 -15.666 -15.5 -21.999s-6.33301 -14.166 -9 -23.499c8.66699 2.66699 20.334 4 35.001 4c15.333 0 40.666 -3 75.999 -9c35.333 -6.66699 61.666 -10 78.999 -10l63 64l-13 8l-14 -15c-15.333 0 -38 2.66699 -68 8
c-34 6 -61 9 -81 9c4.66699 14 12.834 27.167 24.501 39.5s28.167 27.166 49.5 44.499c28 24 49 44.5 63 61.5s21 35.833 21 56.5c0 16 -3.5 30.5 -10.5 43.5s-17.833 23.5 -32.5 31.5l-67 38zM-3 563.998l8 -15.999l74 39v-159c0 -62.667 -0.5 -105.167 -1.5 -127.5
s-2.5 -37.5 -4.5 -45.5l-22 -9l5 -11l90 27c-0.666992 9.33301 -1 25 -1 47v175c0 21.333 0.666992 53.666 2 96.999l1 48l-16 6z" />
    <glyph glyph-name="threequarters" unicode="&#xbe;" horiz-adv-x="750" 
d="M641 7v89.002h40l32 30l-6 5c-11.333 -0.666992 -22.5 -1.16699 -33.5 -1.5s-21.833 -0.5 -32.5 -0.5v137c0 21.333 0.333008 40.666 1 57.999s1.66699 34 3 50l-15 5c-11.333 -10 -25.5 -20.667 -42.5 -32s-32.833 -20 -47.5 -26
c-10 -36.667 -25.667 -74.167 -47 -112.5s-45.333 -73.166 -72 -104.499l6 -8c21.333 0.666992 52.333 1 93 1c28.667 0 49 -0.333008 61 -1v-7c-0.666992 -16.667 -1.5 -32.834 -2.5 -48.501s-2.5 -29.834 -4.5 -42.501l-21 -9l4 -10zM474 129.002
c22 31.333 41.832 64 59.499 98s32.834 67 45.501 99l2 -2v-195h-107zM213.999 51.002c-10.667 -22 -22 -39.001 -34 -51.001l7 -11l63 23l284 577c8 16.667 16.333 28.334 25 35.001l-5 11l-66 -26zM9.99902 300.001c17.333 -19.333 35.001 -33.168 53.001 -41.501
s37 -12.5 57 -12.5c17.333 0 32 2.66699 44 8s23.333 13.666 34 24.999c18 10 32.833 23 44.5 39s17.5 31.667 17.5 47c0 24.667 -8.83301 45.834 -26.5 63.501s-42.167 29.834 -73.5 36.501c31.333 22 51.166 38.667 59.499 50s12.5 25 12.5 41
c0 9.33301 -3.66699 19.5 -11 30.5s-17.666 19.833 -30.999 26.5l-41 22l-124 -81l9 -13l69 45c26.667 -11.333 45.5 -22 56.5 -32s16.5 -21 16.5 -33s-7.83301 -24.833 -23.5 -38.5s-38.834 -28.834 -69.501 -45.501v-10c36 0 65.167 -10.667 87.5 -32
s33.5 -42.666 33.5 -63.999c0 -30 -16.333 -45 -49 -45c-16.667 0 -34 4.83301 -52 14.5s-30.333 20.167 -37 31.5l12 9l-7 8z" />
    <glyph glyph-name="questiondown" unicode="&#xbf;" horiz-adv-x="333" 
d="M311 -57l-16 14.001l-67 -62l-51 32c-16.667 10 -28.667 22 -36 36s-11 29 -11 45c0 13.333 4 27.666 12 42.999s20.333 35.333 37 60c16.667 25.333 29.167 46 37.5 62s12.5 31.333 12.5 46c0 9.33301 -2.16699 19.666 -6.5 30.999s-10.166 22 -17.499 32l-28 -22
c10.667 -14.667 16 -29.667 16 -45c0 -12 -5.33301 -27.5 -16 -46.5s-26.667 -44.5 -48 -76.5c-24.667 -37.333 -43.334 -67.666 -56.001 -90.999s-19 -43.333 -19 -60c0 -26.667 7.83301 -49 23.5 -67s46.167 -39.333 91.5 -64zM264 435.001l-56 62l-86 -80l56 -62z" />
    <glyph glyph-name="Agrave" unicode="&#xc0;" horiz-adv-x="648" 
d="M196 873l-3 -12l168 -123l29 9l-102 147zM660 71l-13 13l-27 -18c-18 12.667 -34.333 30.834 -49 54.501s-30.667 57.167 -48 100.5l-173 436c-12 10 -26.833 19.833 -44.5 29.5s-35.834 18.167 -54.501 25.5l-118 -90l15 -14l29 22l50 -24c12 -6 21 -11.333 27 -16
s10.333 -9.16699 13 -13.5s5.33398 -10.833 8.00098 -19.5c-42 -114 -86.333 -213.833 -133 -299.5s-101.667 -168.5 -165 -248.5l12 -9c9.33301 11.333 18.666 17 27.999 17c8 0 20.833 -2.33301 38.5 -7s41.167 -11.667 70.5 -21l92 91l-13 13
c-12.667 -12 -21.667 -18 -27 -18c-4 0 -11.833 1.66699 -23.5 5s-35.834 11 -72.501 23l54.5 82c15.667 24.667 26.5 43.334 32.5 56.001c14.667 -0.666992 27.667 -1.33398 39 -2.00098c35.333 -2.66699 59.333 -4 72 -4c14.667 0 25.334 1.16699 32.001 3.5
s14.334 8.16602 23.001 17.499l43 45l64 -161c12 -29.333 26.333 -57.5 43 -84.5s33.667 -49.167 51 -66.5zM375 314c-26 -2 -52.334 -3.00098 -79.001 -3.00098c-12 0 -30 0.666992 -54 2c-23.333 -28 -45.666 -49.333 -66.999 -64l-2 1c16 26.667 32.333 56.334 49 89.001
l67 136l12 25z" />
    <glyph glyph-name="Aacute" unicode="&#xc1;" horiz-adv-x="648" 
d="M268 738l168 123l-3 12l-92 21l-102 -147zM660 71l-13 13l-27 -18c-18 12.667 -34.333 30.834 -49 54.501s-30.667 57.167 -48 100.5l-173 436c-12 10 -26.833 19.833 -44.5 29.5s-35.834 18.167 -54.501 25.5l-118 -90l15 -14l29 22l50 -24c12 -6 21 -11.333 27 -16
s10.333 -9.16699 13 -13.5s5.33398 -10.833 8.00098 -19.5c-42 -114 -86.333 -213.833 -133 -299.5s-101.667 -168.5 -165 -248.5l12 -9c9.33301 11.333 18.666 17 27.999 17c8 0 20.833 -2.33301 38.5 -7s41.167 -11.667 70.5 -21l92 91l-13 13
c-12.667 -12 -21.667 -18 -27 -18c-4 0 -11.833 1.66699 -23.5 5s-35.834 11 -72.501 23l54.5 82c15.667 24.667 26.5 43.334 32.5 56.001c14.667 -0.666992 27.667 -1.33398 39 -2.00098c35.333 -2.66699 59.333 -4 72 -4c14.667 0 25.334 1.16699 32.001 3.5
s14.334 8.16602 23.001 17.499l43 45l64 -161c12 -29.333 26.333 -57.5 43 -84.5s33.667 -49.167 51 -66.5zM375 314c-26 -2 -52.334 -3.00098 -79.001 -3.00098c-12 0 -30 0.666992 -54 2c-23.333 -28 -45.666 -49.333 -66.999 -64l-2 1c16 26.667 32.333 56.334 49 89.001
l67 136l12 25z" />
    <glyph glyph-name="Acircumflex" unicode="&#xc2;" horiz-adv-x="648" 
d="M188 757l29 -19l76 86l95 -86l53 42l-127 114h-7zM660 71l-13 13l-27 -18c-18 12.667 -34.333 30.834 -49 54.501s-30.667 57.167 -48 100.5l-173 436c-12 10 -26.833 19.833 -44.5 29.5s-35.834 18.167 -54.501 25.5l-118 -90l15 -14l29 22l50 -24
c12 -6 21 -11.333 27 -16s10.333 -9.16699 13 -13.5s5.33398 -10.833 8.00098 -19.5c-42 -114 -86.333 -213.833 -133 -299.5s-101.667 -168.5 -165 -248.5l12 -9c9.33301 11.333 18.666 17 27.999 17c8 0 20.833 -2.33301 38.5 -7s41.167 -11.667 70.5 -21l92 91l-13 13
c-12.667 -12 -21.667 -18 -27 -18c-4 0 -11.833 1.66699 -23.5 5s-35.834 11 -72.501 23l54.5 82c15.667 24.667 26.5 43.334 32.5 56.001c14.667 -0.666992 27.667 -1.33398 39 -2.00098c35.333 -2.66699 59.333 -4 72 -4c14.667 0 25.334 1.16699 32.001 3.5
s14.334 8.16602 23.001 17.499l43 45l64 -161c12 -29.333 26.333 -57.5 43 -84.5s33.667 -49.167 51 -66.5zM375 314c-26 -2 -52.334 -3.00098 -79.001 -3.00098c-12 0 -30 0.666992 -54 2c-23.333 -28 -45.666 -49.333 -66.999 -64l-2 1c16 26.667 32.333 56.334 49 89.001
l67 136l12 25z" />
    <glyph glyph-name="Atilde" unicode="&#xc3;" horiz-adv-x="648" 
d="M444 858c-12 -16.667 -21.168 -27.833 -27.501 -33.5s-12.5 -8.5 -18.5 -8.5c-6.66699 0 -15.334 2 -26.001 6l-99 38c-8 2.66699 -15.667 4 -23 4c-6 0 -11 -0.833008 -15 -2.5s-9 -5.5 -15 -11.5s-13.167 -14.667 -21.5 -26s-20.166 -28.333 -35.499 -51l23 -13
c6.66699 12 13.834 21.833 21.501 29.5s14.167 11.5 19.5 11.5c2.66699 0 7.66699 -1.33301 15 -4c2 0 3.33301 -0.333008 4 -1l102 -38c12 -4 21.667 -6 29 -6c10.667 0 22.667 6.5 36 19.5s31 36.833 53 71.5zM659.999 71.001l-13 13l-27 -18
c-18 12.667 -34.333 30.834 -49 54.501s-30.667 57.167 -48 100.5l-173 436c-12 10 -26.833 19.833 -44.5 29.5s-35.834 18.167 -54.501 25.5l-118 -90l15 -14l29 22l50 -24c12 -6 21 -11.333 27 -16s10.333 -9.16699 13 -13.5s5.33398 -10.833 8.00098 -19.5
c-42 -114 -86.333 -213.833 -133 -299.5s-101.667 -168.5 -165 -248.5l12 -9c9.33301 11.333 18.666 17 27.999 17c8 0 20.833 -2.33301 38.5 -7s41.167 -11.667 70.5 -21l92 91l-13 13c-12.667 -12 -21.667 -18 -27 -18c-4 0 -11.833 1.66699 -23.5 5
s-35.834 11 -72.501 23l54.5 82c15.667 24.667 26.5 43.334 32.5 56.001c14.667 -0.666992 27.667 -1.33398 39 -2.00098c35.333 -2.66699 59.333 -4 72 -4c14.667 0 25.334 1.16699 32.001 3.5s14.334 8.16602 23.001 17.499l43 45l64 -161
c12 -29.333 26.333 -57.5 43 -84.5s33.667 -49.167 51 -66.5zM374.999 314.001c-26 -2 -52.334 -3.00098 -79.001 -3.00098c-12 0 -30 0.666992 -54 2c-23.333 -28 -45.666 -49.333 -66.999 -64l-2 1c16 26.667 32.333 56.334 49 89.001l67 136l12 25z" />
    <glyph glyph-name="Adieresis" unicode="&#xc4;" horiz-adv-x="648" 
d="M167 804l54 -57l74 69l-56 59zM334 804l54 -57l74 69l-56 59zM660 71l-13 13l-27 -18c-18 12.667 -34.333 30.834 -49 54.501s-30.667 57.167 -48 100.5l-173 436c-12 10 -26.833 19.833 -44.5 29.5s-35.834 18.167 -54.501 25.5l-118 -90l15 -14l29 22l50 -24
c12 -6 21 -11.333 27 -16s10.333 -9.16699 13 -13.5s5.33398 -10.833 8.00098 -19.5c-42 -114 -86.333 -213.833 -133 -299.5s-101.667 -168.5 -165 -248.5l12 -9c9.33301 11.333 18.666 17 27.999 17c8 0 20.833 -2.33301 38.5 -7s41.167 -11.667 70.5 -21l92 91l-13 13
c-12.667 -12 -21.667 -18 -27 -18c-4 0 -11.833 1.66699 -23.5 5s-35.834 11 -72.501 23l54.5 82c15.667 24.667 26.5 43.334 32.5 56.001c14.667 -0.666992 27.667 -1.33398 39 -2.00098c35.333 -2.66699 59.333 -4 72 -4c14.667 0 25.334 1.16699 32.001 3.5
s14.334 8.16602 23.001 17.499l43 45l64 -161c12 -29.333 26.333 -57.5 43 -84.5s33.667 -49.167 51 -66.5zM375 314c-26 -2 -52.334 -3.00098 -79.001 -3.00098c-12 0 -30 0.666992 -54 2c-23.333 -28 -45.666 -49.333 -66.999 -64l-2 1c16 26.667 32.333 56.334 49 89.001
l67 136l12 25z" />
    <glyph glyph-name="Aring" unicode="&#xc5;" horiz-adv-x="648" 
d="M214 835c0 -27.333 9.83301 -50.833 29.5 -70.5s43.167 -29.5 70.5 -29.5s50.833 9.83301 70.5 29.5s29.5 43.167 29.5 70.5s-9.83301 50.833 -29.5 70.5s-43.167 29.5 -70.5 29.5s-50.833 -9.83301 -70.5 -29.5s-29.5 -43.167 -29.5 -70.5zM250 835
c0 17.333 6.33301 32.333 19 45s27.667 19 45 19s32.333 -6.33301 45 -19s19 -27.667 19 -45s-6.33301 -32.333 -19 -45s-27.667 -19 -45 -19s-32.333 6.33301 -45 19s-19 27.667 -19 45zM660 71l-13 13l-27 -18c-18 12.667 -34.333 30.834 -49 54.501
s-30.667 57.167 -48 100.5l-173 436c-12 10 -26.833 19.833 -44.5 29.5s-35.834 18.167 -54.501 25.5l-118 -90l15 -14l29 22l50 -24c12 -6 21 -11.333 27 -16s10.333 -9.16699 13 -13.5s5.33398 -10.833 8.00098 -19.5c-42 -114 -86.333 -213.833 -133 -299.5
s-101.667 -168.5 -165 -248.5l12 -9c9.33301 11.333 18.666 17 27.999 17c8 0 20.833 -2.33301 38.5 -7s41.167 -11.667 70.5 -21l92 91l-13 13c-12.667 -12 -21.667 -18 -27 -18c-4 0 -11.833 1.66699 -23.5 5s-35.834 11 -72.501 23l54.5 82
c15.667 24.667 26.5 43.334 32.5 56.001c14.667 -0.666992 27.667 -1.33398 39 -2.00098c35.333 -2.66699 59.333 -4 72 -4c14.667 0 25.334 1.16699 32.001 3.5s14.334 8.16602 23.001 17.499l43 45l64 -161c12 -29.333 26.333 -57.5 43 -84.5s33.667 -49.167 51 -66.5z
M375 314c-26 -2 -52.334 -3.00098 -79.001 -3.00098c-12 0 -30 0.666992 -54 2c-23.333 -28 -45.666 -49.333 -66.999 -64l-2 1c16 26.667 32.333 56.334 49 89.001l67 136l12 25z" />
    <glyph glyph-name="AE" unicode="&#xc6;" horiz-adv-x="907" 
d="M177 630l50 -23.998c12 -6 21 -11.333 27 -16s10.333 -9.16699 13 -13.5s5.33398 -10.833 8.00098 -19.5c-42 -114 -86.333 -213.833 -133 -299.5s-101.667 -168.5 -165 -248.5l12 -9c9.33301 11.333 18.666 17 27.999 17c8 0 20.833 -2.33301 38.5 -7
s41.167 -11.667 70.5 -21l92 91l-13 13c-12.667 -12 -21.667 -18 -27 -18c-4 0 -11.833 1.66699 -23.5 5s-35.834 11 -72.501 23l54.5 82c15.667 24.667 26.5 43.334 32.5 56.001c14.667 -0.666992 27.667 -1.33398 39 -2.00098c35.333 -2.66699 59.333 -4 72 -4
c14.667 0 25.334 1.16699 32.001 3.5s14.334 8.16602 23.001 17.499l43 45c19.333 -58.667 42.5 -108.667 69.5 -150s54.333 -73.833 82 -97.5s52.667 -40.334 75 -50.001s38.833 -14.5 49.5 -14.5c20 0 41.667 8 65 24l168 119l-15 20l-94 -67
c-14 -9.33301 -29.333 -14 -46 -14c-17.333 0 -39.166 7 -65.499 21s-53 33.333 -80 58s-50.833 53.167 -71.5 85.5s-34.667 65.833 -42 100.5c17.333 2 36 3.5 56 4.5s41 1.5 63 1.5c52 0 94.333 -2 127 -6l99 84l-9 15c-12 -6.66699 -23 -11.167 -33 -13.5
s-23.333 -3.5 -40 -3.5c-36.667 0 -93 2 -169 6h-3c-17.333 -17.333 -33 -31.5 -47 -42.5s-29 -20.833 -45 -29.5c-2.66699 13.333 -4.66699 27.833 -6 43.5s-2 29.834 -2 42.501c0 28 6.5 54 19.5 78s28.5 44.333 46.5 61s34.833 29.667 50.5 39s25.5 14 29.5 14
c5.33301 0 13.666 -1.66699 24.999 -5l3 -1l150 -49l118 86l-9 14c-16 -9.33301 -28.333 -14 -37 -14c-4 0 -15 2.33301 -33 7s-36.333 10 -55 16l-86 28c-46 -28 -85.333 -53.333 -118 -76s-59 -42.834 -79 -60.501s-35.5 -33.5 -46.5 -47.5s-19.167 -27.333 -24.5 -40
l-68 169c-12 10 -26.833 19.833 -44.5 29.5s-35.834 18.167 -54.501 25.5l-118 -90l15 -14zM375 314.002c-26 -2 -52.334 -3.00098 -79.001 -3.00098c-12 0 -30 0.666992 -54 2c-23.333 -28 -45.666 -49.333 -66.999 -64l-2 1c16 26.667 32.333 56.334 49 89.001l67 136
l12 25z" />
    <glyph glyph-name="Ccedilla" unicode="&#xc7;" horiz-adv-x="537" 
d="M258 -220c82.667 48.667 124.001 91.3359 124.001 128.003c0 20.667 -23.667 39 -71 55l19 26c7.33301 0.666992 15.833 3.16699 25.5 7.5s21.334 10.666 35.001 18.999s31.5 20.166 53.5 35.499l81 59l-14 16c-48.667 -36.667 -84.334 -55 -107.001 -55
c-16.667 0 -39.834 8.33301 -69.501 25s-59.667 40.334 -90 71.001s-55.666 68.167 -75.999 112.5s-30.5 92.833 -30.5 145.5c0 31.333 6.5 59.666 19.5 84.999s28.5 46.833 46.5 64.5s35 31.334 51 41.001s26 14.5 30 14.5s8.33301 -0.333008 13 -1s11 -2.16699 19 -4.5
s20.667 -6.33301 38 -12l59 -19.5l111 84l-8 14c-12.667 -9.33301 -23 -14 -31 -14s-19.333 2 -34 6s-45.667 13.667 -93 29c-65.333 -40 -118.833 -75.833 -160.5 -107.5s-74 -61.167 -97 -88.5s-39 -54.5 -48 -81.5s-13.5 -56.833 -13.5 -89.5
c0 -34.667 8.33301 -71.334 25 -110.001s38.5 -75.5 65.5 -110.5s55.667 -64.333 86 -88s58.833 -38.5 85.5 -44.5l-58 -81c19.333 -6 35.166 -12.833 47.499 -20.5s18.5 -15.834 18.5 -24.501c0 -19.333 -23.333 -42 -70 -68z" />
    <glyph glyph-name="Egrave" unicode="&#xc8;" horiz-adv-x="574" 
d="M219 873l-3 -12l168 -123l29 9l-102 147zM580 661l-9 14c-16 -9.33301 -28.333 -14 -37 -14c-4 0 -15 2.33301 -33 7s-36.333 10 -55 16l-86 28c-61.333 -36 -112.333 -69.333 -153 -100s-73.334 -59.834 -98.001 -87.501s-42.334 -55.167 -53.001 -82.5s-16 -56 -16 -86
c0 -46.667 10.333 -92.167 31 -136.5s46.834 -83.833 78.501 -118.5s63.834 -62 96.501 -82s60 -30 82 -30c20 0 41.667 8 65 24l168 119l-15 20l-94 -67c-14 -9.33301 -29.333 -14 -46 -14c-17.333 0 -39.166 7 -65.499 21s-53 33.333 -80 58s-50.833 53.167 -71.5 85.5
s-34.667 65.833 -42 100.5c17.333 2 36 3.5 56 4.5s41 1.5 63 1.5c52 0 94.333 -2 127 -6l99 84l-9 15c-12 -6.66699 -23 -11.167 -33 -13.5s-23.333 -3.5 -40 -3.5c-36.667 0 -93 2 -169 6h-3c-17.333 -17.333 -33 -31.5 -47 -42.5s-29 -20.833 -45 -29.5
c-2.66699 13.333 -4.66699 27.833 -6 43.5s-2 29.834 -2 42.501c0 28 6.5 54 19.5 78s28.5 44.333 46.5 61s34.833 29.667 50.5 39s25.5 14 29.5 14c5.33301 0 13.666 -1.66699 24.999 -5l3 -1l150 -49z" />
    <glyph glyph-name="Eacute" unicode="&#xc9;" horiz-adv-x="574" 
d="M291 738l168 123l-3 12l-92 21l-102 -147zM580 661l-9 14c-16 -9.33301 -28.333 -14 -37 -14c-4 0 -15 2.33301 -33 7s-36.333 10 -55 16l-86 28c-61.333 -36 -112.333 -69.333 -153 -100s-73.334 -59.834 -98.001 -87.501s-42.334 -55.167 -53.001 -82.5
s-16 -56 -16 -86c0 -46.667 10.333 -92.167 31 -136.5s46.834 -83.833 78.501 -118.5s63.834 -62 96.501 -82s60 -30 82 -30c20 0 41.667 8 65 24l168 119l-15 20l-94 -67c-14 -9.33301 -29.333 -14 -46 -14c-17.333 0 -39.166 7 -65.499 21s-53 33.333 -80 58
s-50.833 53.167 -71.5 85.5s-34.667 65.833 -42 100.5c17.333 2 36 3.5 56 4.5s41 1.5 63 1.5c52 0 94.333 -2 127 -6l99 84l-9 15c-12 -6.66699 -23 -11.167 -33 -13.5s-23.333 -3.5 -40 -3.5c-36.667 0 -93 2 -169 6h-3c-17.333 -17.333 -33 -31.5 -47 -42.5
s-29 -20.833 -45 -29.5c-2.66699 13.333 -4.66699 27.833 -6 43.5s-2 29.834 -2 42.501c0 28 6.5 54 19.5 78s28.5 44.333 46.5 61s34.833 29.667 50.5 39s25.5 14 29.5 14c5.33301 0 13.666 -1.66699 24.999 -5l3 -1l150 -49z" />
    <glyph glyph-name="Ecircumflex" unicode="&#xca;" horiz-adv-x="574" 
d="M211 757l29 -19l76 86l95 -86l53 42l-127 114h-7zM580 661l-9 14c-16 -9.33301 -28.333 -14 -37 -14c-4 0 -15 2.33301 -33 7s-36.333 10 -55 16l-86 28c-61.333 -36 -112.333 -69.333 -153 -100s-73.334 -59.834 -98.001 -87.501s-42.334 -55.167 -53.001 -82.5
s-16 -56 -16 -86c0 -46.667 10.333 -92.167 31 -136.5s46.834 -83.833 78.501 -118.5s63.834 -62 96.501 -82s60 -30 82 -30c20 0 41.667 8 65 24l168 119l-15 20l-94 -67c-14 -9.33301 -29.333 -14 -46 -14c-17.333 0 -39.166 7 -65.499 21s-53 33.333 -80 58
s-50.833 53.167 -71.5 85.5s-34.667 65.833 -42 100.5c17.333 2 36 3.5 56 4.5s41 1.5 63 1.5c52 0 94.333 -2 127 -6l99 84l-9 15c-12 -6.66699 -23 -11.167 -33 -13.5s-23.333 -3.5 -40 -3.5c-36.667 0 -93 2 -169 6h-3c-17.333 -17.333 -33 -31.5 -47 -42.5
s-29 -20.833 -45 -29.5c-2.66699 13.333 -4.66699 27.833 -6 43.5s-2 29.834 -2 42.501c0 28 6.5 54 19.5 78s28.5 44.333 46.5 61s34.833 29.667 50.5 39s25.5 14 29.5 14c5.33301 0 13.666 -1.66699 24.999 -5l3 -1l150 -49z" />
    <glyph glyph-name="Edieresis" unicode="&#xcb;" horiz-adv-x="574" 
d="M190 804l54 -57l74 69l-56 59zM357 804l54 -57l74 69l-56 59zM580 661l-9 14c-16 -9.33301 -28.333 -14 -37 -14c-4 0 -15 2.33301 -33 7s-36.333 10 -55 16l-86 28c-61.333 -36 -112.333 -69.333 -153 -100s-73.334 -59.834 -98.001 -87.501
s-42.334 -55.167 -53.001 -82.5s-16 -56 -16 -86c0 -46.667 10.333 -92.167 31 -136.5s46.834 -83.833 78.501 -118.5s63.834 -62 96.501 -82s60 -30 82 -30c20 0 41.667 8 65 24l168 119l-15 20l-94 -67c-14 -9.33301 -29.333 -14 -46 -14c-17.333 0 -39.166 7 -65.499 21
s-53 33.333 -80 58s-50.833 53.167 -71.5 85.5s-34.667 65.833 -42 100.5c17.333 2 36 3.5 56 4.5s41 1.5 63 1.5c52 0 94.333 -2 127 -6l99 84l-9 15c-12 -6.66699 -23 -11.167 -33 -13.5s-23.333 -3.5 -40 -3.5c-36.667 0 -93 2 -169 6h-3
c-17.333 -17.333 -33 -31.5 -47 -42.5s-29 -20.833 -45 -29.5c-2.66699 13.333 -4.66699 27.833 -6 43.5s-2 29.834 -2 42.501c0 28 6.5 54 19.5 78s28.5 44.333 46.5 61s34.833 29.667 50.5 39s25.5 14 29.5 14c5.33301 0 13.666 -1.66699 24.999 -5l3 -1l150 -49z" />
    <glyph glyph-name="Igrave" unicode="&#xcc;" horiz-adv-x="296" 
d="M30 873l-3 -12l168 -123l29 9l-102 147zM58 -11l8.00098 -16.9961l132 51v572c0 13.333 0.666992 32.666 2 57.999l-34 32.5c-13.333 12.333 -24 21.166 -32 26.499l-115 -82l11 -14l27 19c28.667 -18.667 43 -35.334 43 -50.001v-400
c0 -33.333 -1.66699 -83.333 -5 -150c-0.666992 -14.667 -1.33398 -25.334 -2.00098 -32.001z" />
    <glyph glyph-name="Iacute" unicode="&#xcd;" horiz-adv-x="296" 
d="M102 738l168 123l-3 12l-92 21l-102 -147zM58 -11l8.00098 -16.9961l132 51v572c0 13.333 0.666992 32.666 2 57.999l-34 32.5c-13.333 12.333 -24 21.166 -32 26.499l-115 -82l11 -14l27 19c28.667 -18.667 43 -35.334 43 -50.001v-400
c0 -33.333 -1.66699 -83.333 -5 -150c-0.666992 -14.667 -1.33398 -25.334 -2.00098 -32.001z" />
    <glyph glyph-name="Icircumflex" unicode="&#xce;" horiz-adv-x="296" 
d="M22 757l29 -19l76 86l95 -86l53 42l-127 114h-7zM58 -11l8.00098 -16.9961l132 51v572c0 13.333 0.666992 32.666 2 57.999l-34 32.5c-13.333 12.333 -24 21.166 -32 26.499l-115 -82l11 -14l27 19c28.667 -18.667 43 -35.334 43 -50.001v-400
c0 -33.333 -1.66699 -83.333 -5 -150c-0.666992 -14.667 -1.33398 -25.334 -2.00098 -32.001z" />
    <glyph glyph-name="Idieresis" unicode="&#xcf;" horiz-adv-x="296" 
d="M1 804l54 -57l74 69l-56 59zM168 804l54 -57l74 69l-56 59zM58 -11l8.00098 -16.9961l132 51v572c0 13.333 0.666992 32.666 2 57.999l-34 32.5c-13.333 12.333 -24 21.166 -32 26.499l-115 -82l11 -14l27 19c28.667 -18.667 43 -35.334 43 -50.001v-400
c0 -33.333 -1.66699 -83.333 -5 -150c-0.666992 -14.667 -1.33398 -25.334 -2.00098 -32.001z" />
    <glyph glyph-name="Eth" unicode="&#xd0;" horiz-adv-x="667" 
d="M104 480l33 -113.999h-74l-30 -40h115c6.66699 -28 10.834 -47.833 12.501 -59.5s2.5 -23.167 2.5 -34.5c0 -16 -1.66699 -30.167 -5 -42.5s-9.33301 -25 -18 -38s-21 -28.167 -37 -45.5s-38 -39.666 -66 -66.999l12 -13c10.667 12 22 18 34 18
c7.33301 0 28.333 -5.66699 63 -17c34.667 -12 64.334 -21.333 89.001 -28s48.334 -10 71.001 -10c20.667 0 49 10.833 85 32.5s72.167 50.834 108.5 87.501s66.666 77.667 90.999 123s36.5 90.666 36.5 135.999c0 51.333 -7.33301 94.5 -22 129.5
s-34.834 63.333 -60.501 85s-55.5 38.5 -89.5 50.5s-73.667 21.667 -119 29c-54 8.66699 -99.333 16.334 -136 23.001s-62.834 11.667 -78.501 15s-25.667 6.16602 -30 8.49902s-6.5 5.16602 -6.5 8.49902c0 4 2.33301 8 7 12l-12 8l-100 -102c10 -4.66699 21.5 -9 34.5 -13
s32.167 -8.5 57.5 -13.5s56.5 -10.833 93.5 -17.5s93.833 -16.334 170.5 -29.001c30 -4.66699 57.167 -12.334 81.5 -23.001s45.666 -25 63.999 -43s32.5 -40.167 42.5 -66.5s15 -57.5 15 -93.5c0 -28 -3.5 -57.167 -10.5 -87.5s-17 -58.5 -30 -84.5s-28.667 -47 -47 -63
s-38.5 -24 -60.5 -24c-20 0 -42.833 2.33301 -68.5 7s-51.167 10.667 -76.5 18c-15.333 4.66699 -29.166 8.5 -41.499 11.5s-31.166 7.83301 -56.499 14.5h-1c22.667 23.333 40.667 42.666 54 57.999s23.666 28.5 30.999 39.5s12.333 20.667 15 29s4 17.5 4 27.5
c0 9.33301 -1.66699 24 -5 44h144l30 40h-185c-1.33301 10 -5 25.833 -11 47.5l-19 69.5c-4 12.667 -7 22.834 -9 30.501s-3 11.834 -3 12.501c0 8 6.66699 17 20 27l-13 13z" />
    <glyph glyph-name="Ntilde" unicode="&#xd1;" horiz-adv-x="648" 
d="M454 858c-12 -16.667 -21.168 -27.833 -27.501 -33.5s-12.5 -8.5 -18.5 -8.5c-6.66699 0 -15.334 2 -26.001 6l-99 38c-8 2.66699 -15.667 4 -23 4c-6 0 -11 -0.833008 -15 -2.5s-9 -5.5 -15 -11.5s-13.167 -14.667 -21.5 -26s-20.166 -28.333 -35.499 -51l23 -13
c6.66699 12 13.834 21.833 21.501 29.5s14.167 11.5 19.5 11.5c2.66699 0 7.66699 -1.33301 15 -4c2 0 3.33301 -0.333008 4 -1l102 -38c12 -4 21.667 -6 29 -6c10.667 0 22.667 6.5 36 19.5s31 36.833 53 71.5zM2.99902 630.001l11.001 -14.002l23 14
c6 -0.666992 15.333 -5 28 -13s21.334 -15 26.001 -21c2 -3.33301 3.66699 -11.5 5 -24.5s2.33301 -31.167 3 -54.5c0.666992 -28 1 -78.667 1 -152c0 -75.333 -0.666992 -145.333 -2 -210c0 -32 -0.5 -62.333 -1.5 -91s-2.16699 -49 -3.5 -61l-35 -14l8 -17l132 51v281
c0 47.333 12.167 97.666 36.5 150.999s63.833 108.333 118.5 165c4.66699 -13.333 19.667 -34.333 45 -63c16 -17.333 29.167 -32.666 39.5 -45.999s20.666 -29.333 30.999 -48s18.5 -39.5 24.5 -62.5s9 -48.167 9 -75.5c0 -25.333 -2.5 -48.833 -7.5 -70.5
s-13.167 -43.5 -24.5 -65.5s-26 -45.333 -44 -70s-41 -52.667 -69 -84c21.333 -4.66699 45.166 -11.167 71.499 -19.5s51.833 -17.166 76.5 -26.499l103 78l-12 15c-11.333 -8.66699 -19 -13 -23 -13c-3.33301 0 -11.333 2 -24 6l-4 1l-100 32
c52 60 90.833 111.833 116.5 155.5s38.5 83.5 38.5 119.5c0 42.667 -10.167 82.334 -30.5 119.001s-49.166 78.334 -86.499 125.001c-32 40 -51.667 68.333 -59 85c-17.333 -12 -37.333 -28.333 -60 -49s-45 -42.667 -67 -66s-41.667 -47 -59 -71s-30 -45.667 -38 -65h-2v97
c0 19.333 -0.333008 38 -1 56s-1.33398 31.667 -2.00098 41c-8 7.33301 -20.5 17.166 -37.5 29.499s-31.5 21.5 -43.5 27.5z" />
    <glyph glyph-name="Ograve" unicode="&#xd2;" horiz-adv-x="704" 
d="M234 873l-3 -12l168 -123l29 9l-102 147zM212 603c-63.333 -46 -107.834 -90.001 -133.501 -132.001s-38.5 -88 -38.5 -138c0 -41.333 10.5 -82.5 31.5 -123.5s47.667 -78.167 80 -111.5s65 -59.833 98 -79.5s60.5 -29.5 82.5 -29.5c14 0 39.333 9.83301 76 29.5
s74.667 46.334 114 80.001s72.833 73.5 100.5 119.5s41.5 95.333 41.5 148c0 54.667 -13.167 103.667 -39.5 147s-65.166 79 -116.499 107l-117 63c-10.667 6 -16 10.667 -16 14c0 2.66699 3 6.66699 9 12l-10 10zM565.999 305.999
c0 -38.667 -5.16602 -72.998 -15.499 -102.998s-23.333 -54.667 -39 -74s-32 -33.833 -49 -43.5s-31.833 -14.5 -44.5 -14.5c-24.667 0 -53 7.5 -85 22.5s-63 36.667 -93 65s-54.5 62 -73.5 101s-28.5 81.5 -28.5 127.5c0 29.333 2.66699 54.666 8 75.999
s13.5 40.5 24.5 57.5s25.167 33.333 42.5 49s40.666 34.5 69.999 56.5c14 -10 27.667 -18.5 41 -25.5s35 -17.5 65 -31.5l6 -3c114 -52.667 171 -139.334 171 -260.001z" />
    <glyph glyph-name="Oacute" unicode="&#xd3;" horiz-adv-x="704" 
d="M306 738l168 123l-3 12l-92 21l-102 -147zM212 603c-63.333 -46 -107.834 -90.001 -133.501 -132.001s-38.5 -88 -38.5 -138c0 -41.333 10.5 -82.5 31.5 -123.5s47.667 -78.167 80 -111.5s65 -59.833 98 -79.5s60.5 -29.5 82.5 -29.5c14 0 39.333 9.83301 76 29.5
s74.667 46.334 114 80.001s72.833 73.5 100.5 119.5s41.5 95.333 41.5 148c0 54.667 -13.167 103.667 -39.5 147s-65.166 79 -116.499 107l-117 63c-10.667 6 -16 10.667 -16 14c0 2.66699 3 6.66699 9 12l-10 10zM565.999 305.999
c0 -38.667 -5.16602 -72.998 -15.499 -102.998s-23.333 -54.667 -39 -74s-32 -33.833 -49 -43.5s-31.833 -14.5 -44.5 -14.5c-24.667 0 -53 7.5 -85 22.5s-63 36.667 -93 65s-54.5 62 -73.5 101s-28.5 81.5 -28.5 127.5c0 29.333 2.66699 54.666 8 75.999
s13.5 40.5 24.5 57.5s25.167 33.333 42.5 49s40.666 34.5 69.999 56.5c14 -10 27.667 -18.5 41 -25.5s35 -17.5 65 -31.5l6 -3c114 -52.667 171 -139.334 171 -260.001z" />
    <glyph glyph-name="Ocircumflex" unicode="&#xd4;" horiz-adv-x="704" 
d="M226 757l29 -19l76 86l95 -86l53 42l-127 114h-7zM212 603c-63.333 -46 -107.834 -90.001 -133.501 -132.001s-38.5 -88 -38.5 -138c0 -41.333 10.5 -82.5 31.5 -123.5s47.667 -78.167 80 -111.5s65 -59.833 98 -79.5s60.5 -29.5 82.5 -29.5c14 0 39.333 9.83301 76 29.5
s74.667 46.334 114 80.001s72.833 73.5 100.5 119.5s41.5 95.333 41.5 148c0 54.667 -13.167 103.667 -39.5 147s-65.166 79 -116.499 107l-117 63c-10.667 6 -16 10.667 -16 14c0 2.66699 3 6.66699 9 12l-10 10zM565.999 305.999
c0 -38.667 -5.16602 -72.998 -15.499 -102.998s-23.333 -54.667 -39 -74s-32 -33.833 -49 -43.5s-31.833 -14.5 -44.5 -14.5c-24.667 0 -53 7.5 -85 22.5s-63 36.667 -93 65s-54.5 62 -73.5 101s-28.5 81.5 -28.5 127.5c0 29.333 2.66699 54.666 8 75.999
s13.5 40.5 24.5 57.5s25.167 33.333 42.5 49s40.666 34.5 69.999 56.5c14 -10 27.667 -18.5 41 -25.5s35 -17.5 65 -31.5l6 -3c114 -52.667 171 -139.334 171 -260.001z" />
    <glyph glyph-name="Otilde" unicode="&#xd5;" horiz-adv-x="704" 
d="M482 858c-12 -16.667 -21.168 -27.833 -27.501 -33.5s-12.5 -8.5 -18.5 -8.5c-6.66699 0 -15.334 2 -26.001 6l-99 38c-8 2.66699 -15.667 4 -23 4c-6 0 -11 -0.833008 -15 -2.5s-9 -5.5 -15 -11.5s-13.167 -14.667 -21.5 -26s-20.166 -28.333 -35.499 -51l23 -13
c6.66699 12 13.834 21.833 21.501 29.5s14.167 11.5 19.5 11.5c2.66699 0 7.66699 -1.33301 15 -4c2 0 3.33301 -0.333008 4 -1l102 -38c12 -4 21.667 -6 29 -6c10.667 0 22.667 6.5 36 19.5s31 36.833 53 71.5zM211.999 603.001
c-63.333 -46 -107.834 -90.001 -133.501 -132.001s-38.5 -88 -38.5 -138c0 -41.333 10.5 -82.5 31.5 -123.5s47.667 -78.167 80 -111.5s65 -59.833 98 -79.5s60.5 -29.5 82.5 -29.5c14 0 39.333 9.83301 76 29.5s74.667 46.334 114 80.001s72.833 73.5 100.5 119.5
s41.5 95.333 41.5 148c0 54.667 -13.167 103.667 -39.5 147s-65.166 79 -116.499 107l-117 63c-10.667 6 -16 10.667 -16 14c0 2.66699 3 6.66699 9 12l-10 10zM565.998 306c0 -38.667 -5.16602 -72.998 -15.499 -102.998s-23.333 -54.667 -39 -74s-32 -33.833 -49 -43.5
s-31.833 -14.5 -44.5 -14.5c-24.667 0 -53 7.5 -85 22.5s-63 36.667 -93 65s-54.5 62 -73.5 101s-28.5 81.5 -28.5 127.5c0 29.333 2.66699 54.666 8 75.999s13.5 40.5 24.5 57.5s25.167 33.333 42.5 49s40.666 34.5 69.999 56.5c14 -10 27.667 -18.5 41 -25.5
s35 -17.5 65 -31.5l6 -3c114 -52.667 171 -139.334 171 -260.001z" />
    <glyph glyph-name="Odieresis" unicode="&#xd6;" horiz-adv-x="704" 
d="M205 804l54 -57l74 69l-56 59zM372 804l54 -57l74 69l-56 59zM212 603c-63.333 -46 -107.834 -90.001 -133.501 -132.001s-38.5 -88 -38.5 -138c0 -41.333 10.5 -82.5 31.5 -123.5s47.667 -78.167 80 -111.5s65 -59.833 98 -79.5s60.5 -29.5 82.5 -29.5
c14 0 39.333 9.83301 76 29.5s74.667 46.334 114 80.001s72.833 73.5 100.5 119.5s41.5 95.333 41.5 148c0 54.667 -13.167 103.667 -39.5 147s-65.166 79 -116.499 107l-117 63c-10.667 6 -16 10.667 -16 14c0 2.66699 3 6.66699 9 12l-10 10zM565.999 305.999
c0 -38.667 -5.16602 -72.998 -15.499 -102.998s-23.333 -54.667 -39 -74s-32 -33.833 -49 -43.5s-31.833 -14.5 -44.5 -14.5c-24.667 0 -53 7.5 -85 22.5s-63 36.667 -93 65s-54.5 62 -73.5 101s-28.5 81.5 -28.5 127.5c0 29.333 2.66699 54.666 8 75.999
s13.5 40.5 24.5 57.5s25.167 33.333 42.5 49s40.666 34.5 69.999 56.5c14 -10 27.667 -18.5 41 -25.5s35 -17.5 65 -31.5l6 -3c114 -52.667 171 -139.334 171 -260.001z" />
    <glyph glyph-name="multiply" unicode="&#xd7;" horiz-adv-x="600" 
d="M118 25l182 182l182 -182l46 46l-182 182l182 182l-46 46l-182 -182l-182 182l-46 -46l182 -182l-182 -182z" />
    <glyph glyph-name="Oslash" unicode="&#xd8;" horiz-adv-x="704" 
d="M490 501c50.667 -49.333 76.002 -114.332 76.002 -194.999c0 -38.667 -5.16699 -73 -15.5 -103s-23.333 -54.667 -39 -74s-32 -33.833 -49 -43.5s-31.833 -14.5 -44.5 -14.5c-24.667 0 -53.334 7.66699 -86.001 23s-63.334 36.666 -92.001 63.999zM214.002 186.001
c-23.333 28 -41.832 58.833 -55.499 92.5s-20.5 69.834 -20.5 108.501c0 29.333 2.66699 54.666 8 75.999s13.5 40.5 24.5 57.5s25.167 33.333 42.5 49s40.666 34.5 69.999 56.5c14 -10 27.667 -18.5 41 -25.5s35 -17.5 65 -31.5l6 -3c28 -13.333 50.667 -27 68 -41z
M525.003 610.001c-6 4 -11.666 7.33301 -16.999 10l-117 63c-10.667 6 -16 10.667 -16 14c0 2.66699 3 6.66699 9 12l-10 10l-162 -116c-63.333 -46 -107.833 -90 -133.5 -132s-38.5 -88 -38.5 -138c0 -40.667 10.167 -81.334 30.5 -122.001s47.166 -78 80.499 -112l-72 -99
l6 -11l40 11l53 73c28 -26 55.833 -46.5 83.5 -61.5s51.167 -22.5 70.5 -22.5c14 0 39.333 9.83301 76 29.5s74.667 46.334 114 80.001s72.833 73.5 100.5 119.5s41.5 95.333 41.5 148c0 45.333 -9.16699 87 -27.5 125s-45.5 70.667 -81.5 98l68 94l-5 8l-40 -8z" />
    <glyph glyph-name="Ugrave" unicode="&#xd9;" horiz-adv-x="685" 
d="M224 873l-3 -12l168 -123l29 9l-102 147zM484 136l-39.9951 -31.5029c-10.667 -8.33301 -19 -14.333 -25 -18s-11 -6.16699 -15 -7.5s-8.33301 -2 -13 -2c-28 0 -57.5 7 -88.5 21s-59.833 34 -86.5 60s-48 57 -64 93s-24 75 -24 117c0 21.333 2.33301 40.833 7 58.5
s13 36.834 25 57.501s29.5 45 52.5 73s53.833 63 92.5 105c-26 6.66699 -51.833 14.334 -77.5 23.001s-48.834 17.667 -69.501 27l-106 -89l14 -14l26 21c16 -6.66699 34.167 -13.167 54.5 -19.5s41.5 -12.166 63.5 -17.499c-39.333 -44.667 -70 -81 -92 -109
s-38.667 -52 -50 -72s-18.833 -38 -22.5 -54s-5.5 -34.333 -5.5 -55c0 -44.667 9.66699 -86.5 29 -125.5s44.166 -72.5 74.499 -100.5s62.166 -49.667 95.499 -65s63 -23 89 -23c5.33301 0 11.166 1.66699 17.499 5s14.666 8.83301 24.999 16.5s22.5 17.667 36.5 30l77 67.5
v-48c13.333 -14 26.833 -27 40.5 -39s27.167 -22.667 40.5 -32l112 78l-11 16l-23 -16c-24 14 -40.167 26.333 -48.5 37s-12.5 23 -12.5 37v288c0 33.333 0.666992 83 2 149c0.666992 49.333 1 74.333 1 75c-6.66699 8 -16.667 17.833 -30 29.5s-26 21.5 -38 29.5l-115 -81
l13 -15l26 18c10.667 -4.66699 20.5 -11.5 29.5 -20.5s13.5 -17.167 13.5 -24.5v-453z" />
    <glyph glyph-name="Uacute" unicode="&#xda;" horiz-adv-x="685" 
d="M296 738l168 123l-3 12l-92 21l-102 -147zM484 136l-39.9951 -31.5029c-10.667 -8.33301 -19 -14.333 -25 -18s-11 -6.16699 -15 -7.5s-8.33301 -2 -13 -2c-28 0 -57.5 7 -88.5 21s-59.833 34 -86.5 60s-48 57 -64 93s-24 75 -24 117c0 21.333 2.33301 40.833 7 58.5
s13 36.834 25 57.501s29.5 45 52.5 73s53.833 63 92.5 105c-26 6.66699 -51.833 14.334 -77.5 23.001s-48.834 17.667 -69.501 27l-106 -89l14 -14l26 21c16 -6.66699 34.167 -13.167 54.5 -19.5s41.5 -12.166 63.5 -17.499c-39.333 -44.667 -70 -81 -92 -109
s-38.667 -52 -50 -72s-18.833 -38 -22.5 -54s-5.5 -34.333 -5.5 -55c0 -44.667 9.66699 -86.5 29 -125.5s44.166 -72.5 74.499 -100.5s62.166 -49.667 95.499 -65s63 -23 89 -23c5.33301 0 11.166 1.66699 17.499 5s14.666 8.83301 24.999 16.5s22.5 17.667 36.5 30l77 67.5
v-48c13.333 -14 26.833 -27 40.5 -39s27.167 -22.667 40.5 -32l112 78l-11 16l-23 -16c-24 14 -40.167 26.333 -48.5 37s-12.5 23 -12.5 37v288c0 33.333 0.666992 83 2 149c0.666992 49.333 1 74.333 1 75c-6.66699 8 -16.667 17.833 -30 29.5s-26 21.5 -38 29.5l-115 -81
l13 -15l26 18c10.667 -4.66699 20.5 -11.5 29.5 -20.5s13.5 -17.167 13.5 -24.5v-453z" />
    <glyph glyph-name="Ucircumflex" unicode="&#xdb;" horiz-adv-x="685" 
d="M216 757l29 -19l76 86l95 -86l53 42l-127 114h-7zM484 136l-39.9951 -31.5029c-10.667 -8.33301 -19 -14.333 -25 -18s-11 -6.16699 -15 -7.5s-8.33301 -2 -13 -2c-28 0 -57.5 7 -88.5 21s-59.833 34 -86.5 60s-48 57 -64 93s-24 75 -24 117
c0 21.333 2.33301 40.833 7 58.5s13 36.834 25 57.501s29.5 45 52.5 73s53.833 63 92.5 105c-26 6.66699 -51.833 14.334 -77.5 23.001s-48.834 17.667 -69.501 27l-106 -89l14 -14l26 21c16 -6.66699 34.167 -13.167 54.5 -19.5s41.5 -12.166 63.5 -17.499
c-39.333 -44.667 -70 -81 -92 -109s-38.667 -52 -50 -72s-18.833 -38 -22.5 -54s-5.5 -34.333 -5.5 -55c0 -44.667 9.66699 -86.5 29 -125.5s44.166 -72.5 74.499 -100.5s62.166 -49.667 95.499 -65s63 -23 89 -23c5.33301 0 11.166 1.66699 17.499 5
s14.666 8.83301 24.999 16.5s22.5 17.667 36.5 30l77 67.5v-48c13.333 -14 26.833 -27 40.5 -39s27.167 -22.667 40.5 -32l112 78l-11 16l-23 -16c-24 14 -40.167 26.333 -48.5 37s-12.5 23 -12.5 37v288c0 33.333 0.666992 83 2 149c0.666992 49.333 1 74.333 1 75
c-6.66699 8 -16.667 17.833 -30 29.5s-26 21.5 -38 29.5l-115 -81l13 -15l26 18c10.667 -4.66699 20.5 -11.5 29.5 -20.5s13.5 -17.167 13.5 -24.5v-453z" />
    <glyph glyph-name="Udieresis" unicode="&#xdc;" horiz-adv-x="685" 
d="M195 804l54 -57l74 69l-56 59zM362 804l54 -57l74 69l-56 59zM484 136l-39.9951 -31.5029c-10.667 -8.33301 -19 -14.333 -25 -18s-11 -6.16699 -15 -7.5s-8.33301 -2 -13 -2c-28 0 -57.5 7 -88.5 21s-59.833 34 -86.5 60s-48 57 -64 93s-24 75 -24 117
c0 21.333 2.33301 40.833 7 58.5s13 36.834 25 57.501s29.5 45 52.5 73s53.833 63 92.5 105c-26 6.66699 -51.833 14.334 -77.5 23.001s-48.834 17.667 -69.501 27l-106 -89l14 -14l26 21c16 -6.66699 34.167 -13.167 54.5 -19.5s41.5 -12.166 63.5 -17.499
c-39.333 -44.667 -70 -81 -92 -109s-38.667 -52 -50 -72s-18.833 -38 -22.5 -54s-5.5 -34.333 -5.5 -55c0 -44.667 9.66699 -86.5 29 -125.5s44.166 -72.5 74.499 -100.5s62.166 -49.667 95.499 -65s63 -23 89 -23c5.33301 0 11.166 1.66699 17.499 5
s14.666 8.83301 24.999 16.5s22.5 17.667 36.5 30l77 67.5v-48c13.333 -14 26.833 -27 40.5 -39s27.167 -22.667 40.5 -32l112 78l-11 16l-23 -16c-24 14 -40.167 26.333 -48.5 37s-12.5 23 -12.5 37v288c0 33.333 0.666992 83 2 149c0.666992 49.333 1 74.333 1 75
c-6.66699 8 -16.667 17.833 -30 29.5s-26 21.5 -38 29.5l-115 -81l13 -15l26 18c10.667 -4.66699 20.5 -11.5 29.5 -20.5s13.5 -17.167 13.5 -24.5v-453z" />
    <glyph glyph-name="Yacute" unicode="&#xdd;" horiz-adv-x="648" 
d="M278 738l168 123l-3 12l-92 21l-102 -147zM382 618l13.999 -14l22 22c31.333 -12 57.666 -21.167 78.999 -27.5s41.333 -10.5 60 -12.5l-48.5 -102.5l-50.5 -111.5l-50 -117.5l-44 -109.5c-5.33301 14.667 -13.833 33.667 -25.5 57l-40 76.5l-51 90.5l-58.5 97
c-12 19.333 -23.167 39.5 -33.5 60.5s-19.166 40.333 -26.499 58s-13.166 33.334 -17.499 47.001s-6.5 22.834 -6.5 27.501c0 10 10.333 23 31 39l-14 14l-104 -88c-4 -2.66699 -6 -7 -6 -13c0 -10 3 -23.667 9 -41s16.167 -41 30.5 -71s34.5 -68 60.5 -114
s59.667 -102.333 101 -169c24.667 -40 55.667 -110.667 93 -212c-23.333 -59.333 -41.166 -102.333 -53.499 -129s-22.833 -46 -31.5 -58c23.333 -14 44.833 -23.667 64.5 -29s39.5 -8 59.5 -8c33.333 0 55.666 5.66699 66.999 17l58 59l-9 11
c-12 -7.33301 -30.333 -11 -55 -11c-12 0 -27.5 2.66699 -46.5 8s-40.167 13.666 -63.5 24.999l54 138l46 46c-7.33301 11.333 -12 21.333 -14 30c38 94 79.667 188.833 125 284.5s92.333 187.5 141 275.5c-10.667 0.666992 -24.5 2.83398 -41.5 6.50098
s-34.5 8.16699 -52.5 13.5s-34.167 10.666 -48.5 15.999s-24.833 9.66602 -31.5 12.999z" />
    <glyph glyph-name="Thorn" unicode="&#xde;" horiz-adv-x="630" 
d="M223 28c16 -5.33301 33.6621 -8.00098 52.9951 -8.00098c26.667 0 52.834 6.5 78.501 19.5s49.167 30.167 70.5 51.5c45.333 26.667 80.666 57.834 105.999 93.501s38 79.167 38 130.5c0 23.333 -3.5 45 -10.5 65s-16.167 37.833 -27.5 53.5s-23.166 29.5 -35.499 41.5
s-27.833 26 -46.5 42c-17.333 14 -30.666 25.833 -39.999 35.5s-16.666 19.167 -21.999 28.5c-39.333 -30.667 -75.166 -63 -107.499 -97s-58.833 -68.667 -79.5 -104h-2v178c0 19.333 -0.333008 38 -1 56s-1.33398 31.667 -2.00098 41
c-8 7.33301 -20.5 17.166 -37.5 29.499s-31.5 21.5 -43.5 27.5l-111 -82l11 -14l23 14c6 -0.666992 15.333 -5 28 -13s21.334 -15 26.001 -21c2 -3.33301 3.66699 -11.5 5 -24.5s2.33301 -31.167 3 -54.5c0.666992 -28 1 -78.667 1 -152c0 -100 -0.666992 -200 -2 -300
c0 -50 -0.5 -96.5 -1.5 -139.5s-2.16699 -71.167 -3.5 -84.5l-35 -14l8 -17l132 51v408c0 28.667 11 63 33 103s52 80.333 90 121c5.33301 -11.333 23 -29.666 53 -54.999c35.333 -30.667 63 -59.167 83 -85.5s30 -57.833 30 -94.5c0 -44 -11.833 -81 -35.5 -111
s-53.5 -45 -89.5 -45c-33.333 0 -56.666 4.33301 -69.999 13z" />
    <glyph glyph-name="germandbls" unicode="&#xdf;" 
d="M160 418l-0.00292969 180.001c0 32 2 52.167 6 60.5s14.333 12.5 31 12.5c12.667 0 27.667 -5 45 -15s28.333 -22 33 -36l-11 -8l11 -13l94 70c0 10 -3.5 19.5 -10.5 28.5s-16 17 -27 24s-21.667 12.333 -32 16s-18.166 5.5 -23.499 5.5
c-2.66699 0 -11.167 -3.16699 -25.5 -9.5s-30.833 -14.166 -49.5 -23.499s-36.834 -19 -54.501 -29s-30.834 -18.667 -39.501 -26c-16 -12.667 -27.167 -24.834 -33.5 -36.501s-9.5 -24.834 -9.5 -39.501c0 -16 0.333008 -32.833 1 -50.5s1.66699 -36.5 3 -56.5l-73 -50
l9 -14c5.33301 3.33301 10.333 5 15 5c2.66699 0 9 -3 19 -9s20 -12.667 30 -20v-255c0 -57.333 -0.166992 -103.333 -0.5 -138s-1 -61.667 -2 -81s-2 -34.333 -3 -45s-2.16699 -19 -3.5 -25l-34 -14l7 -16l128 46v543l39 25c20 -14.667 40.333 -27.667 61 -39
s44 -22.333 70 -33c-3.33301 -8.66699 -7.66602 -17.167 -12.999 -25.5s-13.166 -18.333 -23.499 -30s-23.666 -25.5 -39.999 -41.5s-37.833 -35.667 -64.5 -59c60.667 -18 107.5 -38.667 140.5 -62s49.5 -53.333 49.5 -90c0 -18.667 -5.16699 -35.667 -15.5 -51
s-25.5 -23 -45.5 -23c-7.33301 0 -15.333 1.5 -24 4.5s-17 6.83301 -25 11.5l-74 -88c15.333 -6.66699 32.333 -10 51 -10c21.333 0 43 8 65 24s41.333 37.333 58 64c22.667 18 40 38.667 52 62s18 47 18 71c0 42 -12.5 74.333 -37.5 97s-63.5 41.667 -115.5 57
c26 22.667 51.333 47.5 76 74.5s45.334 52.5 62.001 76.5c-59.333 24 -109 50.333 -149 79z" />
    <glyph glyph-name="agrave" unicode="&#xe0;" horiz-adv-x="426" 
d="M95 679l-3 -12l168 -123l29 9l-102 147zM412 66c-18.667 22 -38.8359 61.165 -60.5029 117.498s-43.167 124.833 -64.5 205.5c-10 36.667 -20.5 63.167 -31.5 79.5s-23.5 24.5 -37.5 24.5c-7.33301 0 -16.166 -2.83301 -26.499 -8.5s-24.833 -15.834 -43.5 -30.501
l-69 -53l11 -13c10 8.66699 19.833 15.667 29.5 21s18.834 8 27.501 8s16.167 -3.16699 22.5 -9.5s11.166 -14.5 14.499 -24.5l34 -106c-40.667 -30.667 -74.167 -56.834 -100.5 -78.501s-46.333 -39.167 -60 -52.5s-23 -24.666 -28 -33.999s-7.5 -18.333 -7.5 -27
c0 -32 6 -56 18 -72s26 -24 42 -24c19.333 0 44 11.333 74 34s67 56.667 111 102c2.66699 -8 6.83398 -18.667 12.501 -32s11.834 -26.666 18.501 -39.999s13.167 -25.666 19.5 -36.999s11.833 -20 16.5 -26c17.333 12.667 35.833 25.334 55.5 38.001l59.5 37l-9 17z
M222.998 254.998c3.33301 -14 8.33301 -30.833 15 -50.5s12.667 -36.167 18 -49.5c-16 -26 -33.167 -46.5 -51.5 -61.5s-35.5 -22.5 -51.5 -22.5c-26 0 -39 17.667 -39 53c0 18 3.16699 32.333 9.5 43s21.5 25.667 45.5 45z" />
    <glyph glyph-name="aacute" unicode="&#xe1;" horiz-adv-x="426" 
d="M167 544l168 123l-3 12l-92 21l-102 -147zM412 66c-18.667 22 -38.8359 61.165 -60.5029 117.498s-43.167 124.833 -64.5 205.5c-10 36.667 -20.5 63.167 -31.5 79.5s-23.5 24.5 -37.5 24.5c-7.33301 0 -16.166 -2.83301 -26.499 -8.5s-24.833 -15.834 -43.5 -30.501
l-69 -53l11 -13c10 8.66699 19.833 15.667 29.5 21s18.834 8 27.501 8s16.167 -3.16699 22.5 -9.5s11.166 -14.5 14.499 -24.5l34 -106c-40.667 -30.667 -74.167 -56.834 -100.5 -78.501s-46.333 -39.167 -60 -52.5s-23 -24.666 -28 -33.999s-7.5 -18.333 -7.5 -27
c0 -32 6 -56 18 -72s26 -24 42 -24c19.333 0 44 11.333 74 34s67 56.667 111 102c2.66699 -8 6.83398 -18.667 12.501 -32s11.834 -26.666 18.501 -39.999s13.167 -25.666 19.5 -36.999s11.833 -20 16.5 -26c17.333 12.667 35.833 25.334 55.5 38.001l59.5 37l-9 17z
M222.998 254.998c3.33301 -14 8.33301 -30.833 15 -50.5s12.667 -36.167 18 -49.5c-16 -26 -33.167 -46.5 -51.5 -61.5s-35.5 -22.5 -51.5 -22.5c-26 0 -39 17.667 -39 53c0 18 3.16699 32.333 9.5 43s21.5 25.667 45.5 45z" />
    <glyph glyph-name="acircumflex" unicode="&#xe2;" horiz-adv-x="426" 
d="M87 563l29 -19l76 86l95 -86l53 42l-127 114h-7zM412 66c-18.667 22 -38.8359 61.165 -60.5029 117.498s-43.167 124.833 -64.5 205.5c-10 36.667 -20.5 63.167 -31.5 79.5s-23.5 24.5 -37.5 24.5c-7.33301 0 -16.166 -2.83301 -26.499 -8.5
s-24.833 -15.834 -43.5 -30.501l-69 -53l11 -13c10 8.66699 19.833 15.667 29.5 21s18.834 8 27.501 8s16.167 -3.16699 22.5 -9.5s11.166 -14.5 14.499 -24.5l34 -106c-40.667 -30.667 -74.167 -56.834 -100.5 -78.501s-46.333 -39.167 -60 -52.5s-23 -24.666 -28 -33.999
s-7.5 -18.333 -7.5 -27c0 -32 6 -56 18 -72s26 -24 42 -24c19.333 0 44 11.333 74 34s67 56.667 111 102c2.66699 -8 6.83398 -18.667 12.501 -32s11.834 -26.666 18.501 -39.999s13.167 -25.666 19.5 -36.999s11.833 -20 16.5 -26c17.333 12.667 35.833 25.334 55.5 38.001
l59.5 37l-9 17zM222.998 254.998c3.33301 -14 8.33301 -30.833 15 -50.5s12.667 -36.167 18 -49.5c-16 -26 -33.167 -46.5 -51.5 -61.5s-35.5 -22.5 -51.5 -22.5c-26 0 -39 17.667 -39 53c0 18 3.16699 32.333 9.5 43s21.5 25.667 45.5 45z" />
    <glyph glyph-name="atilde" unicode="&#xe3;" horiz-adv-x="426" 
d="M343 664c-12 -16.667 -21.168 -27.833 -27.501 -33.5s-12.5 -8.5 -18.5 -8.5c-6.66699 0 -15.334 2 -26.001 6l-99 38c-8 2.66699 -15.667 4 -23 4c-6 0 -11 -0.833008 -15 -2.5s-9 -5.5 -15 -11.5s-13.167 -14.667 -21.5 -26s-20.166 -28.333 -35.499 -51l23 -13
c6.66699 12 13.834 21.833 21.501 29.5s14.167 11.5 19.5 11.5c2.66699 0 7.66699 -1.33301 15 -4c2 0 3.33301 -0.333008 4 -1l102 -38c12 -4 21.667 -6 29 -6c10.667 0 22.667 6.5 36 19.5s31 36.833 53 71.5zM411.999 66.001
c-18.667 22 -38.8359 61.165 -60.5029 117.498s-43.167 124.833 -64.5 205.5c-10 36.667 -20.5 63.167 -31.5 79.5s-23.5 24.5 -37.5 24.5c-7.33301 0 -16.166 -2.83301 -26.499 -8.5s-24.833 -15.834 -43.5 -30.501l-69 -53l11 -13c10 8.66699 19.833 15.667 29.5 21
s18.834 8 27.501 8s16.167 -3.16699 22.5 -9.5s11.166 -14.5 14.499 -24.5l34 -106c-40.667 -30.667 -74.167 -56.834 -100.5 -78.501s-46.333 -39.167 -60 -52.5s-23 -24.666 -28 -33.999s-7.5 -18.333 -7.5 -27c0 -32 6 -56 18 -72s26 -24 42 -24
c19.333 0 44 11.333 74 34s67 56.667 111 102c2.66699 -8 6.83398 -18.667 12.501 -32s11.834 -26.666 18.501 -39.999s13.167 -25.666 19.5 -36.999s11.833 -20 16.5 -26c17.333 12.667 35.833 25.334 55.5 38.001l59.5 37l-9 17zM222.997 254.999
c3.33301 -14 8.33301 -30.833 15 -50.5s12.667 -36.167 18 -49.5c-16 -26 -33.167 -46.5 -51.5 -61.5s-35.5 -22.5 -51.5 -22.5c-26 0 -39 17.667 -39 53c0 18 3.16699 32.333 9.5 43s21.5 25.667 45.5 45z" />
    <glyph glyph-name="adieresis" unicode="&#xe4;" horiz-adv-x="426" 
d="M66 610l54 -57l74 69l-56 59zM233 610l54 -57l74 69l-56 59zM412 66c-18.667 22 -38.8359 61.165 -60.5029 117.498s-43.167 124.833 -64.5 205.5c-10 36.667 -20.5 63.167 -31.5 79.5s-23.5 24.5 -37.5 24.5c-7.33301 0 -16.166 -2.83301 -26.499 -8.5
s-24.833 -15.834 -43.5 -30.501l-69 -53l11 -13c10 8.66699 19.833 15.667 29.5 21s18.834 8 27.501 8s16.167 -3.16699 22.5 -9.5s11.166 -14.5 14.499 -24.5l34 -106c-40.667 -30.667 -74.167 -56.834 -100.5 -78.501s-46.333 -39.167 -60 -52.5s-23 -24.666 -28 -33.999
s-7.5 -18.333 -7.5 -27c0 -32 6 -56 18 -72s26 -24 42 -24c19.333 0 44 11.333 74 34s67 56.667 111 102c2.66699 -8 6.83398 -18.667 12.501 -32s11.834 -26.666 18.501 -39.999s13.167 -25.666 19.5 -36.999s11.833 -20 16.5 -26c17.333 12.667 35.833 25.334 55.5 38.001
l59.5 37l-9 17zM222.998 254.998c3.33301 -14 8.33301 -30.833 15 -50.5s12.667 -36.167 18 -49.5c-16 -26 -33.167 -46.5 -51.5 -61.5s-35.5 -22.5 -51.5 -22.5c-26 0 -39 17.667 -39 53c0 18 3.16699 32.333 9.5 43s21.5 25.667 45.5 45z" />
    <glyph glyph-name="aring" unicode="&#xe5;" horiz-adv-x="426" 
d="M113 631c0 -27.333 9.83301 -50.833 29.5 -70.5s43.167 -29.5 70.5 -29.5s50.833 9.83301 70.5 29.5s29.5 43.167 29.5 70.5s-9.83301 50.833 -29.5 70.5s-43.167 29.5 -70.5 29.5s-50.833 -9.83301 -70.5 -29.5s-29.5 -43.167 -29.5 -70.5zM149 631
c0 17.333 6.33301 32.333 19 45s27.667 19 45 19s32.333 -6.33301 45 -19s19 -27.667 19 -45s-6.33301 -32.333 -19 -45s-27.667 -19 -45 -19s-32.333 6.33301 -45 19s-19 27.667 -19 45zM412 66c-18.667 22 -38.8359 61.165 -60.5029 117.498s-43.167 124.833 -64.5 205.5
c-10 36.667 -20.5 63.167 -31.5 79.5s-23.5 24.5 -37.5 24.5c-7.33301 0 -16.166 -2.83301 -26.499 -8.5s-24.833 -15.834 -43.5 -30.501l-69 -53l11 -13c10 8.66699 19.833 15.667 29.5 21s18.834 8 27.501 8s16.167 -3.16699 22.5 -9.5s11.166 -14.5 14.499 -24.5l34 -106
c-40.667 -30.667 -74.167 -56.834 -100.5 -78.501s-46.333 -39.167 -60 -52.5s-23 -24.666 -28 -33.999s-7.5 -18.333 -7.5 -27c0 -32 6 -56 18 -72s26 -24 42 -24c19.333 0 44 11.333 74 34s67 56.667 111 102c2.66699 -8 6.83398 -18.667 12.501 -32
s11.834 -26.666 18.501 -39.999s13.167 -25.666 19.5 -36.999s11.833 -20 16.5 -26c17.333 12.667 35.833 25.334 55.5 38.001l59.5 37l-9 17zM222.998 254.998c3.33301 -14 8.33301 -30.833 15 -50.5s12.667 -36.167 18 -49.5c-16 -26 -33.167 -46.5 -51.5 -61.5
s-35.5 -22.5 -51.5 -22.5c-26 0 -39 17.667 -39 53c0 18 3.16699 32.333 9.5 43s21.5 25.667 45.5 45z" />
    <glyph glyph-name="ae" unicode="&#xe6;" horiz-adv-x="574" 
d="M500 71c-28.667 10 -54.9951 24.8311 -78.9951 44.498s-43.667 42.834 -59 69.501l164 130c11.333 8.66699 18.5 15 21.5 19s4.5 8.66699 4.5 14c0 6 -3.5 15.667 -10.5 29s-16 27.333 -27 42s-22.667 29 -35 43s-22.833 24.333 -31.5 31
c-54.667 -42 -106 -85.333 -154 -130l-31 85c-5.33301 14 -12.5 25 -21.5 33s-17.833 12 -26.5 12c-4.66699 0 -9.5 -0.833008 -14.5 -2.5s-12.333 -5.5 -22 -11.5s-22.834 -15.167 -39.501 -27.5l-66 -49.5l11 -17c16 13.333 27.667 22 35 26s14.666 6 21.999 6
c6 0 11.167 -1.33301 15.5 -4s8.83301 -8.16699 13.5 -16.5s10.167 -20.5 16.5 -36.5s15.5 -41 27.5 -75l-168 -149c-8 -6.66699 -14 -15.167 -18 -25.5s-6 -23.5 -6 -39.5c0 -24 5.83301 -43.667 17.5 -59s27.167 -23 46.5 -23c7.33301 0 15.166 1.66699 23.499 5
s19.166 9.5 32.499 18.5s31.166 22.833 53.499 41.5l82.5 71c13.333 -27.333 30.833 -51.166 52.5 -71.499s54.5 -41.833 98.5 -64.5l116 96l-11 14zM114.005 132.998c0 8.66699 1 16 3 22s6.33301 13.167 13 21.5s16.667 18.833 30 31.5l61 56l2 -6l23.5 -61l17.5 -43
c-19.333 -26 -38.5 -46.333 -57.5 -61s-36.5 -22 -52.5 -22c-11.333 0 -20.833 5.83301 -28.5 17.5s-11.5 26.5 -11.5 44.5zM354.005 203.998c-8.66699 16.667 -16.333 35.5 -23 56.5s-10 38.167 -10 51.5c0 18.667 4.5 35.667 13.5 51s24.833 31.333 47.5 48
c24 -24.667 43 -47.5 57 -68.5s21 -36.167 21 -45.5c0 -7.33301 -5.33301 -15 -16 -23z" />
    <glyph glyph-name="ccedilla" unicode="&#xe7;" horiz-adv-x="370" 
d="M346 463l-102.001 29.999l-131 -87c-21.333 -14 -37.166 -25.167 -47.499 -33.5s-18.333 -17 -24 -26s-9.33398 -19 -11.001 -30s-2.5 -27.167 -2.5 -48.5c0 -58.667 17.167 -112.167 51.5 -160.5s77.833 -84.833 130.5 -109.5l-81 -63
c25.333 -11.333 45.333 -23.333 60 -36s22 -23.667 22 -33c0 -19.333 -23.333 -42 -70 -68l18 -18c42 24.667 72.167 46 90.5 64s27.5 35.667 27.5 53c0 20.667 -25.667 44 -77 70l143 112l-11 14l-36 -28c-35.333 14 -65.166 32.833 -89.499 56.5s-43 49 -56 76
s-22 53.5 -27 79.5s-7.5 49.667 -7.5 71c0 14.667 3.16699 26.334 9.5 35.001s20.833 20 43.5 34l107 -34l104 83l-14 13z" />
    <glyph glyph-name="egrave" unicode="&#xe8;" horiz-adv-x="370" 
d="M67 679l-3 -12l168 -123l29 9l-102 147zM289 65c-14 4.66699 -28.499 11.833 -43.499 21.5s-29.333 20.667 -43 33s-25.334 24.666 -35.001 36.999s-16.5 23.833 -20.5 34.5l169 121c10.667 8 17.667 13.833 21 17.5s5 8.5 5 14.5c0 17.333 -7.66699 40.333 -23 69
s-36 55.334 -62 80.001l-113.5 -72c-34.333 -22.667 -62.5 -43 -84.5 -61c-10.667 -8.66699 -18.5 -22.667 -23.5 -42s-7.5 -41.333 -7.5 -66c0 -54 17.5 -105 52.5 -153s81.5 -84.667 139.5 -110l116 93l-10 13zM140.001 208.999c-13.333 41.333 -20 77.334 -20 108.001
c0 28 3.5 48.5 10.5 61.5s23.5 26.5 49.5 40.5c8 -5.33301 16 -13.5 24 -24.5s15.5 -22.833 22.5 -35.5s12.667 -24.334 17 -35.001s6.5 -18.334 6.5 -23.001c0 -9.33301 -2.66699 -15.666 -8 -18.999z" />
    <glyph glyph-name="eacute" unicode="&#xe9;" horiz-adv-x="370" 
d="M139 544l168 123l-3 12l-92 21l-102 -147zM289 65c-14 4.66699 -28.499 11.833 -43.499 21.5s-29.333 20.667 -43 33s-25.334 24.666 -35.001 36.999s-16.5 23.833 -20.5 34.5l169 121c10.667 8 17.667 13.833 21 17.5s5 8.5 5 14.5c0 17.333 -7.66699 40.333 -23 69
s-36 55.334 -62 80.001l-113.5 -72c-34.333 -22.667 -62.5 -43 -84.5 -61c-10.667 -8.66699 -18.5 -22.667 -23.5 -42s-7.5 -41.333 -7.5 -66c0 -54 17.5 -105 52.5 -153s81.5 -84.667 139.5 -110l116 93l-10 13zM140.001 208.999c-13.333 41.333 -20 77.334 -20 108.001
c0 28 3.5 48.5 10.5 61.5s23.5 26.5 49.5 40.5c8 -5.33301 16 -13.5 24 -24.5s15.5 -22.833 22.5 -35.5s12.667 -24.334 17 -35.001s6.5 -18.334 6.5 -23.001c0 -9.33301 -2.66699 -15.666 -8 -18.999z" />
    <glyph glyph-name="ecircumflex" unicode="&#xea;" horiz-adv-x="370" 
d="M59 563l29 -19l76 86l95 -86l53 42l-127 114h-7zM289 65c-14 4.66699 -28.499 11.833 -43.499 21.5s-29.333 20.667 -43 33s-25.334 24.666 -35.001 36.999s-16.5 23.833 -20.5 34.5l169 121c10.667 8 17.667 13.833 21 17.5s5 8.5 5 14.5
c0 17.333 -7.66699 40.333 -23 69s-36 55.334 -62 80.001l-113.5 -72c-34.333 -22.667 -62.5 -43 -84.5 -61c-10.667 -8.66699 -18.5 -22.667 -23.5 -42s-7.5 -41.333 -7.5 -66c0 -54 17.5 -105 52.5 -153s81.5 -84.667 139.5 -110l116 93l-10 13zM140.001 208.999
c-13.333 41.333 -20 77.334 -20 108.001c0 28 3.5 48.5 10.5 61.5s23.5 26.5 49.5 40.5c8 -5.33301 16 -13.5 24 -24.5s15.5 -22.833 22.5 -35.5s12.667 -24.334 17 -35.001s6.5 -18.334 6.5 -23.001c0 -9.33301 -2.66699 -15.666 -8 -18.999z" />
    <glyph glyph-name="edieresis" unicode="&#xeb;" horiz-adv-x="370" 
d="M38 610l54 -57l74 69l-56 59zM205 610l54 -57l74 69l-56 59zM289 65c-14 4.66699 -28.499 11.833 -43.499 21.5s-29.333 20.667 -43 33s-25.334 24.666 -35.001 36.999s-16.5 23.833 -20.5 34.5l169 121c10.667 8 17.667 13.833 21 17.5s5 8.5 5 14.5
c0 17.333 -7.66699 40.333 -23 69s-36 55.334 -62 80.001l-113.5 -72c-34.333 -22.667 -62.5 -43 -84.5 -61c-10.667 -8.66699 -18.5 -22.667 -23.5 -42s-7.5 -41.333 -7.5 -66c0 -54 17.5 -105 52.5 -153s81.5 -84.667 139.5 -110l116 93l-10 13zM140.001 208.999
c-13.333 41.333 -20 77.334 -20 108.001c0 28 3.5 48.5 10.5 61.5s23.5 26.5 49.5 40.5c8 -5.33301 16 -13.5 24 -24.5s15.5 -22.833 22.5 -35.5s12.667 -24.334 17 -35.001s6.5 -18.334 6.5 -23.001c0 -9.33301 -2.66699 -15.666 -8 -18.999z" />
    <glyph glyph-name="igrave" unicode="&#xec;" horiz-adv-x="240" 
d="M2 679l-3 -12l168 -123l29 9l-102 147zM234 71l-11.999 13l-22 -17c-12 10 -20.667 20.167 -26 30.5s-8 23.5 -8 39.5v245c0 16.667 0.666992 36.334 2 59.001c-16 22.667 -35.333 40 -58 52l-108 -81l11 -14l24 18c10 -6.66699 17.167 -12.5 21.5 -17.5
s7.66602 -11.833 9.99902 -20.5s3.83301 -20.834 4.5 -36.501s1 -39.167 1 -70.5c0 -44 -0.333008 -89 -1 -135c-0.666992 -24 -1 -42 -1 -54c0 -18 4 -34 12 -48s22.333 -29 43 -45z" />
    <glyph glyph-name="iacute" unicode="&#xed;" horiz-adv-x="240" 
d="M74 544l168 123l-3 12l-92 21l-102 -147zM234 71l-11.999 13l-22 -17c-12 10 -20.667 20.167 -26 30.5s-8 23.5 -8 39.5v245c0 16.667 0.666992 36.334 2 59.001c-16 22.667 -35.333 40 -58 52l-108 -81l11 -14l24 18c10 -6.66699 17.167 -12.5 21.5 -17.5
s7.66602 -11.833 9.99902 -20.5s3.83301 -20.834 4.5 -36.501s1 -39.167 1 -70.5c0 -44 -0.333008 -89 -1 -135c-0.666992 -24 -1 -42 -1 -54c0 -18 4 -34 12 -48s22.333 -29 43 -45z" />
    <glyph glyph-name="icircumflex" unicode="&#xee;" horiz-adv-x="240" 
d="M-6 563l29 -19l76 86l95 -86l53 42l-127 114h-7zM234 71l-11.999 13l-22 -17c-12 10 -20.667 20.167 -26 30.5s-8 23.5 -8 39.5v245c0 16.667 0.666992 36.334 2 59.001c-16 22.667 -35.333 40 -58 52l-108 -81l11 -14l24 18c10 -6.66699 17.167 -12.5 21.5 -17.5
s7.66602 -11.833 9.99902 -20.5s3.83301 -20.834 4.5 -36.501s1 -39.167 1 -70.5c0 -44 -0.333008 -89 -1 -135c-0.666992 -24 -1 -42 -1 -54c0 -18 4 -34 12 -48s22.333 -29 43 -45z" />
    <glyph glyph-name="idieresis" unicode="&#xef;" horiz-adv-x="240" 
d="M-27 610l54 -57l74 69l-56 59zM140 610l54 -57l74 69l-56 59zM234 71l-11.999 13l-22 -17c-12 10 -20.667 20.167 -26 30.5s-8 23.5 -8 39.5v245c0 16.667 0.666992 36.334 2 59.001c-16 22.667 -35.333 40 -58 52l-108 -81l11 -14l24 18
c10 -6.66699 17.167 -12.5 21.5 -17.5s7.66602 -11.833 9.99902 -20.5s3.83301 -20.834 4.5 -36.501s1 -39.167 1 -70.5c0 -44 -0.333008 -89 -1 -135c-0.666992 -24 -1 -42 -1 -54c0 -18 4 -34 12 -48s22.333 -29 43 -45z" />
    <glyph glyph-name="eth" unicode="&#xf0;" horiz-adv-x="444" 
d="M206 630c-6 8 -9.33008 12.334 -9.99707 13.001l-27 36.5c-7.33301 10.333 -12.666 19.166 -15.999 26.499l28 16l-11 15l-112 -64c7.33301 -14 16.166 -28.167 26.499 -42.5l39.5 -52.5v0l-87 -54v-40l110 67c17.333 -22.667 51.666 -63 102.999 -121l13 -15
c20.667 -23.333 37.667 -52.333 51 -87s20 -71 20 -109c0 -22.667 -6.33301 -48.667 -19 -78s-28.334 -53 -47.001 -71c-101.333 54.667 -152 141.667 -152 261c0 15.333 2 27.5 6 36.5s11.667 18.5 23 28.5l49 43l-13 15l-102 -84
c-16.667 -13.333 -29.334 -29.166 -38.001 -47.499s-13 -35.833 -13 -52.5c0 -60.667 17 -116.667 51 -168c16 -24.667 35.167 -46.667 57.5 -66s46.833 -35 73.5 -47c24.667 18 49.334 39.667 74.001 65s47 51.5 67 78.5s35.833 52.333 47.5 76s17.5 43.167 17.5 58.5
c0 23.333 -1.33301 43.666 -4 60.999s-7.33398 34.5 -14.001 51.5s-16 34.5 -28 52.5s-27.667 38.333 -47 61l-95 110l94 58v40z" />
    <glyph glyph-name="ntilde" unicode="&#xf1;" 
d="M370 664c-12 -16.667 -21.168 -27.833 -27.501 -33.5s-12.5 -8.5 -18.5 -8.5c-6.66699 0 -15.334 2 -26.001 6l-99 38c-8 2.66699 -15.667 4 -23 4c-6 0 -11 -0.833008 -15 -2.5s-9 -5.5 -15 -11.5s-13.167 -14.667 -21.5 -26s-20.166 -28.333 -35.499 -51l23 -13
c6.66699 12 13.834 21.833 21.501 29.5s14.167 11.5 19.5 11.5c2.66699 0 7.66699 -1.33301 15 -4c2 0 3.33301 -0.333008 4 -1l102 -38c12 -4 21.667 -6 29 -6c10.667 0 22.667 6.5 36 19.5s31 36.833 53 71.5zM456.999 69.001c-21.333 16 -34.9971 28.834 -40.9971 38.501
s-9 22.5 -9 38.5c0 29.333 0.166992 57.333 0.5 84s0.833008 50.834 1.5 72.501s1.66699 42.667 3 63s2.66602 36.5 3.99902 48.5l-106 79c-32.667 -26.667 -61 -52 -85 -76s-43 -47.667 -57 -71h-2v36c0 16.667 0.666992 36.334 2 59.001c-16 22.667 -35.333 40 -58 52
l-108 -81l11 -14l24 18c10 -6.66699 17.167 -12.5 21.5 -17.5s7.66602 -11.833 9.99902 -20.5s3.83301 -20.834 4.5 -36.501s1 -39.167 1 -70.5c0 -44 -0.333008 -89 -1 -135c-0.666992 -24 -1 -42 -1 -54c0 -18 4 -34 12 -48s22.333 -29 43 -45l107 82l-12 13l-22 -17
c-12 10 -20.667 20.167 -26 30.5s-8 23.5 -8 39.5v95c0 18.667 1.16699 35.167 3.5 49.5s6.16602 27.833 11.499 40.5s13 25.834 23 39.501s23.333 29.5 40 47.5c2 0 7 -2.5 15 -7.5s16.333 -10.833 25 -17.5s16 -13.5 22 -20.5s9 -12.5 9 -16.5
c0 -46.667 -0.333008 -103 -1 -169c-0.666992 -36.667 -1 -63.334 -1 -80.001c0 -20.667 4.16699 -37.334 12.5 -50.001s26.833 -32.334 55.5 -59.001l105 81l-10 13z" />
    <glyph glyph-name="ograve" unicode="&#xf2;" horiz-adv-x="444" 
d="M104 679l-3 -12l168 -123l29 9l-102 147zM124 409c-21.333 -16.667 -38.168 -30.667 -50.501 -42s-21.833 -21.833 -28.5 -31.5s-11.167 -19.5 -13.5 -29.5s-3.5 -22 -3.5 -36c0 -60.667 17 -116.667 51 -168c16 -24.667 35.167 -46.667 57.5 -66s46.833 -35 73.5 -47
c24.667 18 49.334 39.667 74.001 65s47 51.5 67 78.5s35.833 52.333 47.5 76s17.5 43.167 17.5 58.5c0 51.333 -10.833 93 -32.5 125s-56.167 58.667 -103.5 80l-48 21zM163.998 417c28 -9.33301 51.833 -19.166 71.5 -29.499s37 -23 52 -38s26.5 -33 34.5 -54
s12 -46.167 12 -75.5c0 -28.667 -6.16699 -56 -18.5 -82s-28.166 -48.333 -47.499 -67c-18.667 8 -37 20.333 -55 37s-34.333 36.667 -49 60s-26.334 49.166 -35.001 77.499s-13 57.5 -13 87.5c0 31.333 7 52.333 21 63z" />
    <glyph glyph-name="oacute" unicode="&#xf3;" horiz-adv-x="444" 
d="M176 544l168 123l-3 12l-92 21l-102 -147zM124 409c-21.333 -16.667 -38.168 -30.667 -50.501 -42s-21.833 -21.833 -28.5 -31.5s-11.167 -19.5 -13.5 -29.5s-3.5 -22 -3.5 -36c0 -60.667 17 -116.667 51 -168c16 -24.667 35.167 -46.667 57.5 -66s46.833 -35 73.5 -47
c24.667 18 49.334 39.667 74.001 65s47 51.5 67 78.5s35.833 52.333 47.5 76s17.5 43.167 17.5 58.5c0 51.333 -10.833 93 -32.5 125s-56.167 58.667 -103.5 80l-48 21zM163.998 417c28 -9.33301 51.833 -19.166 71.5 -29.499s37 -23 52 -38s26.5 -33 34.5 -54
s12 -46.167 12 -75.5c0 -28.667 -6.16699 -56 -18.5 -82s-28.166 -48.333 -47.499 -67c-18.667 8 -37 20.333 -55 37s-34.333 36.667 -49 60s-26.334 49.166 -35.001 77.499s-13 57.5 -13 87.5c0 31.333 7 52.333 21 63z" />
    <glyph glyph-name="ocircumflex" unicode="&#xf4;" horiz-adv-x="444" 
d="M96 563l29 -19l76 86l95 -86l53 42l-127 114h-7zM124 409c-21.333 -16.667 -38.168 -30.667 -50.501 -42s-21.833 -21.833 -28.5 -31.5s-11.167 -19.5 -13.5 -29.5s-3.5 -22 -3.5 -36c0 -60.667 17 -116.667 51 -168c16 -24.667 35.167 -46.667 57.5 -66
s46.833 -35 73.5 -47c24.667 18 49.334 39.667 74.001 65s47 51.5 67 78.5s35.833 52.333 47.5 76s17.5 43.167 17.5 58.5c0 51.333 -10.833 93 -32.5 125s-56.167 58.667 -103.5 80l-48 21zM163.998 417c28 -9.33301 51.833 -19.166 71.5 -29.499s37 -23 52 -38
s26.5 -33 34.5 -54s12 -46.167 12 -75.5c0 -28.667 -6.16699 -56 -18.5 -82s-28.166 -48.333 -47.499 -67c-18.667 8 -37 20.333 -55 37s-34.333 36.667 -49 60s-26.334 49.166 -35.001 77.499s-13 57.5 -13 87.5c0 31.333 7 52.333 21 63z" />
    <glyph glyph-name="otilde" unicode="&#xf5;" horiz-adv-x="444" 
d="M352 664c-12 -16.667 -21.168 -27.833 -27.501 -33.5s-12.5 -8.5 -18.5 -8.5c-6.66699 0 -15.334 2 -26.001 6l-99 38c-8 2.66699 -15.667 4 -23 4c-6 0 -11 -0.833008 -15 -2.5s-9 -5.5 -15 -11.5s-13.167 -14.667 -21.5 -26s-20.166 -28.333 -35.499 -51l23 -13
c6.66699 12 13.834 21.833 21.501 29.5s14.167 11.5 19.5 11.5c2.66699 0 7.66699 -1.33301 15 -4c2 0 3.33301 -0.333008 4 -1l102 -38c12 -4 21.667 -6 29 -6c10.667 0 22.667 6.5 36 19.5s31 36.833 53 71.5zM123.999 409.001
c-21.333 -16.667 -38.168 -30.667 -50.501 -42s-21.833 -21.833 -28.5 -31.5s-11.167 -19.5 -13.5 -29.5s-3.5 -22 -3.5 -36c0 -60.667 17 -116.667 51 -168c16 -24.667 35.167 -46.667 57.5 -66s46.833 -35 73.5 -47c24.667 18 49.334 39.667 74.001 65s47 51.5 67 78.5
s35.833 52.333 47.5 76s17.5 43.167 17.5 58.5c0 51.333 -10.833 93 -32.5 125s-56.167 58.667 -103.5 80l-48 21zM163.997 417.001c28 -9.33301 51.833 -19.166 71.5 -29.499s37 -23 52 -38s26.5 -33 34.5 -54s12 -46.167 12 -75.5c0 -28.667 -6.16699 -56 -18.5 -82
s-28.166 -48.333 -47.499 -67c-18.667 8 -37 20.333 -55 37s-34.333 36.667 -49 60s-26.334 49.166 -35.001 77.499s-13 57.5 -13 87.5c0 31.333 7 52.333 21 63z" />
    <glyph glyph-name="odieresis" unicode="&#xf6;" horiz-adv-x="444" 
d="M75 610l54 -57l74 69l-56 59zM242 610l54 -57l74 69l-56 59zM124 409c-21.333 -16.667 -38.168 -30.667 -50.501 -42s-21.833 -21.833 -28.5 -31.5s-11.167 -19.5 -13.5 -29.5s-3.5 -22 -3.5 -36c0 -60.667 17 -116.667 51 -168c16 -24.667 35.167 -46.667 57.5 -66
s46.833 -35 73.5 -47c24.667 18 49.334 39.667 74.001 65s47 51.5 67 78.5s35.833 52.333 47.5 76s17.5 43.167 17.5 58.5c0 51.333 -10.833 93 -32.5 125s-56.167 58.667 -103.5 80l-48 21zM163.998 417c28 -9.33301 51.833 -19.166 71.5 -29.499s37 -23 52 -38
s26.5 -33 34.5 -54s12 -46.167 12 -75.5c0 -28.667 -6.16699 -56 -18.5 -82s-28.166 -48.333 -47.499 -67c-18.667 8 -37 20.333 -55 37s-34.333 36.667 -49 60s-26.334 49.166 -35.001 77.499s-13 57.5 -13 87.5c0 31.333 7 52.333 21 63z" />
    <glyph glyph-name="divide" unicode="&#xf7;" horiz-adv-x="600" 
d="M47 286v-66h506v66h-506zM236 420c0 -17.333 6.33301 -32.333 19 -45s27.667 -19 45 -19s32.333 6.33301 45 19s19 27.667 19 45s-6.33301 32.333 -19 45s-27.667 19 -45 19s-32.333 -6.33301 -45 -19s-19 -27.667 -19 -45zM236 86c0 -17.333 6.33301 -32.333 19 -45
s27.667 -19 45 -19s32.333 6.33301 45 19s19 27.667 19 45s-6.33301 32.333 -19 45s-27.667 19 -45 19s-32.333 -6.33301 -45 -19s-19 -27.667 -19 -45z" />
    <glyph glyph-name="oslash" unicode="&#xf8;" horiz-adv-x="444" 
d="M341 437c-18 14 -38.335 25.667 -61.002 35l-48 21l-108 -84c-21.333 -16.667 -38.166 -30.667 -50.499 -42s-21.833 -21.833 -28.5 -31.5s-11.167 -19.5 -13.5 -29.5s-3.5 -22 -3.5 -36c0 -34 5.66699 -67.167 17 -99.5s27.333 -61.833 48 -88.5l-65 -93v-5l34 5l50 71
c28 -31.333 60.667 -55 98 -71c24.667 18 49.334 39.667 74.001 65s47 51.5 67 78.5s35.833 52.333 47.5 76s17.5 43.167 17.5 58.5c0 64.667 -17.667 114.667 -53 150l53 76l-3 5l-33 -5zM159.998 177c-14 22.667 -24.833 47.333 -32.5 74s-11.5 54 -11.5 82
c0 31.333 7 52.333 21 63l27 21c53.333 -18 93 -39 119 -63zM302.998 331.999c20.667 -28.667 30.999 -66.001 30.999 -112.001c0 -28.667 -6.16699 -56 -18.5 -82s-28.166 -48.333 -47.499 -67c-16 7.33301 -32.167 17.833 -48.5 31.5s-30.833 29.834 -43.5 48.501z" />
    <glyph glyph-name="ugrave" unicode="&#xf9;" 
d="M122 679l-3 -12l168 -123l29 9l-102 147zM307 98l-38.9961 -27.0049c-26 10 -45.5 18.333 -58.5 25s-22.667 13 -29 19s-10.333 12.333 -12 19s-2.5 16.334 -2.5 29.001v219c0 16.667 0.666992 36.334 2 59.001c-16 22.667 -35.333 40 -58 52l-108 -81l11 -14l24 18
c10 -6.66699 17.167 -12.5 21.5 -17.5s7.66602 -11.833 9.99902 -20.5s3.83301 -20.834 4.5 -36.501s1 -39.167 1 -70.5c0 -44 -0.333008 -89 -1 -135c-0.666992 -24 -1 -42 -1 -54c0 -18 9 -34.167 27 -48.5s51.333 -29.166 100 -44.499
c14.667 13.333 31.667 27.833 51 43.5s38.333 30.167 57 43.5c1.33301 -13.333 6.66602 -26.666 15.999 -39.999s25.666 -29 48.999 -47l107 82l-14 15l-20 -15c-21.333 16.667 -34.333 28.834 -39 36.501s-7 18.834 -7 33.501v241c0 16.667 0.666992 36.334 2 59.001
c-16 22.667 -35.333 40 -58 52l-108 -81l11 -14l24 18c10 -6.66699 17.167 -12.5 21.5 -17.5s7.66602 -11.833 9.99902 -20.5s3.83301 -20.834 4.5 -36.501s1 -39.167 1 -70.5v-173z" />
    <glyph glyph-name="uacute" unicode="&#xfa;" 
d="M194 544l168 123l-3 12l-92 21l-102 -147zM307 98l-38.9961 -27.0049c-26 10 -45.5 18.333 -58.5 25s-22.667 13 -29 19s-10.333 12.333 -12 19s-2.5 16.334 -2.5 29.001v219c0 16.667 0.666992 36.334 2 59.001c-16 22.667 -35.333 40 -58 52l-108 -81l11 -14l24 18
c10 -6.66699 17.167 -12.5 21.5 -17.5s7.66602 -11.833 9.99902 -20.5s3.83301 -20.834 4.5 -36.501s1 -39.167 1 -70.5c0 -44 -0.333008 -89 -1 -135c-0.666992 -24 -1 -42 -1 -54c0 -18 9 -34.167 27 -48.5s51.333 -29.166 100 -44.499
c14.667 13.333 31.667 27.833 51 43.5s38.333 30.167 57 43.5c1.33301 -13.333 6.66602 -26.666 15.999 -39.999s25.666 -29 48.999 -47l107 82l-14 15l-20 -15c-21.333 16.667 -34.333 28.834 -39 36.501s-7 18.834 -7 33.501v241c0 16.667 0.666992 36.334 2 59.001
c-16 22.667 -35.333 40 -58 52l-108 -81l11 -14l24 18c10 -6.66699 17.167 -12.5 21.5 -17.5s7.66602 -11.833 9.99902 -20.5s3.83301 -20.834 4.5 -36.501s1 -39.167 1 -70.5v-173z" />
    <glyph glyph-name="ucircumflex" unicode="&#xfb;" 
d="M114 563l29 -19l76 86l95 -86l53 42l-127 114h-7zM307 98l-38.9961 -27.0049c-26 10 -45.5 18.333 -58.5 25s-22.667 13 -29 19s-10.333 12.333 -12 19s-2.5 16.334 -2.5 29.001v219c0 16.667 0.666992 36.334 2 59.001c-16 22.667 -35.333 40 -58 52l-108 -81l11 -14
l24 18c10 -6.66699 17.167 -12.5 21.5 -17.5s7.66602 -11.833 9.99902 -20.5s3.83301 -20.834 4.5 -36.501s1 -39.167 1 -70.5c0 -44 -0.333008 -89 -1 -135c-0.666992 -24 -1 -42 -1 -54c0 -18 9 -34.167 27 -48.5s51.333 -29.166 100 -44.499
c14.667 13.333 31.667 27.833 51 43.5s38.333 30.167 57 43.5c1.33301 -13.333 6.66602 -26.666 15.999 -39.999s25.666 -29 48.999 -47l107 82l-14 15l-20 -15c-21.333 16.667 -34.333 28.834 -39 36.501s-7 18.834 -7 33.501v241c0 16.667 0.666992 36.334 2 59.001
c-16 22.667 -35.333 40 -58 52l-108 -81l11 -14l24 18c10 -6.66699 17.167 -12.5 21.5 -17.5s7.66602 -11.833 9.99902 -20.5s3.83301 -20.834 4.5 -36.501s1 -39.167 1 -70.5v-173z" />
    <glyph glyph-name="udieresis" unicode="&#xfc;" 
d="M93 610l54 -57l74 69l-56 59zM260 610l54 -57l74 69l-56 59zM307 98l-38.9961 -27.0049c-26 10 -45.5 18.333 -58.5 25s-22.667 13 -29 19s-10.333 12.333 -12 19s-2.5 16.334 -2.5 29.001v219c0 16.667 0.666992 36.334 2 59.001c-16 22.667 -35.333 40 -58 52l-108 -81
l11 -14l24 18c10 -6.66699 17.167 -12.5 21.5 -17.5s7.66602 -11.833 9.99902 -20.5s3.83301 -20.834 4.5 -36.501s1 -39.167 1 -70.5c0 -44 -0.333008 -89 -1 -135c-0.666992 -24 -1 -42 -1 -54c0 -18 9 -34.167 27 -48.5s51.333 -29.166 100 -44.499
c14.667 13.333 31.667 27.833 51 43.5s38.333 30.167 57 43.5c1.33301 -13.333 6.66602 -26.666 15.999 -39.999s25.666 -29 48.999 -47l107 82l-14 15l-20 -15c-21.333 16.667 -34.333 28.834 -39 36.501s-7 18.834 -7 33.501v241c0 16.667 0.666992 36.334 2 59.001
c-16 22.667 -35.333 40 -58 52l-108 -81l11 -14l24 18c10 -6.66699 17.167 -12.5 21.5 -17.5s7.66602 -11.833 9.99902 -20.5s3.83301 -20.834 4.5 -36.501s1 -39.167 1 -70.5v-173z" />
    <glyph glyph-name="yacute" unicode="&#xfd;" 
d="M194 544l168 123l-3 12l-92 21l-102 -147zM274 401l14.001 -10.999l22 21c27.333 -14 55.666 -22.667 84.999 -26c-9.33301 -32 -23.5 -72.667 -42.5 -122s-40.5 -101.333 -64.5 -156c-30 62.667 -56.5 122.667 -79.5 180s-43.5 115.333 -61.5 174
c-6.66699 21.333 -15.334 32 -26.001 32c-3.33301 0 -7.66602 -1.16699 -12.999 -3.5s-12.666 -7.16602 -21.999 -14.499s-21.833 -17.833 -37.5 -31.5l-57.5 -52.5l10 -13c10.667 9.33301 19 15.833 25 19.5s11 5.5 15 5.5c3.33301 0 6.66602 -2.83301 9.99902 -8.5
s7.66602 -16.167 12.999 -31.5c2.66699 -8.66699 11.834 -31.5 27.501 -68.5l53.5 -123l55 -119c16.667 -34.333 27.667 -55.5 33 -63.5c-30.667 -62 -67.667 -130 -111 -204c11.333 -3.33301 22.333 -5 33 -5c24.667 0 46.667 4 66 12
c11.333 4.66699 24.166 11.667 38.499 21s31.166 21.666 50.499 36.999l-8 11c-16 -8 -28.667 -13.5 -38 -16.5s-18 -4.5 -26 -4.5c-7.33301 0 -17.666 1 -30.999 3c23.333 59.333 48 115 74 167l42 37l-13 22c52.667 116 106.667 245.333 162 388
c-17.333 1.33301 -35.666 5.66602 -54.999 12.999s-34.333 15 -45 23z" />
    <glyph glyph-name="thorn" unicode="&#xfe;" 
d="M166 -144l0.00195312 339.999c0 25.333 1 45.833 3 61.5s6 30.5 12 44.5s14.667 29 26 45s28 37.333 50 64c8.66699 -18 23.334 -44 44.001 -78c21.333 -34 37.333 -63 48 -87s16 -49.667 16 -77c0 -17.333 -3.5 -35.833 -10.5 -55.5s-15.833 -35.167 -26.5 -46.5
c-32 0 -54 4.66699 -66 14c-22 -22.667 -49 -48 -81 -76c4 -10.667 21.667 -16 53 -16c10.667 0 27.5 7.33301 50.5 22s55.167 41.334 96.5 80.001c23.333 22.667 40.166 43.667 50.499 63s15.5 42.333 15.5 69c0 32.667 -6.83301 63.834 -20.5 93.501
s-33.834 65.5 -60.501 107.5c-20 31.333 -34 54.333 -42 69c-29.333 -21.333 -58 -46.833 -86 -76.5s-51.333 -58.5 -70 -86.5h-2v136c0 100.667 0.666992 175.667 2 225c-16 22.667 -35.333 40 -58 52l-108 -81l11 -14l24 18c10 -6.66699 17.167 -12.5 21.5 -17.5
s7.66602 -11.833 9.99902 -20.5s3.83301 -20.834 4.5 -36.501s1 -39.167 1 -70.5v-392c0 -57.333 -0.166992 -103.333 -0.5 -138s-1 -61.667 -2 -81s-2 -34.333 -3 -45s-2.16699 -19 -3.5 -25l-34 -14l7 -16z" />
    <glyph glyph-name="ydieresis" unicode="&#xff;" 
d="M93 610l54 -57l74 69l-56 59zM260 610l54 -57l74 69l-56 59zM274 401l14.001 -10.999l22 21c27.333 -14 55.666 -22.667 84.999 -26c-9.33301 -32 -23.5 -72.667 -42.5 -122s-40.5 -101.333 -64.5 -156c-30 62.667 -56.5 122.667 -79.5 180s-43.5 115.333 -61.5 174
c-6.66699 21.333 -15.334 32 -26.001 32c-3.33301 0 -7.66602 -1.16699 -12.999 -3.5s-12.666 -7.16602 -21.999 -14.499s-21.833 -17.833 -37.5 -31.5l-57.5 -52.5l10 -13c10.667 9.33301 19 15.833 25 19.5s11 5.5 15 5.5c3.33301 0 6.66602 -2.83301 9.99902 -8.5
s7.66602 -16.167 12.999 -31.5c2.66699 -8.66699 11.834 -31.5 27.501 -68.5l53.5 -123l55 -119c16.667 -34.333 27.667 -55.5 33 -63.5c-30.667 -62 -67.667 -130 -111 -204c11.333 -3.33301 22.333 -5 33 -5c24.667 0 46.667 4 66 12
c11.333 4.66699 24.166 11.667 38.499 21s31.166 21.666 50.499 36.999l-8 11c-16 -8 -28.667 -13.5 -38 -16.5s-18 -4.5 -26 -4.5c-7.33301 0 -17.666 1 -30.999 3c23.333 59.333 48 115 74 167l42 37l-13 22c52.667 116 106.667 245.333 162 388
c-17.333 1.33301 -35.666 5.66602 -54.999 12.999s-34.333 15 -45 23z" />
    <glyph glyph-name="OE" unicode="&#x152;" horiz-adv-x="1074" 
d="M960 576l118 87.0049l-10 13c-14 -9.33301 -26.333 -14 -37 -14c-8 0 -20 2.33301 -36 7l-131 43l-99.5 -64.5c-27 -18.333 -50 -34.833 -69 -49.5s-35.5 -28.834 -49.5 -42.501s-27 -27.834 -39 -42.501c-16.667 26 -35 48.333 -55 67s-45.333 36 -76 52l-97 52
c-7.33301 4.66699 -11 9 -11 13c0 2.66699 3 6.66699 9 12l-11 10l-191 -143c-46 -34.667 -80 -71.334 -102 -110.001s-33 -83 -33 -133c0 -42.667 10.667 -84.834 32 -126.501s48.333 -78.834 81 -111.501s65.5 -58.5 98.5 -77.5s59.833 -28.5 80.5 -28.5
c9.33301 0 25 5.5 47 16.5s46.167 26 72.5 45s52.5 41 78.5 66s48.333 51.167 67 78.5c14 -29.333 31.667 -56.833 53 -82.5s43.333 -47.667 66 -66s43.834 -32.5 63.501 -42.5s35.5 -15 47.5 -15c22.667 0 47.667 10 75 30l158 117l-14 19l-68 -50
c-16.667 -12 -30.667 -20.667 -42 -26s-22 -8 -32 -8c-16.667 0 -37.334 6.16699 -62.001 18.5s-49.834 30 -75.501 53s-48.667 51.167 -69 84.5s-35.166 70.333 -44.499 111c9.33301 0 29 0.666992 59 2c35.333 1.33301 63 2 83 2c12.667 0 32 -0.666992 58 -2
c16.667 -1.33301 29.334 -2 38.001 -2l98 84l-9 13c-11.333 -7.33301 -21.666 -12 -30.999 -14s-29 -3 -59 -3c-32.667 0 -81 1.33301 -145 4c-18.667 -17.333 -36.5 -32.5 -53.5 -45.5s-29.833 -21.167 -38.5 -24.5c-2 12.667 -3.5 26.167 -4.5 40.5s-1.5 29.5 -1.5 45.5
c0 27.333 6.16699 52.833 18.5 76.5s27.333 44 45 61s34.5 30.333 50.5 40s26 14.5 30 14.5s8.16699 -0.5 12.5 -1.5s11.166 -3.16699 20.499 -6.5c1.33301 0 3.66602 -0.666992 6.99902 -2zM555 306.005c0 -36.667 -4.83105 -69.832 -14.498 -99.499s-22 -54.5 -37 -74.5
s-30.333 -35.167 -46 -45.5s-28.834 -15.5 -39.501 -15.5c-24.667 0 -53 7.5 -85 22.5s-63 36.667 -93 65s-54.5 62 -73.5 101s-28.5 81.5 -28.5 127.5c0 29.333 2.66699 54.666 8 75.999s13.5 40.5 24.5 57.5s25.167 33.333 42.5 49s40.666 34.5 69.999 56.5
c6 -6 12.833 -11.833 20.5 -17.5s18.167 -11.5 31.5 -17.5c74 -33.333 129.167 -71.5 165.5 -114.5s54.5 -99.833 54.5 -170.5z" />
    <glyph glyph-name="oe" unicode="&#x153;" horiz-adv-x="667" 
d="M593 71c-28.667 10 -55.001 24.8311 -79.001 44.498s-43.667 42.834 -59 69.501l164 130c11.333 8.66699 18.5 15 21.5 19s4.5 8.66699 4.5 14c0 6 -3.5 15.667 -10.5 29s-16 27.333 -27 42s-22.667 29 -35 43s-22.833 24.333 -31.5 31l-146 -123
c-10 25.333 -29 48 -57 68s-63.333 38.333 -106 55l-108 -84c-21.333 -16.667 -38.166 -30.667 -50.499 -42s-21.833 -21.833 -28.5 -31.5s-11.167 -19.5 -13.5 -29.5s-3.5 -22 -3.5 -36c0 -60.667 17 -116.667 51 -168c16 -24.667 35.167 -46.667 57.5 -66
s46.833 -35 73.5 -47c25.333 18.667 51.833 42.334 79.5 71.001s50.5 56.667 68.5 84c12 -30 32 -58.5 60 -85.5s62.667 -50.167 104 -69.5l116 96l-11 14zM163.999 416.998c28 -9.33301 51.833 -19.166 71.5 -29.499s37 -23 52 -38s26.5 -33 34.5 -54s12 -46.167 12 -75.5
c0 -28.667 -6.16699 -56 -18.5 -82s-28.166 -48.333 -47.499 -67c-18.667 8 -37 20.333 -55 37s-34.333 36.667 -49 60s-26.334 49.166 -35.001 77.499s-13 57.5 -13 87.5c0 31.333 7 52.333 21 63zM448.999 203.998c-8.66699 16.667 -16.333 35.5 -23 56.5
s-10 38.167 -10 51.5c0 22.667 3.33301 40.5 10 53.5s23 28.5 49 46.5c24 -25.333 43 -48.5 57 -69.5s21 -36.167 21 -45.5c0 -7.33301 -5.33301 -15 -16 -23z" />
    <glyph glyph-name="Scaron" unicode="&#x160;" 
d="M241 738h7l119 137l-29 19l-76 -86l-95 86l-53 -42zM38 50c35.333 -22 66.998 -37.6689 94.998 -47.002s54.333 -14 79 -14c14.667 0 27.667 1.83301 39 5.5s24.166 10.834 38.499 21.501s31.666 26.334 51.999 47.001s45.166 48.334 74.499 83.001
c8.66699 10 15.334 22.5 20.001 37.5s7 29.833 7 44.5c0 18.667 -2 34.167 -6 46.5s-12 25.166 -24 38.499s-29.167 27.666 -51.5 42.999s-53.833 35.333 -94.5 60c-27.333 16.667 -49.666 31.334 -66.999 44.001s-30.833 24.334 -40.5 35.001s-16.5 21.167 -20.5 31.5
s-6 21.5 -6 33.5c0 14 5 28.5 15 43.5s21.333 22.5 34 22.5c9.33301 0 22.666 -2.66699 39.999 -8l102 -32l101 88l-12 14l-3 -2c-8.66699 -6.66699 -14.667 -11 -18 -13s-6.66602 -3 -9.99902 -3c-4.66699 0 -10 1 -16 3l-132 39c-42.667 -36.667 -76 -66.334 -100 -89.001
s-42 -41.5 -54 -56.5s-19.833 -27.667 -23.5 -38s-5.5 -21.833 -5.5 -34.5c0 -14.667 2.16699 -28.167 6.5 -40.5s13.333 -25.833 27 -40.5s33.834 -31.334 60.501 -50.001s61.667 -40 105 -64c40.667 -22.667 69.334 -45.667 86.001 -69s25 -48 25 -74
c0 -28.667 -7.33301 -50 -22 -64c-5.33301 -5.33301 -14.166 -9.16602 -26.499 -11.499s-25.5 -3.5 -39.5 -3.5c-20 0 -44 4.66699 -72 14s-51.667 20.333 -71 33l15 17l-15 13z" />
    <glyph glyph-name="scaron" unicode="&#x161;" horiz-adv-x="352" 
d="M177 544h7l119 137l-29 19l-76 -86l-95 86l-53 -42zM15 47c16 -18.667 35.8311 -32.998 59.498 -42.998s46.167 -15 67.5 -15c28 0 52.333 6.5 73 19.5s43.334 36.5 68.001 70.5c21.333 29.333 35.666 51.833 42.999 67.5s11 29.5 11 41.5
c0 20 -9.16699 38.833 -27.5 56.5s-45.166 31.167 -80.499 40.5c-44 12 -74 26.333 -90 43s-24 37.334 -24 62.001c0 6.66699 0.666992 14 2 22c18.667 -8 40.667 -14.833 66 -20.5s52 -10.167 80 -13.5l65 93l-15 8l-10 -15c-15.333 0.666992 -35.666 4.16699 -60.999 10.5
s-47.333 12.5 -66 18.5l-93 -88c-18.667 -17.333 -31.667 -32.5 -39 -45.5s-11 -27.167 -11 -42.5c0 -26 9 -47 27 -63s53 -32.333 105 -49c34.667 -10.667 60 -24.334 76 -41.001s24 -35.334 24 -56.001c0 -4.66699 -0.666992 -10.334 -2 -17.001v-2
c-12.667 -8 -33 -12 -61 -12c-22 0 -44.5 4.16699 -67.5 12.5s-39.167 17.5 -48.5 27.5l15 21l-15 9z" />
    <glyph glyph-name="Ydieresis" unicode="&#x178;" horiz-adv-x="648" 
d="M177 804l54 -57l74 69l-56 59zM344 804l54 -57l74 69l-56 59zM382 618l13.999 -14l22 22c31.333 -12 57.666 -21.167 78.999 -27.5s41.333 -10.5 60 -12.5l-48.5 -102.5l-50.5 -111.5l-50 -117.5l-44 -109.5c-5.33301 14.667 -13.833 33.667 -25.5 57l-40 76.5l-51 90.5
l-58.5 97c-12 19.333 -23.167 39.5 -33.5 60.5s-19.166 40.333 -26.499 58s-13.166 33.334 -17.499 47.001s-6.5 22.834 -6.5 27.501c0 10 10.333 23 31 39l-14 14l-104 -88c-4 -2.66699 -6 -7 -6 -13c0 -10 3 -23.667 9 -41s16.167 -41 30.5 -71s34.5 -68 60.5 -114
s59.667 -102.333 101 -169c24.667 -40 55.667 -110.667 93 -212c-23.333 -59.333 -41.166 -102.333 -53.499 -129s-22.833 -46 -31.5 -58c23.333 -14 44.833 -23.667 64.5 -29s39.5 -8 59.5 -8c33.333 0 55.666 5.66699 66.999 17l58 59l-9 11
c-12 -7.33301 -30.333 -11 -55 -11c-12 0 -27.5 2.66699 -46.5 8s-40.167 13.666 -63.5 24.999l54 138l46 46c-7.33301 11.333 -12 21.333 -14 30c38 94 79.667 188.833 125 284.5s92.333 187.5 141 275.5c-10.667 0.666992 -24.5 2.83398 -41.5 6.50098
s-34.5 8.16699 -52.5 13.5s-34.167 10.666 -48.5 15.999s-24.833 9.66602 -31.5 12.999z" />
    <glyph glyph-name="florin" unicode="&#x192;" horiz-adv-x="426" 
d="M-80 -116c8 -17.333 19.334 -32 34.001 -44s34.334 -22 59.001 -30l80 42.5c27.333 15 50.333 29.167 69 42.5c13.333 10 22.166 18.5 26.499 25.5s7.16602 18.5 8.49902 34.5l41 360h78l53 60l-14 9c-10 -10.667 -18.5 -17.167 -25.5 -19.5s-20.5 -3.5 -40.5 -3.5h-46
l27 214c2 17.333 10 26 24 26c10.667 0 25.167 -4.83301 43.5 -14.5s28.833 -22.167 31.5 -37.5l-10 -7l10 -13l90 65c0 10.667 -3.5 20.5 -10.5 29.5s-15.667 16.833 -26 23.5s-20.166 11.834 -29.499 15.501s-16 5.5 -20 5.5c-2 0 -9.33301 -2.83301 -22 -8.5
s-27.5 -13 -44.5 -22s-34.333 -19 -52 -30s-32.834 -21.5 -45.501 -31.5c-8.66699 -6.66699 -15 -12.167 -19 -16.5s-7.5 -9.83301 -10.5 -16.5s-5.33301 -14.834 -7 -24.501s-3.5 -23.5 -5.5 -41.5l-12 -116h-72l-48 -54l11 -11c10 12.667 22 19 36 19h68l-45 -402
c-2 -18 -4.66699 -29.667 -8 -35s-9.33301 -8 -18 -8c-11.333 0 -25.5 5.83301 -42.5 17.5s-26.833 23.5 -29.5 35.5l11 7l-11 13z" />
    <glyph glyph-name="circumflex" unicode="&#x2c6;" horiz-adv-x="241" 
d="M-6 563l29 -19l76 86l95 -86l53 42l-127 114h-7z" />
    <glyph glyph-name="tilde" unicode="&#x2dc;" horiz-adv-x="241" 
d="M250 664c-12 -16.667 -21.168 -27.833 -27.501 -33.5s-12.5 -8.5 -18.5 -8.5c-6.66699 0 -15.334 2 -26.001 6l-99 38c-8 2.66699 -15.667 4 -23 4c-6 0 -11 -0.833008 -15 -2.5s-9 -5.5 -15 -11.5s-13.167 -14.667 -21.5 -26s-20.166 -28.333 -35.499 -51l23 -13
c6.66699 12 13.834 21.833 21.501 29.5s14.167 11.5 19.5 11.5c2.66699 0 7.66699 -1.33301 15 -4c2 0 3.33301 -0.333008 4 -1l102 -38c12 -4 21.667 -6 29 -6c10.667 0 22.667 6.5 36 19.5s31 36.833 53 71.5z" />
    <glyph glyph-name="endash" unicode="&#x2013;" horiz-adv-x="500" 
d="M0 237l14 -11l13 18h427l46 63l-14 11l-13 -18h-427z" />
    <glyph glyph-name="emdash" unicode="&#x2014;" horiz-adv-x="1000" 
d="M130 237l14 -11l13 18h667l46 63l-14 11l-13 -18h-667z" />
    <glyph glyph-name="quoteleft" unicode="&#x2018;" horiz-adv-x="240" 
d="M180 545l-42 42c-4 4 -6 8.66699 -6 14c0 10.667 4 23 12 37s23.667 34 47 60l-15 14c-36.667 -36.667 -67 -72.5 -91 -107.5s-36 -62.833 -36 -83.5c0 -6 3.66699 -12.667 11 -20l44 -39z" />
    <glyph glyph-name="quoteright" unicode="&#x2019;" horiz-adv-x="240" 
d="M60 629l42 -42c4 -4 6 -8.66699 6 -14c0 -10.667 -4 -23 -12 -37s-23.667 -34 -47 -60l15 -14c36.667 36.667 67 72.667 91 108s36 63 36 83c0 6 -3.66699 12.667 -11 20l-44 39z" />
    <glyph glyph-name="quotesinglbase" unicode="&#x201a;" horiz-adv-x="240" 
d="M60 48l42 -42c4 -4 6 -8.66699 6 -14c0 -10.667 -4 -23 -12 -37s-23.667 -34 -47 -60l15 -14c36.667 36.667 67 72.667 91 108s36 63 36 83c0 6 -3.66699 12.667 -11 20l-44 39z" />
    <glyph glyph-name="quotedblleft" unicode="&#x201c;" horiz-adv-x="407" 
d="M180 545l-42 42c-4 4 -6 8.66699 -6 14c0 10.667 4 23 12 37s23.667 34 47 60l-15 14c-36.667 -36.667 -67 -72.5 -91 -107.5s-36 -62.833 -36 -83.5c0 -6 3.66699 -12.667 11 -20l44 -39zM347 545l-42 42c-4 4 -6 8.66699 -6 14c0 10.667 4 23 12 37s23.667 34 47 60
l-15 14c-36.667 -36.667 -67 -72.5 -91 -107.5s-36 -62.833 -36 -83.5c0 -6 3.66699 -12.667 11 -20l44 -39z" />
    <glyph glyph-name="quotedblright" unicode="&#x201d;" horiz-adv-x="407" 
d="M227 629l42 -42c4 -4 6 -8.66699 6 -14c0 -10.667 -4 -23 -12 -37s-23.667 -34 -47 -60l15 -14c36.667 36.667 67 72.667 91 108s36 63 36 83c0 6 -3.66699 12.667 -11 20l-44 39zM60 629l42 -42c4 -4 6 -8.66699 6 -14c0 -10.667 -4 -23 -12 -37s-23.667 -34 -47 -60
l15 -14c36.667 36.667 67 72.667 91 108s36 63 36 83c0 6 -3.66699 12.667 -11 20l-44 39z" />
    <glyph glyph-name="quotedblbase" unicode="&#x201e;" horiz-adv-x="407" 
d="M227 48l42 -42c4 -4 6 -8.66699 6 -14c0 -10.667 -4 -23 -12 -37s-23.667 -34 -47 -60l15 -14c36.667 36.667 67 72.667 91 108s36 63 36 83c0 6 -3.66699 12.667 -11 20l-44 39zM60 48l42 -42c4 -4 6 -8.66699 6 -14c0 -10.667 -4 -23 -12 -37s-23.667 -34 -47 -60
l15 -14c36.667 36.667 67 72.667 91 108s36 63 36 83c0 6 -3.66699 12.667 -11 20l-44 39z" />
    <glyph glyph-name="dagger" unicode="&#x2020;" horiz-adv-x="463" 
d="M186 612c3.33301 -16 6.16992 -42.1689 8.50293 -78.502s4.16602 -73.5 5.49902 -111.5h-92c-7.33301 0 -15.333 0.333008 -24 1h-23l-35 -53l11 -8c3.33301 3.33301 10.166 5.83301 20.499 7.5s26.166 2.5 47.499 2.5h95v-179c0 -47.333 -0.666992 -96.666 -2 -147.999
s-3.33301 -93.333 -6 -126l8 -6l67 44c-2 58.667 -3.66699 115.167 -5 169.5s-2 102.5 -2 144.5c0 22 0.666992 52.333 2 91v10h92h24c9.33301 -0.666992 18 -1 26 -1l33 51l-10 9c-6 -6 -13.333 -9 -22 -9h-143c0 11.333 0.666992 28.333 2 51s3 45.834 5 69.501
s4.33301 47.667 7 72l6 55.5l-9 6z" />
    <glyph glyph-name="daggerdbl" unicode="&#x2021;" horiz-adv-x="463" 
d="M191 622c2 -16 3.67285 -36.165 5.00586 -60.498s2.66602 -53.833 3.99902 -88.5v-15h-92c-7.33301 0 -15.333 0.333008 -24 1h-23l-35 -53l11 -8c3.33301 3.33301 10.166 5.83301 20.499 7.5s26.166 2.5 47.499 2.5h95c0 -12.667 0.333008 -30.667 1 -54
c0.666992 -22.667 1 -39.667 1 -51c0 -12.667 -0.333008 -31.667 -1 -57s-1 -44.333 -1 -57h-92c-7.33301 0 -15.333 0.333008 -24 1h-23l-35 -53l11 -8c3.33301 3.33301 10.166 5.83301 20.499 7.5s26.166 2.5 47.499 2.5h95l-1 -39
c-0.666992 -44 -1.66699 -82.333 -3 -115s-3 -54.667 -5 -66l10 -6l68 44c-0.666992 26 -1.33398 43.667 -2.00098 53c-2 62 -3.33301 105 -4 129h91h24c9.33301 -0.666992 18 -1 26 -1l33 51l-10 9c-6 -6 -13.333 -9 -22 -9h-141c-1.33301 48 -2 84.333 -2 109
c0 26 0.666992 61.667 2 107v3h90h24c9.33301 -0.666992 18 -1 26 -1l33 51l-10 9c-6 -6 -13.333 -9 -22 -9h-143c2 31.333 4 66.666 6 105.999s4 74.666 6 105.999l-11 6z" />
    <glyph glyph-name="bullet" unicode="&#x2022;" horiz-adv-x="500" 
d="M72 333l143 -155l213 201l-143 155z" />
    <glyph glyph-name="ellipsis" unicode="&#x2026;" horiz-adv-x="1000" 
d="M96 51l57 -62l85 80l-57 62zM429 51l57 -62l85 80l-57 62zM762 51l57 -62l85 80l-57 62z" />
    <glyph glyph-name="perthousand" unicode="&#x2030;" horiz-adv-x="963" 
d="M673 145c0 -32.667 11.168 -62.999 33.501 -90.999s54.166 -49.667 95.499 -65c8 4 17.333 9.83301 28 17.5s21.334 15.834 32.001 24.501l27.5 23c7.66699 6.66699 13.167 11.667 16.5 15c8 8 15.167 21.833 21.5 41.5s9.5 38.834 9.5 57.501
c0 40 -11.833 74.333 -35.5 103s-52.5 50.667 -86.5 66c-30.667 -19.333 -54.834 -35.833 -72.501 -49.5s-31.667 -27.334 -42 -41.001s-17.5 -28.334 -21.5 -44.001s-6 -34.834 -6 -57.501zM871.001 133.001c0 -21.333 -2.83301 -41.002 -8.5 -59.002
s-12.167 -29.667 -19.5 -35c-36 15.333 -62.333 34.833 -79 58.5s-25 54.834 -25 93.501c0 22 2.66699 41.333 8 58s14 29.334 26 38.001c29.333 -13.333 53 -33.333 71 -60s27 -58 27 -94zM26.001 442.999c0 -32.667 11.168 -62.999 33.501 -90.999
s54.166 -49.667 95.499 -65c8 4 17.333 9.83301 28 17.5s21.334 15.834 32.001 24.501l27.5 23c7.66699 6.66699 13.167 11.667 16.5 15c8 8 15.167 21.833 21.5 41.5s9.5 38.834 9.5 57.501c0 40 -11.833 74.333 -35.5 103s-52.5 50.667 -86.5 66
c-30.667 -19.333 -54.834 -35.833 -72.501 -49.5s-31.667 -27.334 -42 -41.001s-17.5 -28.334 -21.5 -44.001s-6 -34.834 -6 -57.501zM224.002 431c0 -21.333 -2.83301 -41.002 -8.5 -59.002s-12.167 -29.667 -19.5 -35c-36 15.333 -62.333 34.833 -79 58.5
s-25 54.834 -25 93.501c0 22 2.66699 41.333 8 58s14 29.334 26 38.001c29.333 -13.333 53 -33.333 71 -60s27 -58 27 -94zM369.002 144.998c0 -32.667 11.168 -62.999 33.501 -90.999s54.166 -49.667 95.499 -65c8 4 17.333 9.83301 28 17.5s21.334 15.834 32.001 24.501
l27.5 23c7.66699 6.66699 13.167 11.667 16.5 15c8 8 15.167 21.833 21.5 41.5s9.5 38.834 9.5 57.501c0 40 -11.833 74.333 -35.5 103s-52.5 50.667 -86.5 66c-30.667 -19.333 -54.834 -35.833 -72.501 -49.5s-31.667 -27.334 -42 -41.001s-17.5 -28.334 -21.5 -44.001
s-6 -34.834 -6 -57.501zM567.003 132.999c0 -21.333 -2.83301 -41.002 -8.5 -59.002s-12.167 -29.667 -19.5 -35c-36 15.333 -62.333 34.833 -79 58.5s-25 54.834 -25 93.501c0 22 2.66699 41.333 8 58s14 29.334 26 38.001c29.333 -13.333 53 -33.333 71 -60s27 -58 27 -94
zM174.003 50.9971c-10.667 -22 -22 -39.001 -34 -51.001l7 -11l63 23l284 577c8 16.667 16.333 28.334 25 35.001l-5 11l-66 -26z" />
    <glyph glyph-name="guilsinglleft" unicode="&#x2039;" horiz-adv-x="278" 
d="M231 148c-14.667 18 -30.833 36.5 -48.5 55.5l-59.5 62.5c38.667 38.667 74.667 77 108 115l-28 29l-80.5 -84l-75.5 -74l72 -73.5c24.667 -26.333 46 -50.5 64 -72.5z" />
    <glyph glyph-name="guilsinglright" unicode="&#x203a;" horiz-adv-x="278" 
d="M47 368c14.667 -18 30.833 -36.5 48.5 -55.5l59.5 -62.5c-38.667 -38.667 -74.667 -77 -108 -115l28 -29l80.5 84l75.5 74l-72 73.5c-24.667 26.333 -46 50.5 -64 72.5z" />
    <glyph glyph-name="trademark" unicode="&#x2122;" horiz-adv-x="990" 
d="M156 360c0 -14 -4 -23.167 -12 -27.5s-20.333 -6.5 -37 -6.5v-18h170v18c-16.667 0 -29 2.16699 -37 6.5s-12 13.5 -12 27.5v328h63c18.667 0 32.5 -5.83301 41.5 -17.5s13.833 -27.167 14.5 -46.5h18v88h-346v-88h18c0.666992 19.333 5.66699 34.833 15 46.5
s23 17.5 41 17.5h63v-328zM820 360c0 -14 -3.83301 -23.167 -11.5 -27.5s-20.167 -6.5 -37.5 -6.5v-18h170v18c-18 0 -30.667 2 -38 6s-11 13.333 -11 28v287c0 16.667 4 28.667 12 36s22.333 11 43 11v18h-108l-155 -309l-154 309h-121v-18c32 -2 53.667 -15.667 65 -41
v-293c0 -14 -4.33301 -23.167 -13 -27.5s-21.667 -6.5 -39 -6.5v-18h135v18c-18.667 0 -32.167 2.16699 -40.5 6.5s-12.5 13.5 -12.5 27.5v250h2l149 -302h11l152 302h2v-250z" />
    </font>
</defs>
</svg>
