<?xml version="1.0" standalone="no"?>
<!DOCTYPE svg PUBLIC "-//W3C//DTD SVG 1.1//EN" "http://www.w3.org/Graphics/SVG/1.1/DTD/svg11.dtd" >
<svg xmlns="http://www.w3.org/2000/svg">
<metadata></metadata>
<defs>
<font id="ocr_bregular" horiz-adv-x="1433" >
<font-face units-per-em="2048" ascent="1638" descent="-410" />
<missing-glyph horiz-adv-x="1449" />
<glyph horiz-adv-x="2048" />
<glyph horiz-adv-x="2048" />
<glyph unicode="&#xd;" horiz-adv-x="2048" />
<glyph unicode=" "  horiz-adv-x="1449" />
<glyph unicode="&#x09;" horiz-adv-x="1449" />
<glyph unicode="&#xa0;" horiz-adv-x="1449" />
<glyph unicode="!" d="M575 0v240h283v-240h-283zM575 1466h283l-41 -917h-207z" />
<glyph unicode="&#x22;" d="M352 840v526h232l-66 -526h-166zM850 840v526h231l-63 -526h-168z" />
<glyph unicode="#" d="M248 0l94 408h-94l39 141h88l80 354h-168l39 141h157l92 422h160l-94 -422h289l92 422h166l-94 -422h94l-41 -141h-84l-80 -354h164l-39 -141h-152l-86 -408h-168l91 408h-285l-94 -408h-166zM535 549h282l82 354h-287z" />
<glyph unicode="$" d="M225 391v39h207q-1 -76 47.5 -106.5t128.5 -30.5h29v391q-46 14 -79.5 25t-79.5 30t-78.5 38t-67.5 47t-57 59t-36 72t-14 87q0 69 24 123.5t62.5 89.5t93.5 59.5t111 36.5t121 17v98h164v-98q60 -6 122 -26.5t119 -55.5t93 -90.5t36 -120.5v-33h-208q4 85 -35.5 111.5 t-126.5 26.5v-351q50 -17 82 -28t79.5 -31.5t77.5 -39.5t65.5 -48t55.5 -60.5t33.5 -74t13.5 -90.5q0 -78 -36 -144t-95.5 -109.5t-130.5 -69.5t-145 -32v-102h-164v102h-39q-49 0 -101 12t-100.5 36.5t-87 58t-61.5 81t-23 101.5zM432 1044q0 -30 10 -53.5t22.5 -38 t37.5 -28.5t41 -20t48.5 -16.5t45.5 -15.5v308q-205 0 -205 -136zM801 293q200 17 200 153q0 39 -14.5 68t-47.5 50t-54.5 30t-66.5 25q-4 1 -6 2t-5 2l-6 2v-332z" />
<glyph unicode="%" d="M260 1247q0 108 62.5 177t160.5 69t161 -69.5t63 -176.5q0 -101 -62.5 -170t-161.5 -69t-161 69t-62 170zM268 0v109l791 1357h98v-116l-780 -1350h-109zM399 1247q0 -22 0.5 -34t5 -31.5t12.5 -30t25 -19t41 -8.5t41 8.5t25 19t12.5 30t5 31.5t0.5 34q0 27 -0.5 40.5 t-5 33.5t-12.5 30t-25 17.5t-41 7.5t-41 -7.5t-25 -17.5t-12.5 -30t-5 -33.5t-0.5 -40.5zM725 221q0 108 62 177t161 69q98 0 162 -69.5t64 -176.5q0 -100 -63.5 -169.5t-162.5 -69.5t-161 69t-62 170zM864 221q0 -22 0.5 -34t5 -31.5t12.5 -30t25 -19t41 -8.5q30 0 49 10.5 t26.5 32.5t9 37t1.5 43q0 27 -0.5 40.5t-5 33.5t-13 30t-25.5 17.5t-42 7.5q-24 0 -41 -7.5t-25 -17.5t-12.5 -30t-5 -33.5t-0.5 -40.5z" />
<glyph unicode="&#x26;" d="M219 389q0 114 61 216.5t158 166.5q-168 236 -168 387q0 79 36.5 144t96.5 105.5t132 62.5t147 22q68 0 134.5 -20t122 -57.5t90 -97.5t34.5 -132q0 -55 -22 -108t-61.5 -99.5t-78.5 -81.5t-90 -72l-119 -88l277 -379q39 121 39 265v47h206v-35q0 -102 -35 -232.5 t-92 -205.5l146 -197h-252l-43 55q-110 -73 -274 -73q-124 0 -224 46.5t-160.5 140.5t-60.5 220zM428 410q0 -110 76.5 -174t185.5 -64q80 0 141 37l-286 405q-49 -39 -83 -94t-34 -110zM477 1112q0 -37 21.5 -85t41 -77t52.5 -73q17 15 69.5 53.5t90 68.5t70 73.5 t32.5 82.5q0 74 -54 112t-132 38q-83 0 -137 -54t-54 -139z" />
<glyph unicode="'" d="M578 1366h276l-41 -637h-195z" />
<glyph unicode="(" d="M428 745q0 212 121.5 424.5t302.5 323.5h156v-145q-77 -19 -148.5 -88t-119.5 -157.5t-76.5 -184.5t-28.5 -173t28.5 -172.5t76.5 -184t119.5 -157t148.5 -86.5v-145h-156q-181 109 -302.5 321.5t-121.5 423.5z" />
<glyph unicode=")" d="M428 0v145q101 24 189.5 131.5t136 236t47.5 232.5t-47.5 233t-136 237t-189.5 133v145h154q182 -111 304 -323.5t122 -424.5q0 -211 -122.5 -423t-303.5 -322h-154z" />
<glyph unicode="*" d="M223 696l84 203l324 -141l-19 379h205l-26 -379l331 141l88 -213l-354 -100l244 -287l-182 -119l-199 309l-211 -309l-164 119l227 287z" />
<glyph unicode="+" d="M231 580v208h381v367h209v-367h381v-208h-381v-367h-209v367h-381z" />
<glyph unicode="," d="M274 -348l412 704h371v-153l-549 -551h-234z" />
<glyph unicode="-" d="M211 580v208h1012v-208h-1012z" />
<glyph unicode="." d="M524 0v315h385v-315h-385z" />
<glyph unicode="/" d="M309 0l604 1493h211l-608 -1493h-207z" />
<glyph unicode="0" d="M227 758q0 322 66 514q20 58 52 99t69 64.5t89.5 36.5t99.5 17t114 4q55 0 95.5 -2.5t86 -10.5t79.5 -23t66.5 -39t57 -60.5t41.5 -85.5q63 -190 63 -514q0 -549 -143 -688q-90 -88 -346 -88t-346 88q-144 140 -144 688zM434 735q0 -82 3 -166t18.5 -196.5t42.5 -147.5 q41 -53 219 -53q181 0 219 53q26 35 41.5 147t18.5 197.5t3 165.5q0 272 -22 408q-6 33 -15 58t-19.5 42.5t-28.5 29t-34.5 18t-45.5 9.5t-52.5 4t-64.5 1q-57 0 -87 -2t-64.5 -10t-52.5 -25.5t-33 -48t-23 -76.5q-23 -128 -23 -408z" />
<glyph unicode="1" d="M322 911v258l358 297h223v-1466h-209v1233z" />
<glyph unicode="2" d="M258 0v111q0 103 16.5 185t46 146t82 122.5t113.5 106t152 105.5q123 76 170 119q100 90 100 186q0 89 -68.5 156.5t-156.5 67.5q-102 0 -219.5 -46t-208.5 -112v223q79 59 186 91t211 32q129 0 232.5 -43.5t168 -136.5t64.5 -223q0 -40 -6.5 -77.5t-15.5 -67.5 t-28.5 -61t-34.5 -52.5t-44.5 -49t-47.5 -43t-55.5 -41.5t-56 -38t-60.5 -39l-42 -27q-47 -31 -81.5 -56t-76.5 -63.5t-69 -75t-45.5 -84t-18.5 -96.5v-31h663v-188h-870z" />
<glyph unicode="3" d="M244 68v208q157 -104 374 -104q73 0 136 16.5t115 49.5t82 91t30 134q0 71 -26.5 124.5t-73 84.5t-104 46t-126.5 15h-162v160l377 385h-622v188h886v-204l-368 -369q192 -9 309 -126t117 -310q0 -118 -46.5 -211t-126 -149.5t-179.5 -85.5t-213 -29q-172 0 -379 86z" />
<glyph unicode="4" d="M246 322v219l432 925h213l-445 -954h357v303h207v-303h178v-190h-178v-322h-207v322h-557z" />
<glyph unicode="5" d="M305 -18v190h119q75 0 142.5 9.5t134 35t114.5 64t77.5 101.5t29.5 144q0 74 -27.5 129t-67 84t-92.5 45.5t-95.5 20t-84.5 0.5l-250 -19l43 680h739v-188h-555l-24 -285h49q93 0 175.5 -16t155.5 -52t126 -89.5t83.5 -133t30.5 -178.5q0 -102 -33 -186t-84.5 -139 t-123 -96.5t-140 -63.5t-145.5 -36t-129 -17.5t-100 -3.5h-68z" />
<glyph unicode="6" d="M225 481q0 166 50 301.5t157 259.5l369 424h260q-202 -187 -391 -430l-99 -127l2 -4q85 39 187 39q129 0 233 -67.5t159.5 -177.5t55.5 -238q0 -215 -137.5 -347t-351.5 -132q-234 0 -364 132.5t-130 366.5zM432 467q0 -130 78.5 -212.5t206.5 -82.5t206 80.5t78 212.5 q0 128 -80.5 208.5t-207.5 80.5q-121 0 -201 -82t-80 -205z" />
<glyph unicode="7" d="M244 1278v188h964v-22q0 -77 -6.5 -125.5t-30.5 -101.5q-9 -17 -22.5 -38.5t-32.5 -47t-32 -42.5t-35.5 -45.5t-28.5 -35.5q-57 -68 -87.5 -105t-75.5 -97t-68.5 -100.5t-52 -99.5t-42 -112t-23 -119t-9.5 -139v-236h-209v236q0 229 92 424.5t264 396.5l72 84 q23 26 36.5 43t27 43t16.5 51h-717z" />
<glyph unicode="8" d="M227 389q0 154 80 256.5t228 173.5q-57 37 -94.5 67.5t-77 74t-59 95.5t-19.5 113q0 67 25.5 122.5t67.5 92.5t98.5 62t116.5 36t124 11q81 0 155.5 -18.5t138.5 -55.5t102 -101.5t38 -148.5q0 -49 -14.5 -94t-36.5 -78.5t-57.5 -67.5t-67 -57.5t-76.5 -52.5 q148 -71 227.5 -173.5t79.5 -256.5q0 -109 -38.5 -189.5t-107 -127t-154 -68.5t-189.5 -22q-83 0 -154 13.5t-134 44t-107 77t-69.5 116t-25.5 156.5zM434 408q0 -117 83.5 -176.5t199.5 -59.5t199 59.5t83 176.5q0 45 -17.5 85t-35 65.5t-65 59t-68.5 46t-84 46.5 q-3 2 -4 2.5t-3.5 2t-4.5 2.5q-133 -72 -182 -112q-101 -83 -101 -197zM492 1151q0 -41 22 -79t57.5 -66.5t71.5 -48.5t74 -35q87 33 156 92.5t69 136.5q0 44 -20.5 75.5t-55.5 48t-71.5 23.5t-77.5 7t-77.5 -7t-71.5 -23.5t-55.5 -48t-20.5 -75.5z" />
<glyph unicode="9" d="M221 1001q0 223 138 357.5t362 134.5q230 0 359.5 -141.5t129.5 -376.5q0 -74 -19.5 -153.5t-49 -148.5t-79.5 -149t-94 -140t-110 -138t-110.5 -126t-112.5 -120h-277q172 167 290 296t210 271l-2 -2l-4 2q-76 -37 -170 -37q-131 0 -236.5 62t-165 169.5t-59.5 239.5z M430 1008q0 -128 81.5 -208.5t209.5 -80.5q125 0 204 82.5t79 210.5q0 131 -77.5 212t-205.5 81q-138 0 -214.5 -78t-76.5 -219z" />
<glyph unicode=":" d="M524 0v315h385v-315h-385zM524 694v316h385v-316h-385z" />
<glyph unicode=";" d="M303 -348l309 653h414l-479 -653h-244zM653 702v308h369v-308h-369z" />
<glyph unicode="&#x3c;" d="M262 723v51l912 594v-229l-631 -387l631 -387v-234z" />
<glyph unicode="=" d="M229 373v174h975v-174h-975zM229 819v174h975v-174h-975z" />
<glyph unicode="&#x3e;" d="M262 131v234l631 387l-631 387v229l912 -594v-51z" />
<glyph unicode="?" d="M340 944v47q0 393 408 393q104 0 188.5 -39.5t136 -118.5t51.5 -184q0 -117 -44.5 -195.5t-143.5 -170.5q-35 -31 -49.5 -63.5t-14.5 -82.5v-36h-204v47v15.5v16v14.5t0.5 16t1.5 14.5t2.5 15.5l3.5 14t4.5 15t5.5 14q25 49 129 141q54 48 78.5 90.5t24.5 106.5 q0 80 -47 131t-128 51q-102 0 -148 -61.5t-46 -165.5v-25h-209zM627 0v262h286v-262h-286z" />
<glyph unicode="@" d="M248 281v200q0 39 5.5 76t24 81.5t48 76.5t83 54t123.5 22q67 0 119 -41l29 -25v55h160v-520q0 -24 2.5 -41.5t10 -38t25 -32t44.5 -11.5q31 0 52 18t31.5 54.5t14.5 79.5t4 104v430q0 387 -319 387q-57 0 -108 -11t-93.5 -34t-68 -63t-25.5 -92v-37h-162v18q0 97 34 170 t96 117t144 66t183 22q103 0 184.5 -29.5t137 -82t91.5 -129t52 -166t16 -197.5v-391q0 -62 -5 -112.5t-22 -104t-45 -89.5t-77 -59.5t-115 -23.5q-59 0 -98.5 16.5t-65.5 60.5l-19 29q-29 -51 -86 -78.5t-121 -27.5q-136 0 -210 81t-74 218zM410 281q0 -66 30 -105t92 -39 q76 0 112 38.5t36 105.5v200q0 69 -36.5 111.5t-111.5 42.5q-60 0 -91 -43t-31 -111v-200z" />
<glyph unicode="A" d="M211 0l373 1366h264l373 -1366h-209l-99 393h-395l-96 -393h-211zM565 582h301l-147 594h-4z" />
<glyph unicode="B" d="M248 0v1366h440q81 0 151.5 -11.5t137.5 -39.5t114.5 -71.5t76 -112t28.5 -156.5t-46 -158.5t-128 -99.5v-4q97 -21 152 -109.5t55 -195.5q0 -81 -27.5 -152.5t-81 -129.5t-143 -92t-203.5 -34h-526zM455 188h280q62 0 109 9t89.5 32t65.5 68t23 111q0 55 -16 96.5 t-42 66t-65.5 39.5t-80.5 20t-93 5h-270v-447zM455 807h274q46 0 77.5 2.5t69 12.5t60 28.5t38 52.5t15.5 82q0 49 -18 85t-45.5 56.5t-68 32.5t-76.5 15.5t-81 3.5h-245v-371z" />
<glyph unicode="C" d="M307 680q0 100 13 194t46.5 188.5t84.5 164t135 113.5t190 44q150 0 259.5 -91.5t109.5 -233.5h-209q-3 60 -52.5 98.5t-115.5 38.5q-62 0 -110 -38t-74.5 -93t-43 -128.5t-21.5 -132t-5 -114.5q0 -48 3.5 -96t12.5 -110.5t27.5 -115t45 -98t69.5 -72t96 -26.5 q66 0 115.5 41.5t52.5 105.5h209q0 -98 -52 -176.5t-136 -119.5t-181 -41q-89 0 -162.5 30.5t-123.5 84.5t-86.5 121.5t-57 148t-30 157.5t-9.5 156z" />
<glyph unicode="D" d="M324 0v1366h129q151 0 283.5 -53.5t227.5 -146.5t150 -225.5t55 -285.5q0 -203 -89.5 -353t-244.5 -226t-356 -76h-155zM532 188q100 -1 182 36t135.5 101.5t82.5 150.5t29 183q0 125 -51.5 240.5t-151.5 194t-226 84.5v-990z" />
<glyph unicode="E" d="M328 0v1366h819v-188h-610v-369h530v-191h-530v-430h634v-188h-843z" />
<glyph unicode="F" d="M428 0v1366h717v-188h-510v-369h412v-191h-412v-618h-207z" />
<glyph unicode="G" d="M248 686q0 116 15.5 214t54.5 189.5t100 155t157 101.5t220 38q147 0 259.5 -85t112.5 -191v-16h-209q-14 59 -53 81.5t-110 22.5q-85 0 -147 -27.5t-98.5 -71.5t-58.5 -110.5t-29 -133t-7 -151.5q0 -58 2.5 -105.5t11.5 -104t23.5 -100.5t40.5 -86.5t60.5 -71 t85.5 -45.5t114 -17q77 0 165 31v340h-280v188h489v-668q-200 -81 -393 -81q-120 0 -213 40t-151 106t-95.5 159t-52 190t-14.5 209z" />
<glyph unicode="H" d="M283 0v1366h206v-561h455v561h209v-1366h-209v614h-455v-614h-206z" />
<glyph unicode="I" d="M367 0v188h245v990h-204v188h616v-188h-205v-990h246v-188h-698z" />
<glyph unicode="J" d="M303 326v116h207v-127q0 -68 36.5 -105.5t106.5 -37.5q36 0 62.5 8t42.5 26t25 34.5t13 48t4.5 50.5t0.5 57v20v950h207v-989q0 -198 -91.5 -296.5t-261.5 -98.5q-162 0 -257 93.5t-95 250.5z" />
<glyph unicode="K" d="M260 0v1366h207v-557l555 557h270l-659 -651l698 -715h-284l-580 612v-612h-207z" />
<glyph unicode="L" d="M324 0v1366h208v-1178h699v-188h-907z" />
<glyph unicode="M" d="M236 0v1366h321l158 -526h4l160 526h319v-1366h-207v1139h-4l-186 -697h-166l-189 697h-4v-1139h-206z" />
<glyph unicode="N" d="M264 0v1366h242l471 -991h4v991h190v-1366h-227l-487 1034h-4v-1034h-189z" />
<glyph unicode="O" d="M233 686q0 71 12 147t36 155.5t64.5 149.5t92 125.5t124 88t155.5 32.5t155.5 -32.5t124 -88t91.5 -125.5t64 -149.5t36 -155.5t12 -147q0 -94 -16.5 -189t-54 -188.5t-92 -165.5t-137.5 -116.5t-183 -44.5q-84 0 -156.5 31t-124 85t-91.5 123t-64 149t-36 159t-12 157z M440 676q0 -60 5.5 -119.5t23.5 -131.5t47 -126t81 -90.5t120 -36.5q67 0 119 36.5t80.5 90.5t47 126t24 131.5t5.5 119.5q0 50 -4 99.5t-14 112t-30.5 114.5t-49 97t-74.5 71t-104 26t-104.5 -26t-75.5 -71t-49 -97t-30 -114.5t-14 -112t-4 -99.5z" />
<glyph unicode="P" d="M307 0v1366h461q214 0 338.5 -101t124.5 -307q0 -83 -25.5 -149.5t-69 -111.5t-105 -75t-130.5 -43.5t-147 -13.5h-240v-565h-207zM514 754h244q266 0 266 209q0 66 -18.5 109.5t-56 66t-82 31t-107.5 8.5h-246v-424z" />
<glyph unicode="Q" d="M211 717q0 93 13 181.5t46 178.5t84 156.5t133.5 108.5t186.5 42q87 0 159.5 -29t121.5 -80t85 -115t56 -141t29.5 -151t9.5 -151q0 -273 -91 -412l238 -305h-250l-119 154q-100 -84 -239 -84q-101 0 -182 39.5t-132.5 103t-86 149.5t-48.5 174t-14 181zM420 739 q0 -58 4.5 -113.5t21 -125t42.5 -120t74 -85.5t112 -35q81 0 123 45l-279 363h246l141 -179q11 35 16 79t6 76t1 95q0 40 -2.5 78.5t-9 85.5t-18 87t-31 79t-45.5 66t-64 44t-84 17q-54 0 -96.5 -21.5t-69.5 -60t-45.5 -83t-27 -100t-12 -100t-3.5 -92.5z" />
<glyph unicode="R" d="M307 0v1366h398q128 0 226 -42.5t157 -134t59 -222.5q0 -133 -72 -234t-201 -125l357 -608h-238l-311 567h-166v-567h-209zM516 756h154q135 0 201.5 46.5t66.5 172.5q0 52 -15 90t-38 59.5t-60 34t-72.5 16t-84.5 3.5h-152v-422z" />
<glyph unicode="S" d="M287 336v43h207q1 -96 62 -151.5t159 -55.5q96 0 160.5 47t64.5 141q0 22 -5 42.5t-11.5 37t-21.5 33.5t-25.5 29t-33 27.5t-35.5 24t-42 23t-42.5 21t-46.5 22t-46 21.5q-56 27 -93.5 47.5t-83 54.5t-72.5 68.5t-46 85t-19 109.5q0 114 59 201.5t154 132t209 44.5 q96 0 185.5 -40t150 -118.5t60.5 -176.5v-27h-207q6 82 -50 128t-143 46q-91 0 -150 -41t-59 -131q0 -67 43 -111t115 -77l121 -56q63 -30 107 -55t92.5 -63t77.5 -78.5t48 -97.5t19 -124q0 -116 -62 -204t-160 -132t-212 -44q-106 0 -202 40.5t-161 123.5t-65 190z" />
<glyph unicode="T" d="M244 1178v188h944v-188h-369v-1178h-207v1178h-368z" />
<glyph unicode="U" d="M256 457v909h207v-895q0 -154 53.5 -226.5t200.5 -72.5q77 0 127.5 19t78 60t38 92.5t10.5 127.5v895h209v-909q0 -227 -114.5 -351t-348.5 -124q-233 0 -347 123.5t-114 351.5z" />
<glyph unicode="V" d="M201 1366h209l305 -1161h4l305 1161h207l-373 -1366h-289z" />
<glyph unicode="W" d="M223 1253v113h209v-113q0 -396 64 -897h4l139 486h156l139 -486h2q65 508 65 897v113h207v-113q0 -123 -12.5 -334t-30.5 -321l-102 -598h-227l-117 475h-4l-119 -475h-225l-103 598q-20 110 -32.5 320t-12.5 335z" />
<glyph unicode="X" d="M223 0l383 702l-383 664h242l252 -473l250 473h243l-366 -664l366 -702h-243l-250 518l-252 -518h-242z" />
<glyph unicode="Y" d="M225 1366h228l264 -514l264 514h227l-387 -727v-639h-207v639z" />
<glyph unicode="Z" d="M305 0v143l531 1035h-514v188h741v-160l-518 -1018h583v-188h-823z" />
<glyph unicode="[" d="M346 0v1493h739v-188h-530v-1117h530v-188h-739z" />
<glyph unicode="\" d="M309 1493h211l604 -1493h-204z" />
<glyph unicode="]" d="M346 0v188h533v1117h-533v188h739v-1493h-739z" />
<glyph unicode="^" d="M229 823l441 670h92l440 -670l-127 -98l-360 385l-361 -385z" />
<glyph unicode="_" d="M0 -141h1434v-207h-1434v207z" />
<glyph unicode="`" d="M442 1466h258l185 -323h-195z" />
<glyph unicode="a" d="M244 295q0 64 19 116t53 88.5t78 63.5t98 42.5t107.5 22.5t111.5 7h188v37q0 39 -3 65t-14 53.5t-30.5 43.5t-55 26t-85.5 10q-45 0 -79 -4.5t-67 -15.5t-51 -35t-18 -59h-207q4 64 31 113.5t66.5 79t94 48t107 25t112.5 6.5q222 0 314 -89t92 -310v-629h-207v96 q-59 -55 -136 -84.5t-157 -29.5q-100 0 -180.5 34t-131 106.5t-50.5 172.5zM451 303q0 -77 49 -120.5t127 -43.5q132 0 202 86t70 217v35h-215q-46 0 -85.5 -9t-73.5 -28t-54 -54t-20 -83z" />
<glyph unicode="b" d="M262 0v1466h207v-567h6q50 64 131.5 96.5t169.5 32.5q90 0 163.5 -30.5t123.5 -81.5t84 -121t49.5 -147t15.5 -161q0 -102 -30 -193t-86 -160.5t-142.5 -110.5t-191.5 -41q-84 0 -160.5 30.5t-132.5 89.5v-102h-207zM469 504q0 -67 15 -126.5t45.5 -110.5t84.5 -81 t125 -30q68 0 120.5 29.5t84 78.5t47 107.5t15.5 122.5q0 66 -13 126t-41 114.5t-80 87t-122 32.5q-73 0 -129 -29t-88 -79t-48 -111t-16 -131z" />
<glyph unicode="c" d="M324 510q0 103 29 195t83 165t140.5 115.5t193.5 42.5q147 0 251 -74t126 -217h-209q-1 53 -51 85t-111 32q-244 0 -244 -342q0 -356 234 -356q68 0 120 44.5t52 108.5h209q0 -77 -35.5 -141t-92.5 -103.5t-126.5 -61t-140.5 -21.5q-87 0 -159 29t-121 78.5t-83 117 t-49.5 144t-15.5 159.5z" />
<glyph unicode="d" d="M223 502q0 83 16 159t50.5 143.5t85 117t123.5 78t161 28.5q89 0 169.5 -31t127.5 -94h5v563h208v-1466h-208v104q-53 -53 -132.5 -87.5t-154.5 -34.5q-110 0 -197.5 42t-142 114.5t-83 165.5t-28.5 198zM432 518q0 -68 14 -129t43 -115t82.5 -86t124.5 -32t124 32t83 86 t44 115t14 129q0 69 -15.5 128t-47.5 106.5t-86.5 74.5t-127.5 27q-54 0 -97.5 -20t-72 -52.5t-47.5 -77t-27 -91t-8 -95.5z" />
<glyph unicode="e" d="M264 498q0 115 28.5 210.5t84.5 167.5t146 112t206 40t202 -36.5t137.5 -105t76 -158t24.5 -202.5v-63h-698q-8 -137 74 -222t221 -85q135 0 160 69h204q-4 -68 -39.5 -117.5t-92.5 -75.5t-117 -38t-125 -12q-237 0 -364.5 138.5t-127.5 377.5zM471 637h490 q-1 99 -67.5 158t-168.5 59q-99 0 -173.5 -59.5t-80.5 -157.5z" />
<glyph unicode="f" d="M315 836v174h289v49q0 201 89 304t296 103h107v-172h-45q-78 0 -122 -8.5t-72 -35.5t-37 -70.5t-9 -120.5v-49h285v-174h-285v-836h-207v836h-289z" />
<glyph unicode="g" d="M244 561q0 98 26 182.5t75.5 148.5t129 101t180.5 37q84 0 161.5 -26t119.5 -82v-2h2v90h209l-2 -973q0 -91 -24.5 -159t-65.5 -110.5t-103.5 -68t-130.5 -35.5t-153 -10q-57 0 -102 3.5t-100 18t-92 38.5t-62 68t-25 105v23h207q-2 -33 13.5 -54.5t45 -30.5t55 -12 t58.5 -3q88 0 140.5 10t81.5 36.5t38.5 63t9.5 100.5v150l-6 -6q-68 -54 -129 -77.5t-142 -23.5q-106 0 -187.5 39.5t-130.5 109.5t-73 158t-24 191zM453 547q0 -332 245 -332q67 0 115.5 29.5t74.5 80t38 107t12 121.5q0 66 -12.5 120.5t-40 100.5t-77.5 72t-120 26 q-67 0 -115 -28t-73 -76.5t-36 -102.5t-11 -118z" />
<glyph unicode="h" d="M307 0v1466h207v-538q46 48 117.5 74t144.5 26q94 0 163.5 -32.5t109.5 -91.5t58.5 -132.5t18.5 -163.5v-608h-206v625q0 106 -36 159.5t-139 53.5q-60 0 -102.5 -15.5t-67.5 -40t-39 -65t-18 -80.5t-4 -96v-541h-207z" />
<glyph unicode="i" d="M369 819v191h532v-1010h-209v819h-323zM614 1210v256h287v-256h-287z" />
<glyph unicode="j" d="M373 -160h143q9 0 31 -0.5t31 0l27 1.5t28 4t23.5 7.5t24.5 12t21 18.5q20 20 30 53t11.5 57.5t1.5 72.5v753h-239v191h446v-953q0 -223 -96 -314t-332 -91h-151v188zM668 1210v256h284v-256h-284z" />
<glyph unicode="k" d="M352 0v1466h207v-817l385 361h275l-482 -439l527 -571h-271l-434 471v-471h-207z" />
<glyph unicode="l" d="M483 440v1026h207v-1077q0 -123 51.5 -169t178.5 -46h135v-174h-189q-112 0 -187.5 28t-118 86.5t-60 136.5t-17.5 189z" />
<glyph unicode="m" d="M201 0v1010h209v-74q79 92 198 92q116 0 176 -80q80 80 203 80q117 0 180.5 -82.5t63.5 -202.5v-743h-207v743q0 29 -2 47.5t-10 39.5t-27 31.5t-49 10.5q-25 0 -44.5 -8.5t-31.5 -18t-20.5 -31.5t-12.5 -34.5t-6 -42.5t-2 -39v-39v-659h-207v743q0 129 -84 129 q-28 0 -49 -9t-33.5 -28t-20 -37t-11 -47t-4 -46t-0.5 -46v-659h-209z" />
<glyph unicode="n" d="M266 0v1010h207v-113h4q48 61 134 96t173 35q178 0 281.5 -108t103.5 -285v-635h-208v649q0 205 -199 205q-146 0 -217.5 -89.5t-71.5 -238.5v-526h-207z" />
<glyph unicode="o" d="M227 510q0 233 132 375.5t358 142.5t357.5 -142.5t131.5 -375.5q0 -231 -131 -379.5t-358 -148.5q-226 0 -358 149t-132 379zM434 508q0 -75 14 -138t45.5 -117t88.5 -85t135 -31q64 0 113.5 21t80.5 55.5t51.5 83t28.5 100.5t8 111q0 58 -9 109.5t-30 99t-53 81.5 t-80.5 54t-109.5 20q-75 0 -131 -30t-88.5 -82.5t-48 -115.5t-15.5 -136z" />
<glyph unicode="p" d="M262 -348v1358h207v-95l14 9q70 55 129 79.5t142 24.5q109 0 197.5 -43t144 -116t85 -166.5t29.5 -198.5q0 -104 -29 -197.5t-83.5 -166t-141.5 -115.5t-194 -43q-76 0 -159.5 29.5t-133.5 82.5v-442h-207zM469 506q0 -70 14 -130t44.5 -111t84.5 -80t127 -29 q72 0 125 28t82.5 77.5t43.5 107.5t14 127q0 358 -265 358q-59 0 -106 -19.5t-77 -52t-50 -78t-28.5 -94.5t-8.5 -104z" />
<glyph unicode="q" d="M223 487q0 107 28 202.5t81.5 172t141 121.5t198.5 45q169 0 291 -119v101h208v-1358h-208v448q-52 -58 -128 -88t-161 -30q-140 0 -244 69t-155.5 182.5t-51.5 253.5zM432 512q0 -74 10.5 -132t37 -111.5t79.5 -83t129 -29.5q63 0 111 19.5t78.5 52.5t50 80.5t27.5 98 t8 109.5q0 65 -14.5 123t-44 107.5t-82 78.5t-120.5 29q-73 0 -127 -28t-84.5 -77t-44.5 -108t-14 -129z" />
<glyph unicode="r" d="M379 0v1010h207v-111h4q99 129 262 129q134 0 220.5 -86t86.5 -221v-39h-209v29q0 67 -32 114t-95 47q-70 0 -119.5 -32t-73.5 -86.5t-34 -110.5t-10 -121v-522h-207z" />
<glyph unicode="s" d="M289 268h207q4 -129 194 -129q38 0 76.5 6t79.5 20.5t66.5 44.5t25.5 71q0 29 -10 51.5t-23.5 35.5t-38 22.5t-43 14t-49.5 9.5q-195 35 -301 84q-73 31 -111 95.5t-38 145.5q0 68 26.5 120.5t67.5 83.5t96 51t105.5 27t103.5 7q97 0 181 -25.5t141 -82t57 -132.5v-30 h-207q-2 42 -33 68.5t-66.5 35t-72.5 8.5q-32 0 -61.5 -5t-61 -16.5t-50 -37t-18.5 -61.5q0 -60 34.5 -88.5t99.5 -40.5q172 -35 182 -37q187 -47 254 -143q45 -65 45 -160q0 -70 -29.5 -124.5t-75.5 -86.5t-109 -52.5t-122.5 -28t-124.5 -7.5q-75 0 -141.5 14t-126 45 t-94.5 89t-35 138z" />
<glyph unicode="t" d="M313 854v174h209v229l207 56v-285h361v-174h-361v-506q0 -41 4.5 -71t18 -59.5t41.5 -45.5t71 -16q54 0 119.5 22.5t106.5 54.5v-190q-99 -61 -230 -61q-175 0 -256.5 104t-81.5 283v485h-209z" />
<glyph unicode="u" d="M266 348v662h207v-662q0 -104 41.5 -148t147.5 -44q299 0 299 342v512h208v-1010h-208v113q-55 -65 -147.5 -98t-188.5 -33q-168 0 -263.5 99.5t-95.5 266.5z" />
<glyph unicode="v" d="M201 1010h231l281 -838h4l284 838h230l-367 -1010h-297z" />
<glyph unicode="w" d="M223 1010h211l74 -725h4l102 333h203l107 -356h4l71 748h211l-123 -1010h-249l-119 414h-4l-119 -414h-244z" />
<glyph unicode="x" d="M221 0l371 508l-371 502h281l217 -338l215 338h240l-349 -496l385 -514h-260l-245 369l-246 -369h-238z" />
<glyph unicode="y" d="M188 1010h254l301 -568l301 568h218l-617 -1139q-67 -124 -135.5 -171.5t-198.5 -47.5h-45v172h33q100 0 156 100l182 318z" />
<glyph unicode="z" d="M307 0v209l545 627h-510v174h739v-199l-551 -637h596v-174h-819z" />
<glyph unicode="{" d="M309 651v189h92q93 0 129.5 29.5t36.5 119.5v135q0 180 102 274.5t271 94.5h184v-188h-120q-47 0 -75.5 -2t-61.5 -12t-50 -29t-29 -53.5t-12 -84.5v-135q0 -68 -22 -131.5t-70 -87.5l-47 -25l47 -22q48 -23 70 -87t22 -134v-133q0 -50 12 -84.5t29 -53.5t50 -29 t61.5 -12t75.5 -2h120v-188h-184q-170 0 -271.5 94t-101.5 275v133q0 91 -36.5 120t-129.5 29h-92z" />
<glyph unicode="|" d="M612 -348v1841h207v-1841h-207z" />
<glyph unicode="}" d="M309 0v188h123q47 0 75 2t60.5 12t50 29t29.5 53.5t12 84.5v133q0 69 22 133.5t69 87.5l49 22l-49 25q-47 24 -69 87.5t-22 131.5v135q0 50 -12 84.5t-29.5 53.5t-50 29t-60.5 12t-75 2h-123v188h183q170 0 272 -94.5t102 -274.5v-135q0 -90 37 -119.5t131 -29.5h90v-189 h-90q-95 0 -131.5 -29t-36.5 -120v-133q0 -182 -101.5 -275.5t-272.5 -93.5h-183z" />
<glyph unicode="~" d="M143 436q0 213 96 331t250 118q41 0 77 -9t62 -21t60 -40t54.5 -47.5t62.5 -62.5q1 -1 24 -26t36 -36t37.5 -24t47.5 -13q63 0 96.5 71.5t36.5 188.5h209q0 -214 -96 -331t-252 -117q-50 0 -90 11t-80 39t-67 53t-76 75q-4 4 -20 21.5t-27 27t-28 23t-35.5 20t-37.5 6.5 q-62 0 -96 -71.5t-37 -186.5h-207z" />
<glyph unicode="&#xa1;" d="M575 -100l41 919h207l35 -919h-283zM575 1126v240h283v-240h-283z" />
<glyph unicode="&#xa2;" d="M258 764q0 93 29.5 179t83.5 154.5t139 110t188 41.5q25 0 35 -2l37 156h133l-43 -184q90 -34 149 -107.5t76 -175.5h-206q-13 59 -62 96l-133 -592h8q80 0 130 45.5t59 120.5h206q-5 -83 -40.5 -149t-91.5 -106.5t-125 -61.5t-146 -21q-19 0 -37 2l-35 -151h-133l41 178 q-128 51 -195 176t-67 291zM465 766q0 -202 96 -283l133 592h-6q-223 0 -223 -309z" />
<glyph unicode="&#xa3;" d="M266 0v188h146l110 490h-215v188h258l60 252q14 61 31.5 111t46.5 101t65 85.5t89 56t116 21.5q111 0 196 -82v-197h-63q-54 91 -135 91q-59 0 -87.5 -40t-45.5 -110l-64 -289h227v-188h-272l-113 -490h553v-188h-903z" />
<glyph unicode="&#xa4;" d="M211 276l160 154q-62 102 -62 219q0 115 62 215l-160 154l137 135l152 -162q27 29 96 48.5t121 19.5t121 -19.5t96 -48.5l149 162l138 -135l-158 -154q59 -102 59 -215q0 -114 -59 -219l158 -154l-138 -133l-149 160q-28 -28 -96.5 -47.5t-120.5 -19.5t-120.5 19.5 t-96.5 47.5l-152 -160zM483 649q0 -99 68 -169t166 -70q95 0 163 70.5t68 168.5q0 96 -68 166t-163 70q-97 0 -165.5 -70t-68.5 -166z" />
<glyph unicode="&#xa5;" d="M190 1466h248l279 -395l276 395h248l-422 -594v-239h361v-191h-361v-442h-207v442h-356v191h356v239z" />
<glyph unicode="&#xa6;" d="M612 342h207v-690h-207v690zM612 803v690h207v-690h-207z" />
<glyph unicode="&#xa7;" d="M250 330h207q35 -87 98 -122.5t156 -35.5q48 0 92 7.5t84 23t64 44.5t24 68q0 81 -66.5 113.5t-210.5 34.5q-73 1 -132.5 8t-120.5 26.5t-102 51t-67 85t-26 124.5q0 35 8.5 64.5t25.5 52t30 36.5t33.5 31t25.5 21q-74 71 -74 219q0 29 13.5 66.5t46.5 81t80.5 79.5 t125 60t170.5 24q188 0 300 -95.5t112 -236.5h-209q0 70 -54.5 107t-156.5 37q-96 0 -158.5 -38.5t-62.5 -92.5q0 -30 10 -53t35 -45.5t76 -35.5t125 -16q87 -3 163 -21.5t137 -52.5t96.5 -88t35.5 -123q0 -75 -23.5 -118t-68.5 -86q34 -33 54.5 -65t28 -66t8.5 -49.5 t1 -49.5q0 -28 -9.5 -64t-38.5 -83t-74.5 -85t-127 -64.5t-186.5 -26.5t-185.5 17t-147 55.5t-108.5 107.5t-57 168zM457 752q0 -33 19.5 -56.5t51.5 -27.5q149 -19 217 -21q32 -1 66 -5.5t74.5 -11.5t54.5 -9q14 21 35 81q11 41 -23 74t-104 43q-67 10 -174 21 q-114 15 -158 34q-21 -23 -31 -36.5t-19 -36.5t-9 -49z" />
<glyph unicode="&#xa8;" d="M436 1165v301h195v-301h-195zM807 1165v301h190v-301h-190z" />
<glyph unicode="&#xa9;" d="M104 606v262q0 163 30 276.5t100.5 193.5t187.5 117.5t289 37.5q173 0 290 -37.5t187 -117.5t99.5 -193.5t29.5 -276.5v-262q0 -130 -18.5 -227t-61.5 -174t-113 -125t-172.5 -73t-240.5 -25q-172 0 -289 37.5t-187.5 117.5t-100.5 193.5t-30 275.5zM266 606 q0 -103 12 -179.5t39.5 -128t62 -83.5t88.5 -49t109 -23t134 -6q80 0 135 6t109.5 23t88.5 49t61.5 83.5t39.5 127.5t12 180v262q0 104 -12 180t-39.5 127.5t-61.5 83.5t-88.5 49t-109.5 23t-135 6q-79 0 -134 -6t-109 -23t-88.5 -49t-62 -83.5t-39.5 -128t-12 -179.5v-262z M377 741q0 443 352 443q254 0 295 -256h-172q-14 100 -141 100q-28 0 -50.5 -5t-38.5 -17t-28 -24.5t-19 -35.5t-11 -40.5t-6 -49.5t-2.5 -53t-0.5 -60v-55t1.5 -49.5t4 -48t7 -40t12 -36.5t19 -27.5t26.5 -23t35 -12t45 -5.5q66 0 104 36t43 96h172q0 -129 -92 -207 t-219 -78q-93 0 -159.5 32t-104.5 93t-55 140t-17 183z" />
<glyph unicode="&#xaa;" d="M389 950q0 71 30 122.5t81.5 79t109.5 40t125 12.5h133v23q0 71 -25.5 106t-107.5 35q-153 0 -153 -84h-160q12 209 307 209q163 0 232 -67t69 -230v-459h-162v76q-38 -44 -97 -69t-124 -25q-107 0 -182.5 60.5t-75.5 170.5zM553 954q0 -54 33 -82t90 -28q96 0 144 60 t48 155v20h-151q-69 0 -116.5 -29.5t-47.5 -95.5z" />
<glyph unicode="&#xab;" d="M266 453v137l455 360v-209l-260 -219l260 -219v-211zM713 453v137l456 360v-209l-260 -219l260 -219v-211z" />
<glyph unicode="&#xac;" d="M211 709v209h944v-568h-209v359h-735z" />
<glyph unicode="&#xad;" d="M211 580v208h1012v-208h-1012z" />
<glyph unicode="&#xae;" d="M104 606v262q0 163 30 276.5t100.5 193.5t187.5 117.5t289 37.5q173 0 290 -37.5t187 -117.5t99.5 -193.5t29.5 -276.5v-262q0 -130 -18.5 -227t-61.5 -174t-113 -125t-172.5 -73t-240.5 -25q-172 0 -289 37.5t-187.5 117.5t-100.5 193.5t-30 275.5zM266 606 q0 -103 12 -179.5t39.5 -128t62 -83.5t88.5 -49t109 -23t134 -6q80 0 135 6t109.5 23t88.5 49t61.5 83.5t39.5 127.5t12 180v262q0 104 -12 180t-39.5 127.5t-61.5 83.5t-88.5 49t-109.5 23t-135 6q-79 0 -134 -6t-109 -23t-88.5 -49t-62 -83.5t-39.5 -128t-12 -179.5v-262z M432 313v850h293q126 0 207.5 -67t81.5 -197q0 -83 -42.5 -143t-113.5 -84l176 -359h-178l-162 328h-100v-328h-162zM594 803h137q111 0 111 100q0 98 -111 98h-137v-198z" />
<glyph unicode="&#xaf;" d="M420 1253v170h596v-170h-596z" />
<glyph unicode="&#xb0;" d="M256 1044q0 186 131.5 318.5t317.5 132.5t319 -132.5t133 -318.5t-133 -318t-319 -132t-317.5 132t-131.5 318zM446 1047q0 -115 76.5 -196t184.5 -81q107 0 182.5 81t75.5 196q0 113 -75.5 193.5t-182.5 80.5t-184 -80.5t-77 -193.5z" />
<glyph unicode="&#xb1;" d="M211 111v174h1012v-174h-1012zM211 764v174h412v373h188v-373h412v-174h-412v-356h-188v356h-412z" />
<glyph unicode="&#xb2;" d="M434 729v57q0 128 53 201.5t181 140.5q8 4 31.5 17t34 19.5t29 19.5t27.5 23.5t16 25.5t7 31q0 37 -32 58t-89 21q-109 0 -243 -102v154q119 90 276 90q108 0 185 -60t77 -157q0 -37 -14 -70t-31 -54t-54 -46.5t-57.5 -37t-68.5 -36.5q-149 -82 -154 -158h367v-137h-541z " />
<glyph unicode="&#xb3;" d="M438 1329v137h506v-125l-186 -159q100 -18 158.5 -75.5t58.5 -148.5q0 -107 -88 -177t-234 -70q-113 0 -204 49v135q84 -49 182 -49q75 0 126.5 30.5t51.5 88.5q0 54 -47.5 83t-116.5 29h-86v86l201 166h-322z" />
<glyph unicode="&#xb4;" d="M549 1143l182 323h258l-246 -323h-194z" />
<glyph unicode="&#xb5;" d="M246 -348v1358h207v-660q0 -102 43 -148t133 -46q125 0 193.5 100t68.5 281v473h207v-686q0 -78 29 -114t96 -36h65v-174h-117q-63 0 -109 12t-74.5 35t-45 47t-29.5 58q-103 -170 -292 -170q-102 0 -168 49v-379h-207z" />
<glyph unicode="&#xb6;" d="M219 952q0 199 104 306.5t316 107.5h508v-1714h-209v1544h-135l-2 -1544h-209v915q-198 20 -285.5 113.5t-87.5 271.5z" />
<glyph unicode="&#xb7;" d="M524 338v315h385v-315h-385z" />
<glyph unicode="&#xb8;" d="M580 -395l135 377h182l-94 -377h-223z" />
<glyph unicode="&#xb9;" d="M489 1192v158l191 116h147v-737h-159v567z" />
<glyph unicode="&#xba;" d="M350 1110q0 172 98.5 277.5t266.5 105.5t267 -105.5t99 -277.5t-98.5 -281.5t-267.5 -109.5q-168 0 -266.5 110t-98.5 281zM516 1108q0 -52 9.5 -95t31 -80t62 -58t96.5 -21q110 0 156.5 71.5t46.5 182.5q0 109 -48 179.5t-155 70.5q-55 0 -95 -20.5t-62 -56.5t-32 -79 t-10 -94z" />
<glyph unicode="&#xbb;" d="M266 92v211l260 219l-260 219v209l455 -360v-137zM713 92v211l260 219l-260 219v209l456 -360v-137z" />
<glyph unicode="&#xbc;" d="M72 1192v158l190 116h150v-737h-162v567zM236 0v109l790 1357h98v-116l-780 -1350h-108zM764 160v151l246 426h161l-253 -440h190v152h147v-152h119v-137h-119v-160h-147v160h-344z" />
<glyph unicode="&#xbd;" d="M55 1192v158l191 116h149v-737h-162v567zM203 0v109l790 1357h99v-116l-781 -1350h-108zM817 0v57q0 128 53 201.5t181 140.5q8 4 31.5 17t34 19.5t29 19.5t27.5 23.5t16 25.5t7 31q0 36 -32.5 57.5t-88.5 21.5q-110 0 -244 -102v154q124 90 277 90q108 0 185 -60 t77 -157q0 -37 -14 -70t-31 -54t-54 -46.5t-57.5 -37t-68.5 -36.5q-149 -82 -154 -158h367v-137h-541z" />
<glyph unicode="&#xbe;" d="M49 1329v137h506v-125l-188 -159q100 -18 158.5 -75.5t58.5 -148.5q0 -107 -88 -177t-234 -70q-114 0 -205 49v135q84 -49 183 -49q75 0 126.5 30.5t51.5 88.5q0 54 -47.5 83t-116.5 29h-84v86l199 166h-320zM287 0v109l788 1357h101v-116l-781 -1350h-108zM811 160v151 l246 426h160l-254 -440h192v152h148v-152h118v-137h-118v-160h-148v160h-344z" />
<glyph unicode="&#xbf;" d="M340 324q0 117 45 195t145 173q34 29 48 62t14 82v36h207v-47v-13.5v-14.5v-13.5t-0.5 -14t-1.5 -13t-2 -14t-2.5 -12.5t-3.5 -13.5t-5 -12t-6 -12.5q-13 -28 -54 -70.5t-75 -70.5q-53 -49 -76.5 -92t-23.5 -107q0 -80 45.5 -130t126.5 -50q102 0 149.5 61t47.5 164v27 h206v-49q0 -393 -407 -393q-160 0 -268.5 92.5t-108.5 249.5zM553 1104v262h285v-262h-285z" />
<glyph unicode="&#xc0;" d="M211 0l373 1137h264l373 -1137h-209l-99 299h-395l-96 -299h-211zM373 1466h319l185 -241h-215zM565 487h301l-147 474h-4z" />
<glyph unicode="&#xc1;" d="M211 0l373 1137h264l373 -1137h-209l-99 299h-395l-96 -299h-211zM559 1225l182 241h322l-289 -241h-215zM565 487h301l-147 474h-4z" />
<glyph unicode="&#xc2;" d="M211 0l373 1137h264l373 -1137h-209l-99 299h-395l-96 -299h-211zM303 1225l272 241h281l274 -241h-235l-178 114l-178 -114h-236zM565 487h301l-147 474h-4z" />
<glyph unicode="&#xc3;" d="M211 0l373 1137h264l373 -1137h-209l-99 299h-395l-96 -299h-211zM313 1225v20q0 108 66.5 178t183.5 70q87 0 174 -59q12 -7 32 -21t31.5 -21.5t28 -13.5t31.5 -6q39 0 55.5 30.5t16.5 65.5h188q0 -103 -62 -181.5t-173 -78.5q-106 0 -205 72q-72 45 -109 45 q-36 0 -51.5 -30.5t-15.5 -69.5h-191zM565 487h301l-147 474h-4z" />
<glyph unicode="&#xc4;" d="M211 0l373 1366h264l373 -1366h-209l-99 393h-395l-96 -393h-211zM211 1225v268h195v-268h-195zM565 582h301l-147 594h-4zM1028 1225v268h193v-268h-193z" />
<glyph unicode="&#xc5;" d="M225 0l242 930q-154 93 -154 264q0 68 23 120.5t60.5 85.5t91 54.5t109.5 30t120 8.5q63 0 118 -8.5t107.5 -30t90.5 -54.5t61.5 -85.5t25.5 -120.5q-4 -91 -44 -155t-118 -109l250 -930h-198l-64 264h-459l-61 -264h-201zM496 1198q0 -91 62.5 -130.5t158.5 -39.5 t158.5 39.5t62.5 130.5q0 40 -19.5 68.5t-53.5 43t-70 21t-78 6.5t-78 -6.5t-70 -21t-53.5 -43t-19.5 -68.5zM532 444h371l-100 428l-86 -6l-84 6z" />
<glyph unicode="&#xc6;" d="M215 0l272 1366h668v-188h-301l29 -365h272v-190h-258l33 -435h239v-188h-415l-23 348h-262l-70 -348h-184zM504 530h215l-39 652h-49z" />
<glyph unicode="&#xc7;" d="M307 680q0 100 13 194t46.5 188.5t84.5 164t135 113.5t190 44q150 0 259.5 -91.5t109.5 -233.5h-209q-3 60 -52.5 98.5t-115.5 38.5q-62 0 -110 -38t-74.5 -93t-43 -128.5t-21.5 -132t-5 -114.5q0 -48 3.5 -96t12.5 -110.5t27.5 -115t45 -98t69.5 -72t96 -26.5 q66 0 115.5 41.5t52.5 105.5h209q0 -131 -89 -221.5t-220 -109.5l-82 -336h-222l125 346q-97 27 -168.5 100t-109.5 172.5t-55 201t-17 208.5z" />
<glyph unicode="&#xc8;" d="M328 0v1137h819v-191h-610v-260h530v-190h-530v-308h634v-188h-843zM408 1466h319l184 -241h-217z" />
<glyph unicode="&#xc9;" d="M328 0v1137h819v-191h-610v-260h530v-190h-530v-308h634v-188h-843zM559 1225l182 241h322l-289 -241h-215z" />
<glyph unicode="&#xca;" d="M328 0v1137h819v-191h-610v-260h530v-190h-530v-308h634v-188h-843zM332 1225l274 241h281l274 -241h-235l-178 114l-181 -114h-235z" />
<glyph unicode="&#xcb;" d="M328 0v1137h819v-191h-610v-260h530v-190h-530v-308h634v-188h-843zM428 1225v268h193v-268h-193zM879 1225v268h192v-268h-192z" />
<glyph unicode="&#xcc;" d="M367 0v188h245v758h-204v191h616v-191h-205v-758h246v-188h-698zM373 1466h319l185 -241h-215z" />
<glyph unicode="&#xcd;" d="M367 0v188h245v758h-204v191h616v-191h-205v-758h246v-188h-698zM559 1225l182 241h322l-289 -241h-215z" />
<glyph unicode="&#xce;" d="M303 1225l272 241h281l274 -241h-235l-178 114l-178 -114h-236zM367 0v188h245v758h-204v191h616v-191h-205v-758h246v-188h-698z" />
<glyph unicode="&#xcf;" d="M367 0v188h245v758h-204v191h616v-191h-205v-758h246v-188h-698zM395 1225v268h193v-268h-193zM846 1225v268h194v-268h-194z" />
<glyph unicode="&#xd0;" d="M186 584v190h138v592h129q151 0 283.5 -53.5t227.5 -146.5t150 -225.5t55 -285.5q0 -203 -89.5 -353t-244.5 -226t-356 -76h-155v584h-138zM532 188q100 -1 182 36t135.5 101.5t82.5 150.5t29 183q0 125 -51.5 240.5t-151.5 194t-226 84.5v-404h250v-190h-250v-396z" />
<glyph unicode="&#xd1;" d="M264 0v1010h242l471 -731h4v731h190v-1010h-227l-487 764h-4v-764h-189zM313 1198v21q0 119 66.5 196.5t183.5 77.5q36 0 71 -11t55.5 -23t47.5 -32q10 -7 32 -23.5t32 -23t27 -13.5t32 -7q39 0 55.5 33.5t16.5 72.5h188q0 -114 -62 -199t-173 -85t-205 75q-4 3 -15 11 t-17.5 12t-18 11t-20 10.5t-19 6.5t-19.5 3q-25 0 -41 -20t-21 -43.5t-5 -49.5h-191z" />
<glyph unicode="&#xd2;" d="M231 575q0 148 57.5 279t170.5 216t258 85q114 0 207.5 -49.5t152.5 -131.5t91 -185t32 -214q0 -87 -20 -172t-60.5 -161t-97 -134t-135.5 -92t-170 -34q-114 0 -208.5 52t-154 137t-91.5 189.5t-32 214.5zM373 1466h319l185 -241h-215zM438 575q0 -55 8.5 -109 t29.5 -108t52 -94.5t80 -66t109 -25.5q61 0 109.5 25.5t79 66t51 94.5t28.5 108t8 109q0 76 -14 142t-44.5 123.5t-86 91t-131.5 33.5q-75 0 -131 -33.5t-87.5 -91t-46 -124t-14.5 -141.5z" />
<glyph unicode="&#xd3;" d="M231 575q0 148 57.5 279t170.5 216t258 85q114 0 207.5 -49.5t152.5 -131.5t91 -185t32 -214q0 -87 -20 -172t-60.5 -161t-97 -134t-135.5 -92t-170 -34q-114 0 -208.5 52t-154 137t-91.5 189.5t-32 214.5zM438 575q0 -55 8.5 -109t29.5 -108t52 -94.5t80 -66t109 -25.5 q61 0 109.5 25.5t79 66t51 94.5t28.5 108t8 109q0 76 -14 142t-44.5 123.5t-86 91t-131.5 33.5q-75 0 -131 -33.5t-87.5 -91t-46 -124t-14.5 -141.5zM559 1225l182 241h322l-289 -241h-215z" />
<glyph unicode="&#xd4;" d="M231 575q0 148 57.5 279t170.5 216t258 85q114 0 207.5 -49.5t152.5 -131.5t91 -185t32 -214q0 -87 -20 -172t-60.5 -161t-97 -134t-135.5 -92t-170 -34q-114 0 -208.5 52t-154 137t-91.5 189.5t-32 214.5zM303 1225l272 241h281l274 -241h-235l-178 114l-178 -114h-236z M438 575q0 -55 8.5 -109t29.5 -108t52 -94.5t80 -66t109 -25.5q61 0 109.5 25.5t79 66t51 94.5t28.5 108t8 109q0 76 -14 142t-44.5 123.5t-86 91t-131.5 33.5q-75 0 -131 -33.5t-87.5 -91t-46 -124t-14.5 -141.5z" />
<glyph unicode="&#xd5;" d="M231 575q0 148 57.5 279t170.5 216t258 85q114 0 207.5 -49.5t152.5 -131.5t91 -185t32 -214q0 -87 -20 -172t-60.5 -161t-97 -134t-135.5 -92t-170 -34q-114 0 -208.5 52t-154 137t-91.5 189.5t-32 214.5zM313 1225v20q0 108 66.5 178t183.5 70q87 0 174 -59 q12 -7 32 -21t31.5 -21.5t28 -13.5t31.5 -6q39 0 55.5 30.5t16.5 65.5h188q0 -103 -62 -181.5t-173 -78.5q-106 0 -205 72q-72 45 -109 45q-36 0 -51.5 -30.5t-15.5 -69.5h-191zM438 575q0 -55 8.5 -109t29.5 -108t52 -94.5t80 -66t109 -25.5q61 0 109.5 25.5t79 66t51 94.5 t28.5 108t8 109q0 76 -14 142t-44.5 123.5t-86 91t-131.5 33.5q-75 0 -131 -33.5t-87.5 -91t-46 -124t-14.5 -141.5z" />
<glyph unicode="&#xd6;" d="M211 1225v268h195v-268h-195zM231 575q0 148 57.5 279t170.5 216t258 85q114 0 207.5 -49.5t152.5 -131.5t91 -185t32 -214q0 -87 -20 -172t-60.5 -161t-97 -134t-135.5 -92t-170 -34q-114 0 -208.5 52t-154 137t-91.5 189.5t-32 214.5zM438 575q0 -55 8.5 -109 t29.5 -108t52 -94.5t80 -66t109 -25.5q61 0 109.5 25.5t79 66t51 94.5t28.5 108t8 109q0 76 -14 142t-44.5 123.5t-86 91t-131.5 33.5q-75 0 -131 -33.5t-87.5 -91t-46 -124t-14.5 -141.5zM1028 1225v268h193v-268h-193z" />
<glyph unicode="&#xd7;" d="M231 332l351 352l-351 350l136 135l350 -350l350 350l135 -135l-350 -350l350 -352l-135 -135l-350 352l-350 -352z" />
<glyph unicode="&#xd8;" d="M233 686q0 71 12 147t36 155.5t64.5 149.5t92 125.5t124 88t155.5 32.5q73 0 149 -29.5t99 -62.5l77 146l123 -62l-102 -196q65 -96 101 -234t36 -260q0 -94 -16.5 -189t-54 -188.5t-92 -165.5t-137.5 -116.5t-183 -44.5q-147 0 -236 81l-73 -145l-123 64l94 184 q-53 58 -99.5 213.5t-46.5 306.5zM440 676q0 -189 43 -309l394 755q-20 31 -68 52.5t-92 21.5q-58 0 -104.5 -26t-75.5 -71t-49 -97t-30 -114.5t-14 -112t-4 -99.5zM567 229q64 -57 150 -57q67 0 119 36.5t80.5 90.5t47 126t24 131.5t5.5 119.5q0 166 -43 291z" />
<glyph unicode="&#xd9;" d="M256 457v680h207v-666q0 -154 53.5 -226.5t200.5 -72.5q77 0 127.5 19t78 60t38 92.5t10.5 127.5v666h209v-680q0 -227 -114.5 -351t-348.5 -124q-233 0 -347 123.5t-114 351.5zM373 1466h319l185 -241h-215z" />
<glyph unicode="&#xda;" d="M256 457v680h207v-666q0 -154 53.5 -226.5t200.5 -72.5q77 0 127.5 19t78 60t38 92.5t10.5 127.5v666h209v-680q0 -227 -114.5 -351t-348.5 -124q-233 0 -347 123.5t-114 351.5zM559 1225l182 241h322l-289 -241h-215z" />
<glyph unicode="&#xdb;" d="M256 457v680h207v-666q0 -154 53.5 -226.5t200.5 -72.5q77 0 127.5 19t78 60t38 92.5t10.5 127.5v666h209v-680q0 -227 -114.5 -351t-348.5 -124q-233 0 -347 123.5t-114 351.5zM303 1225l272 241h281l274 -241h-235l-178 114l-178 -114h-236z" />
<glyph unicode="&#xdc;" d="M256 457v680h207v-666q0 -154 53.5 -226.5t200.5 -72.5q77 0 127.5 19t78 60t38 92.5t10.5 127.5v666h209v-680q0 -227 -114.5 -351t-348.5 -124q-233 0 -347 123.5t-114 351.5zM256 1350v143h256v-143h-256zM924 1350v143h256v-143h-256z" />
<glyph unicode="&#xdd;" d="M225 1137h234l258 -430l258 430h233l-387 -631v-506h-207v506zM559 1225l182 241h322l-289 -241h-215z" />
<glyph unicode="&#xde;" d="M307 0v1366h207v-229h254q211 0 337 -108.5t126 -315.5q0 -103 -38.5 -183.5t-105 -129.5t-151.5 -74t-182 -25h-240v-301h-207zM514 489h244q117 0 191.5 56t74.5 172q0 127 -68.5 179t-195.5 52h-246v-459z" />
<glyph unicode="&#xdf;" d="M264 0v1047q0 200 126 323t323 123q116 0 217 -43.5t168 -134t67 -211.5q0 -208 -194 -316q121 -43 180 -143t59 -237q0 -184 -114 -296t-293 -112h-45v174h22q121 0 172.5 48.5t51.5 172.5q0 149 -56.5 221t-197.5 72h-33v189h33q206 0 206 208q0 116 -59 176t-172 60 q-64 0 -111 -18t-74 -47t-43 -75.5t-21 -93t-5 -110.5v-977h-207z" />
<glyph unicode="&#xe0;" d="M244 295q0 64 19 116t53 88.5t78 63.5t98 42.5t107.5 22.5t111.5 7h188v37q0 39 -3 65t-14 53.5t-30.5 43.5t-55 26t-85.5 10q-45 0 -79 -4.5t-67 -15.5t-51 -35t-18 -59h-207q4 64 31 113.5t66.5 79t94 48t107 25t112.5 6.5q222 0 314 -89t92 -310v-629h-207v96 q-59 -55 -136 -84.5t-157 -29.5q-100 0 -180.5 34t-131 106.5t-50.5 172.5zM410 1466h258l182 -323h-193zM451 303q0 -77 49 -120.5t127 -43.5q132 0 202 86t70 217v35h-215q-46 0 -85.5 -9t-73.5 -28t-54 -54t-20 -83z" />
<glyph unicode="&#xe1;" d="M244 295q0 64 19 116t53 88.5t78 63.5t98 42.5t107.5 22.5t111.5 7h188v37q0 39 -3 65t-14 53.5t-30.5 43.5t-55 26t-85.5 10q-45 0 -79 -4.5t-67 -15.5t-51 -35t-18 -59h-207q4 64 31 113.5t66.5 79t94 48t107 25t112.5 6.5q222 0 314 -89t92 -310v-629h-207v96 q-59 -55 -136 -84.5t-157 -29.5q-100 0 -180.5 34t-131 106.5t-50.5 172.5zM451 303q0 -77 49 -120.5t127 -43.5q132 0 202 86t70 217v35h-215q-46 0 -85.5 -9t-73.5 -28t-54 -54t-20 -83zM565 1143l185 323h258l-246 -323h-197z" />
<glyph unicode="&#xe2;" d="M244 295q0 64 19 116t53 88.5t78 63.5t98 42.5t107.5 22.5t111.5 7h188v37q0 39 -3 65t-14 53.5t-30.5 43.5t-55 26t-85.5 10q-45 0 -79 -4.5t-67 -15.5t-51 -35t-18 -59h-207q4 64 31 113.5t66.5 79t94 48t107 25t112.5 6.5q222 0 314 -89t92 -310v-629h-207v96 q-59 -55 -136 -84.5t-157 -29.5q-100 0 -180.5 34t-131 106.5t-50.5 172.5zM303 1147l256 319h313l258 -319h-235l-178 194l-178 -194h-236zM451 303q0 -77 49 -120.5t127 -43.5q132 0 202 86t70 217v35h-215q-46 0 -85.5 -9t-73.5 -28t-54 -54t-20 -83z" />
<glyph unicode="&#xe3;" d="M244 295q0 64 19 116t53 88.5t78 63.5t98 42.5t107.5 22.5t111.5 7h188v37q0 39 -3 65t-14 53.5t-30.5 43.5t-55 26t-85.5 10q-45 0 -79 -4.5t-67 -15.5t-51 -35t-18 -59h-207q4 64 31 113.5t66.5 79t94 48t107 25t112.5 6.5q222 0 314 -89t92 -310v-629h-207v96 q-59 -55 -136 -84.5t-157 -29.5q-100 0 -180.5 34t-131 106.5t-50.5 172.5zM295 1198v21q0 120 65 197t183 77q85 0 172 -66q8 -6 31.5 -23.5t33.5 -23.5t26.5 -13t31.5 -7q39 0 55 33t16 73h187q0 -114 -61.5 -199t-172.5 -85t-205 75q-4 3 -18 13t-22 15t-20.5 12 t-23.5 10.5t-22 3.5q-37 0 -53.5 -35t-16.5 -78h-186zM451 303q0 -77 49 -120.5t127 -43.5q132 0 202 86t70 217v35h-215q-46 0 -85.5 -9t-73.5 -28t-54 -54t-20 -83z" />
<glyph unicode="&#xe4;" d="M244 295q0 64 19 116t53 88.5t78 63.5t98 42.5t107.5 22.5t111.5 7h188v37q0 39 -3 65t-14 53.5t-30.5 43.5t-55 26t-85.5 10q-45 0 -79 -4.5t-67 -15.5t-51 -35t-18 -59h-207q4 64 31 113.5t66.5 79t94 48t107 25t112.5 6.5q222 0 314 -89t92 -310v-629h-207v96 q-59 -55 -136 -84.5t-157 -29.5q-100 0 -180.5 34t-131 106.5t-50.5 172.5zM436 1165v301h195v-301h-195zM451 303q0 -77 49 -120.5t127 -43.5q132 0 202 86t70 217v35h-215q-46 0 -85.5 -9t-73.5 -28t-54 -54t-20 -83zM807 1165v301h190v-301h-190z" />
<glyph unicode="&#xe5;" d="M244 295q0 64 19 116t53 88.5t78 63.5t98 42.5t107.5 22.5t111.5 7h188v37q0 50 -5.5 81t-23.5 61t-57.5 44t-101.5 14q-215 0 -215 -116h-207q21 140 143 194q-67 46 -96 99.5t-29 134.5t31.5 142t86 96.5t120.5 53t141 17.5q76 0 142 -17.5t120 -53t85.5 -96.5 t31.5 -142t-28.5 -134.5t-94.5 -99.5q40 -11 69.5 -30.5t47 -48t28 -53.5t14.5 -61.5t4.5 -56.5t0.5 -54v-17v-629h-207v96q-59 -55 -136 -84.5t-157 -29.5q-100 0 -180.5 34t-131 106.5t-50.5 172.5zM451 303q0 -77 49.5 -121.5t126.5 -44.5q132 0 202 87t70 218v37h-215 q-46 0 -85.5 -9t-73.5 -28.5t-54 -55t-20 -83.5zM473 1184q0 -164 213 -164q215 0 215 164q0 82 -60.5 120.5t-154.5 38.5q-92 0 -152.5 -38.5t-60.5 -120.5z" />
<glyph unicode="&#xe6;" d="M244 287q0 105 20.5 169.5t70 99.5t112.5 46.5t167 11.5h17v45q0 34 -0.5 52.5t-3.5 47.5t-9.5 45t-17.5 33.5t-29 25t-43 7.5q-54 0 -82 -35.5t-28 -86.5h-174q0 126 72 203t196 77q163 0 207 -102q27 51 84 76.5t119 25.5q52 0 92.5 -11t68.5 -28.5t48 -46.5t31 -59 t17.5 -71.5t8.5 -77.5t2 -85v-192h-381v-113q0 -28 0.5 -43.5t3 -42.5t9.5 -43t18 -33.5t30.5 -26t44.5 -8.5q31 0 52 13t30.5 38t13 49t3.5 56h176v-47q0 -128 -66.5 -201t-193.5 -73q-164 0 -211 120q-27 -62 -88 -91t-137 -29q-67 0 -117 24t-78 67t-41.5 96t-13.5 118z M418 305q0 -30 3 -52.5t13 -49t32.5 -41.5t57.5 -15q107 0 107 187v123h-15q-102 0 -150 -29.5t-48 -122.5zM809 614h209v58q0 37 -1 57t-6.5 51t-16 47.5t-31.5 29.5t-52 13q-25 0 -43 -7.5t-29 -24t-17.5 -32t-9 -43t-3 -44t-0.5 -47.5v-58z" />
<glyph unicode="&#xe7;" d="M324 510q0 103 29 195t83 165t140.5 115.5t193.5 42.5q147 0 251 -74t126 -217h-209q-1 53 -51 85t-111 32q-244 0 -244 -342q0 -356 234 -356q68 0 120 44.5t52 108.5h209q0 -136 -98.5 -221.5t-237.5 -101.5l-82 -334h-219l135 342q-106 26 -180.5 104.5t-107.5 183.5 t-33 228z" />
<glyph unicode="&#xe8;" d="M264 498q0 115 28.5 210.5t84.5 167.5t146 112t206 40t202 -36.5t137.5 -105t76 -158t24.5 -202.5v-63h-698q-8 -137 74 -222t221 -85q135 0 160 69h204q-4 -68 -39.5 -117.5t-92.5 -75.5t-117 -38t-125 -12q-237 0 -364.5 138.5t-127.5 377.5zM432 1466h258l184 -323 h-192zM471 637h490q-1 99 -67.5 158t-168.5 59q-99 0 -173.5 -59.5t-80.5 -157.5z" />
<glyph unicode="&#xe9;" d="M264 498q0 115 28.5 210.5t84.5 167.5t146 112t206 40t202 -36.5t137.5 -105t76 -158t24.5 -202.5v-63h-698q-8 -137 74 -222t221 -85q135 0 160 69h204q-4 -68 -39.5 -117.5t-92.5 -75.5t-117 -38t-125 -12q-237 0 -364.5 138.5t-127.5 377.5zM471 637h490 q-1 99 -67.5 158t-168.5 59q-99 0 -173.5 -59.5t-80.5 -157.5zM565 1143l185 323h258l-246 -323h-197z" />
<glyph unicode="&#xea;" d="M264 498q0 115 28.5 210.5t84.5 167.5t146 112t206 40t202 -36.5t137.5 -105t76 -158t24.5 -202.5v-63h-698q-8 -137 74 -222t221 -85q135 0 160 69h204q-4 -68 -39.5 -117.5t-92.5 -75.5t-117 -38t-125 -12q-237 0 -364.5 138.5t-127.5 377.5zM303 1147l256 319h313 l258 -319h-235l-178 194l-178 -194h-236zM471 637h490q-1 99 -67.5 158t-168.5 59q-99 0 -173.5 -59.5t-80.5 -157.5z" />
<glyph unicode="&#xeb;" d="M264 498q0 115 28.5 210.5t84.5 167.5t146 112t206 40t202 -36.5t137.5 -105t76 -158t24.5 -202.5v-63h-698q-8 -137 74 -222t221 -85q135 0 160 69h204q-4 -68 -39.5 -117.5t-92.5 -75.5t-117 -38t-125 -12q-237 0 -364.5 138.5t-127.5 377.5zM436 1165v301h195v-301 h-195zM471 637h490q-1 99 -67.5 158t-168.5 59q-99 0 -173.5 -59.5t-80.5 -157.5zM807 1165v301h190v-301h-190z" />
<glyph unicode="&#xec;" d="M369 819v191h532v-1010h-209v819h-323zM420 1466h258l182 -323h-192z" />
<glyph unicode="&#xed;" d="M369 819v191h532v-1010h-209v819h-323zM580 1143l184 323h258l-246 -323h-196z" />
<glyph unicode="&#xee;" d="M330 1147l258 319h313l258 -319h-235l-179 194l-180 -194h-235zM369 819v191h532v-1010h-209v819h-323z" />
<glyph unicode="&#xef;" d="M369 819v191h532v-1010h-209v819h-323zM481 1165v301h195v-301h-195zM850 1165v301h192v-301h-192z" />
<glyph unicode="&#xf0;" d="M258 500q0 117 38 217.5t101.5 167.5t144.5 105t167 38q71 0 135 -35q-50 84 -135 166l-238 -88l-115 86l240 88q-80 58 -182 96l65 152q169 -57 318 -172l247 92l117 -86l-262 -98q138 -140 217.5 -319.5t79.5 -370.5q0 -132 -36.5 -239t-100 -176t-148.5 -105.5 t-184 -36.5q-212 0 -340.5 143t-128.5 375zM465 489q0 -176 75 -264t181 -88q51 0 97.5 19.5t86.5 60.5t64 115.5t24 173.5q0 253 -123 334q-46 32 -122 32q-57 0 -106 -21.5t-89.5 -65t-64 -119.5t-23.5 -177z" />
<glyph unicode="&#xf1;" d="M266 0v1010h207v-113h4q48 61 134 96t173 35q178 0 281.5 -108t103.5 -285v-635h-208v649q0 205 -199 205q-146 0 -217.5 -89.5t-71.5 -238.5v-526h-207zM315 1198v21q0 120 66 197t182 77q36 0 71 -11t55.5 -23t47.5 -32q10 -7 32 -23.5t32 -23t27 -13.5t32 -7 q39 0 55.5 33.5t16.5 72.5h186q0 -114 -61 -199t-172 -85t-205 75q-4 3 -15 11t-17.5 12t-18 11t-20 10.5t-19 6.5t-19.5 3q-25 0 -41 -20t-21 -43.5t-5 -49.5h-189z" />
<glyph unicode="&#xf2;" d="M227 510q0 233 132 375.5t358 142.5t357.5 -142.5t131.5 -375.5q0 -231 -131 -379.5t-358 -148.5q-226 0 -358 149t-132 379zM434 508q0 -75 14 -138t45.5 -117t88.5 -85t135 -31q64 0 113.5 21t80.5 55.5t51.5 83t28.5 100.5t8 111q0 58 -9 109.5t-30 99t-53 81.5 t-80.5 54t-109.5 20q-75 0 -131 -30t-88.5 -82.5t-48 -115.5t-15.5 -136zM442 1466h258l185 -323h-195z" />
<glyph unicode="&#xf3;" d="M227 510q0 233 132 375.5t358 142.5t357.5 -142.5t131.5 -375.5q0 -231 -131 -379.5t-358 -148.5q-226 0 -358 149t-132 379zM434 508q0 -75 14 -138t45.5 -117t88.5 -85t135 -31q64 0 113.5 21t80.5 55.5t51.5 83t28.5 100.5t8 111q0 58 -9 109.5t-30 99t-53 81.5 t-80.5 54t-109.5 20q-75 0 -131 -30t-88.5 -82.5t-48 -115.5t-15.5 -136zM549 1143l182 323h258l-246 -323h-194z" />
<glyph unicode="&#xf4;" d="M227 510q0 233 132 375.5t358 142.5t357.5 -142.5t131.5 -375.5q0 -231 -131 -379.5t-358 -148.5q-226 0 -358 149t-132 379zM303 1147l256 319h313l258 -319h-235l-178 194l-178 -194h-236zM434 508q0 -75 14 -138t45.5 -117t88.5 -85t135 -31q64 0 113.5 21t80.5 55.5 t51.5 83t28.5 100.5t8 111q0 58 -9 109.5t-30 99t-53 81.5t-80.5 54t-109.5 20q-75 0 -131 -30t-88.5 -82.5t-48 -115.5t-15.5 -136z" />
<glyph unicode="&#xf5;" d="M227 510q0 233 132 375.5t358 142.5t357.5 -142.5t131.5 -375.5q0 -231 -131 -379.5t-358 -148.5q-226 0 -358 149t-132 379zM315 1198v21q0 120 66 197t182 77q36 0 71 -11t55.5 -23t47.5 -32q10 -7 32 -23.5t32 -23t27 -13.5t32 -7q39 0 55.5 33.5t16.5 72.5h186 q0 -114 -61 -199t-172 -85t-205 75q-4 3 -15 11t-17.5 12t-18 11t-20 10.5t-19 6.5t-19.5 3q-25 0 -41 -20t-21 -43.5t-5 -49.5h-189zM434 508q0 -75 14 -138t45.5 -117t88.5 -85t135 -31q64 0 113.5 21t80.5 55.5t51.5 83t28.5 100.5t8 111q0 58 -9 109.5t-30 99t-53 81.5 t-80.5 54t-109.5 20q-75 0 -131 -30t-88.5 -82.5t-48 -115.5t-15.5 -136z" />
<glyph unicode="&#xf6;" d="M227 510q0 233 132 375.5t358 142.5t357.5 -142.5t131.5 -375.5q0 -231 -131 -379.5t-358 -148.5q-226 0 -358 149t-132 379zM434 508q0 -75 14 -138t45.5 -117t88.5 -85t135 -31q64 0 113.5 21t80.5 55.5t51.5 83t28.5 100.5t8 111q0 58 -9 109.5t-30 99t-53 81.5 t-80.5 54t-109.5 20q-75 0 -131 -30t-88.5 -82.5t-48 -115.5t-15.5 -136zM436 1165v301h195v-301h-195zM807 1165v301h190v-301h-190z" />
<glyph unicode="&#xf7;" d="M211 580v208h1012v-208h-1012zM588 213v248h258v-248h-258zM588 907v248h258v-248h-258z" />
<glyph unicode="&#xf8;" d="M227 510q0 233 132 375.5t358 142.5q101 -3 182 -29l96 179h166l-139 -258q86 -66 135 -181.5t49 -228.5q0 -231 -131 -379.5t-358 -148.5q-96 0 -191 30l-104 -194h-164l145 268q-88 78 -132 190t-44 234zM434 508q0 -58 2 -92.5t16 -83.5t40 -82l323 598q-41 24 -98 24 q-75 0 -131 -30t-88.5 -82.5t-48 -115.5t-15.5 -136zM610 166q60 -29 107 -29q64 0 113.5 21t80.5 55.5t51.5 83t28.5 100.5t8 111q0 155 -67 244z" />
<glyph unicode="&#xf9;" d="M266 348v662h207v-662q0 -104 41.5 -148t147.5 -44q299 0 299 342v512h208v-1010h-208v113q-55 -65 -147.5 -98t-188.5 -33q-168 0 -263.5 99.5t-95.5 266.5zM403 1466h259l182 -323h-193z" />
<glyph unicode="&#xfa;" d="M266 348v662h207v-662q0 -104 41.5 -148t147.5 -44q299 0 299 342v512h208v-1010h-208v113q-55 -65 -147.5 -98t-188.5 -33q-168 0 -263.5 99.5t-95.5 266.5zM586 1143l184 323h258l-246 -323h-196z" />
<glyph unicode="&#xfb;" d="M266 348v662h207v-662q0 -104 41.5 -148t147.5 -44q299 0 299 342v512h208v-1010h-208v113q-55 -65 -147.5 -98t-188.5 -33q-168 0 -263.5 99.5t-95.5 266.5zM303 1147l256 319h313l258 -319h-235l-178 194l-178 -194h-236z" />
<glyph unicode="&#xfc;" d="M266 348v662h207v-662q0 -104 41.5 -148t147.5 -44q299 0 299 342v512h208v-1010h-208v113q-55 -65 -147.5 -98t-188.5 -33q-168 0 -263.5 99.5t-95.5 266.5zM436 1165v301h195v-301h-195zM807 1165v301h190v-301h-190z" />
<glyph unicode="&#xfd;" d="M188 1010h254l301 -568l301 568h218l-617 -1139q-67 -124 -135.5 -171.5t-198.5 -47.5h-45v172h33q100 0 156 100l182 318zM629 1110l182 326h258l-246 -326h-194z" />
<glyph unicode="&#xfe;" d="M262 -348v1814h207v-551l14 9q70 55 129 79.5t142 24.5q109 0 197.5 -43t144 -116t85 -166.5t29.5 -198.5q0 -104 -29 -197.5t-83.5 -166t-141.5 -115.5t-194 -43q-76 0 -159.5 29.5t-133.5 82.5v-442h-207zM469 506q0 -70 14 -130t44.5 -111t84.5 -80t127 -29 q72 0 125 28t82.5 77.5t43.5 107.5t14 127q0 358 -265 358q-59 0 -106 -19.5t-77 -52t-50 -78t-28.5 -94.5t-8.5 -104z" />
<glyph unicode="&#xff;" d="M188 1010h254l301 -568l301 568h218l-617 -1139q-67 -124 -135.5 -171.5t-198.5 -47.5h-45v172h33q100 0 156 100l182 318zM436 1165v301h195v-301h-195zM807 1165v301h190v-301h-190z" />
<glyph unicode="&#x152;" d="M186 686q0 84 16.5 174t55 181t93 163t138 117t183.5 45h512v-188h-305v-369h305v-191h-305v-430h327v-188h-534q-101 0 -184.5 43t-138 113t-92.5 161t-54.5 184t-16.5 185zM395 676q0 -59 5.5 -116.5t23.5 -128t46.5 -122.5t81 -87.5t120.5 -35.5v996q-69 0 -121.5 -37 t-81 -91t-46.5 -127.5t-23 -132t-5 -118.5z" />
<glyph unicode="&#x153;" d="M244 291v448q0 135 71.5 212t196.5 77q142 0 207 -102q27 51 84 76.5t119 25.5q52 0 92.5 -11t68.5 -28.5t48 -46.5t31 -59t17.5 -71.5t8.5 -77.5t2 -85v-192h-381v-113q0 -28 0.5 -43.5t3 -42.5t9.5 -43t18 -33.5t30.5 -26t44.5 -8.5q31 0 52 13t30.5 38t13 49t3.5 56 h176v-47q0 -128 -66.5 -201t-193.5 -73q-164 0 -211 120q-60 -120 -225 -120q-118 0 -184 77t-66 232zM418 307q0 -78 22.5 -119t77.5 -41q113 0 113 154v406q0 83 -24 123t-85 40q-58 0 -81 -40.5t-23 -116.5v-406zM809 614h209v58q0 37 -1 57t-6.5 51t-16 47.5t-31.5 29.5 t-52 13q-25 0 -43 -7.5t-29 -24t-17.5 -32t-9 -43t-3 -44t-0.5 -47.5v-58z" />
<glyph unicode="&#x178;" d="M225 1137h234l258 -430l258 430h233l-387 -631v-506h-207v506zM395 1225v268h193v-268h-193zM846 1225v268h194v-268h-194z" />
<glyph unicode="&#x2c6;" d="M303 1147l256 319h313l258 -319h-235l-178 194l-178 -194h-236z" />
<glyph unicode="&#x2dc;" d="M315 1198v21q0 120 66 197t182 77q36 0 71 -11t55.5 -23t47.5 -32q10 -7 32 -23.5t32 -23t27 -13.5t32 -7q39 0 55.5 33.5t16.5 72.5h186q0 -114 -61 -199t-172 -85t-205 75q-4 3 -15 11t-17.5 12t-18 11t-20 10.5t-19 6.5t-19.5 3q-25 0 -41 -20t-21 -43.5t-5 -49.5 h-189z" />
<glyph unicode="&#x2000;" horiz-adv-x="747" />
<glyph unicode="&#x2001;" horiz-adv-x="1495" />
<glyph unicode="&#x2002;" horiz-adv-x="747" />
<glyph unicode="&#x2003;" horiz-adv-x="1495" />
<glyph unicode="&#x2004;" horiz-adv-x="498" />
<glyph unicode="&#x2005;" horiz-adv-x="373" />
<glyph unicode="&#x2006;" horiz-adv-x="249" />
<glyph unicode="&#x2007;" horiz-adv-x="249" />
<glyph unicode="&#x2008;" horiz-adv-x="186" />
<glyph unicode="&#x2009;" horiz-adv-x="299" />
<glyph unicode="&#x200a;" horiz-adv-x="83" />
<glyph unicode="&#x2010;" d="M211 580v208h1012v-208h-1012z" />
<glyph unicode="&#x2011;" d="M211 580v208h1012v-208h-1012z" />
<glyph unicode="&#x2012;" d="M211 580v208h1012v-208h-1012z" />
<glyph unicode="&#x2013;" d="M295 580v208h846v-208h-846z" />
<glyph unicode="&#x2014;" d="M-8 580v208h1450v-208h-1450z" />
<glyph unicode="&#x2018;" d="M578 1366h276l-41 -637h-195z" />
<glyph unicode="&#x2019;" d="M578 1366h276l-41 -637h-195z" />
<glyph unicode="&#x201a;" d="M578 283h276l-41 -637h-195z" />
<glyph unicode="&#x201c;" d="M315 1366h277l-39 -637h-197zM840 1366h276l-41 -637h-194z" />
<glyph unicode="&#x201d;" d="M315 1366h277l-39 -637h-197zM840 1366h276l-41 -637h-194z" />
<glyph unicode="&#x201e;" d="M317 283h277l-39 -637h-197zM842 283h276l-41 -637h-194z" />
<glyph unicode="&#x2022;" d="M504 342v346h426v-346h-426z" />
<glyph unicode="&#x2026;" d="M80 0v315h291v-315h-291zM571 0v315h291v-315h-291zM1063 0v315h291v-315h-291z" />
<glyph unicode="&#x202f;" horiz-adv-x="299" />
<glyph unicode="&#x2039;" d="M444 453v137l545 360l2 -209l-321 -219l321 -219l-2 -211z" />
<glyph unicode="&#x203a;" d="M444 303l324 219l-324 219l2 209l545 -360v-137l-545 -361z" />
<glyph unicode="&#x205f;" horiz-adv-x="373" />
<glyph unicode="&#x20ac;" d="M168 506v164h119v141h-119v162h137q20 113 61.5 205t107 164t162 111.5t216.5 39.5q214 0 389 -168l-96 -166q-79 70 -148.5 108t-144.5 38q-270 0 -338 -332h549l-78 -162h-489q-3 -74 0 -141h440l-78 -164h-344q64 -334 338 -334q154 0 319 121l68 -162 q-77 -67 -177.5 -108t-209.5 -41q-120 0 -217 40t-162.5 112t-107 165t-60.5 207h-137z" />
<glyph unicode="&#x2122;" d="M66 1329v137h526v-137h-186v-600h-154v600h-186zM653 729v737h183l137 -307h6l137 307h184v-737h-153v533h-2l-123 -285h-90l-123 285h-2v-533h-154z" />
<glyph unicode="&#xe000;" horiz-adv-x="1013" d="M0 0v1014h1014v-1014h-1014z" />
<glyph unicode="&#xfb01;" d="M119 836v174h207v49q0 201 89.5 304t295.5 103h65v-172q-80 0 -124.5 -8.5t-72.5 -36t-36 -70t-8 -120.5v-49h643v-1010h-209v836h-434v-836h-209v836h-207zM920 1210v256h258v-256h-258z" />
<glyph unicode="&#xfb02;" d="M119 836v174h207v49q0 201 89.5 304t295.5 103h61v-172q-52 0 -87 -3.5t-63 -14t-43.5 -26t-26 -43t-14 -62t-3.5 -86.5v-49h237v-174h-237v-836h-209v836h-207zM948 297v1169h209v-1122q0 -53 9.5 -86.5t31.5 -51t46 -23.5t65 -9v-174h-72q-289 0 -289 297z" />
</font>
</defs>
</svg>
